<svg width="291" height="132" viewBox="0 0 291 132" fill="none" xmlns="http://www.w3.org/2000/svg">
<path d="M2 131H1V130V5C1 2.78789 2.80069 1 5.00687 1C7.21304 1 9.01373 2.78789 9.01373 5V11.3924H14.4021V10.1962C14.4021 7.98707 16.1929 6.19621 18.4021 6.19621H49C51.2092 6.19621 53 7.98708 53 10.1962V32.429C53 34.6381 51.2091 36.429 49 36.429H18.4021C16.1929 36.429 14.4021 34.6381 14.4021 32.429V31.2327H9.01373V127H289H290V128V130V131H289H8.01373H2ZM9.01373 16.5101V26.115H14.4021V16.5101H9.01373Z" stroke="#D4AA49" stroke-width="2"/>
</svg>
