<svg width="64" height="64" viewBox="0 0 64 64" fill="none" xmlns="http://www.w3.org/2000/svg">
<path d="M16 16C16 16 23.0321 17 27.65 17C32.2679 17 39.3 16 39.3 16V52.4615C39.3 52.7977 39.1294 53.1084 38.8251 53.2512C37.6808 53.7884 34.3563 55 27.65 55C20.9437 55 17.6192 53.7884 16.4749 53.2512C16.1706 53.1084 16 52.7977 16 52.4615V16Z" fill="#FFA300"/>
<path fill-rule="evenodd" clip-rule="evenodd" d="M51.3873 17.3016L54.5092 42.8766C54.7361 44.7316 54.1555 46.5985 52.9161 47.9979C51.6773 49.3979 49.8948 50.2004 48.0255 50.2004H42.0673V56.0116C42.6048 56.1698 43.0767 56.5098 43.1067 57.1016C43.1417 57.8029 43.1067 58.6791 43.1067 58.6791L43.0986 58.8879L42.9686 59.051C42.5992 59.5173 40.3686 60.6004 27.6673 60.6004C14.9661 60.6004 12.7355 59.5173 12.3661 59.051L12.2361 58.8879L12.228 58.6791C12.228 58.6791 12.193 57.8029 12.228 57.1016C12.258 56.5098 12.7298 56.1698 13.2673 56.0116V4.44039C13.2673 3.68352 13.2673 3.40039 27.6673 3.40039C42.0673 3.40039 42.0673 3.68352 42.0673 4.44039V11.5604H44.9036C48.2011 11.5604 50.9886 14.0285 51.3873 17.3016ZM27.6673 5.35477C34.9287 5.35477 38.2705 5.10461 39.8137 4.88875C38.2284 4.79188 34.8515 4.68039 27.6673 4.68039C20.4832 4.68039 17.1063 4.79188 15.5209 4.88875C17.0641 5.10461 20.406 5.35477 27.6673 5.35477ZM27.6673 59.3204C38.1611 59.3204 41.1105 58.5516 41.838 58.271C41.843 58.006 41.8461 57.6323 41.8336 57.286C41.7441 57.2472 41.5914 57.2128 41.4528 57.1963C40.7217 57.3491 36.4798 58.1473 27.6673 58.1473C18.8516 58.1473 14.6101 57.3486 13.881 57.1961C13.7437 57.2127 13.5908 57.2471 13.5011 57.286C13.488 57.6466 13.4917 58.0373 13.4973 58.3035C14.0767 58.5116 16.9017 59.3204 27.6673 59.3204ZM42.0673 18.0248V44.3873H46.3917C46.9805 44.3873 47.5223 44.1473 47.9173 43.711C48.313 43.2748 48.4986 42.7123 48.4411 42.126L46.2473 19.8816C46.1436 18.8229 45.2623 18.0248 44.1986 18.0248H42.0673ZM48.0255 48.9204C49.528 48.9204 50.9617 48.2748 51.958 47.1498C52.9542 46.0241 53.4211 44.5235 53.2392 43.0316L50.1173 17.4566C49.7961 14.8248 47.5548 12.8404 44.9036 12.8404H40.7873V5.35867C39.0193 5.77141 34.4828 5.99477 27.6673 5.99477C20.8519 5.99477 16.3154 5.77141 14.5473 5.35867V35.9385V53.2623V56.0188C15.906 56.2583 20.1048 56.8673 27.6673 56.8673C35.233 56.8673 39.4327 56.2577 40.7895 56.0184L40.7887 53.2587L40.7883 48.9204H41.2136H48.0255ZM41.2136 45.6673H46.3917C47.3323 45.6673 48.2342 45.2679 48.8661 44.5704C49.4973 43.8735 49.8073 42.9373 49.7148 42.001L47.5211 19.756C47.3523 18.0391 45.9242 16.7448 44.1986 16.7448H40.7873V35.9397L40.7881 45.6673H41.2136Z" fill="black"/>
<ellipse cx="27.65" cy="14.5" rx="11.65" ry="1.5" fill="#FFA300"/>
</svg>
