<svg width="64" height="64" viewBox="0 0 64 64" fill="none" xmlns="http://www.w3.org/2000/svg">
<path d="M36.8124 22.3572L36.8675 22.9338L37.3951 23.1729C37.8602 23.3837 38.689 23.8189 39.5152 24.5391C41.1497 25.964 41.9999 27.8263 42 29.9619C42 29.9619 42 29.9619 42 29.962V33.4085V34.1491V50.7629V51.5035V58.1967C42 60.3362 40.3462 62 38.4094 62H25.592C23.6542 62 22 60.3358 22 58.1967V51.5035V50.7629V34.1491V33.4085V29.9619C22 27.8263 22.8502 25.964 24.4846 24.5391C25.3108 23.819 26.1396 23.3839 26.605 23.1728L27.1323 22.9336L27.1874 22.3573L28.7856 5.64777L28.838 5.09986H35.1631L35.2155 5.64769L36.8124 22.3572Z" fill="#FFA300" stroke="#212C4C" stroke-width="2"/>
<path d="M22.416 50.0233H41.5841L41.5839 34.8906H22.416V50.0233Z" fill="#212C4C"/>
</svg>
