<svg width="64" height="64" viewBox="0 0 64 64" fill="none" xmlns="http://www.w3.org/2000/svg">
<path d="M41.4662 28.9231C38.2964 23.8548 36.6164 17.997 36.6182 12.0191V8.1825C36.9218 8.00719 37.174 7.75514 37.3496 7.45161C37.5251 7.14808 37.6177 6.80374 37.6182 6.45312V3.45312C37.6175 2.92288 37.4066 2.41454 37.0317 2.03961C36.6568 1.66467 36.1484 1.45375 35.6182 1.45312H29.6182C29.0879 1.45375 28.5796 1.66467 28.2046 2.03961C27.8297 2.41454 27.6188 2.92288 27.6182 3.45312V6.45312C27.6186 6.80374 27.7113 7.14808 27.8868 7.45161C28.0623 7.75514 28.3145 8.00719 28.6182 8.1825V12.0191C28.62 17.997 26.94 23.8548 23.7702 28.9231C20.4016 34.3092 18.6162 40.5344 18.6182 46.8871V59.4531C18.6194 60.5136 19.0412 61.5303 19.7911 62.2802C20.5409 63.0301 21.5577 63.4519 22.6182 63.4531H42.6182C43.6787 63.4519 44.6954 63.0301 45.4453 62.2802C46.1952 61.5303 46.617 60.5136 46.6182 59.4531V46.8871C46.6201 40.5344 44.8347 34.3092 41.4662 28.9231ZM25.4662 29.9831C25.9947 29.1376 26.4838 28.2728 26.9334 27.3888C27.1612 27.499 27.391 27.6051 27.6243 27.7013C27.6884 28.9825 28.2425 30.19 29.172 31.0741C30.1015 31.9583 31.3352 32.4513 32.618 32.4513C33.9009 32.4513 35.1346 31.9583 36.0641 31.0741C36.9936 30.19 37.5477 28.9825 37.6118 27.7013C37.8459 27.6041 38.0758 27.4989 38.3028 27.3888C38.7523 28.2721 39.2413 29.1367 39.7699 29.9826C41.9605 33.4858 43.4489 37.3817 44.152 41.4531H21.0843C21.7875 37.3819 23.2757 33.4862 25.4662 29.9831ZM42.6182 61.4531H22.6182C22.0879 61.4525 21.5796 61.2416 21.2046 60.8666C20.8297 60.4917 20.6188 59.9834 20.6182 59.4531V57.4531H44.6182V59.4531C44.6175 59.9834 44.4066 60.4917 44.0317 60.8666C43.6567 61.2416 43.1484 61.4525 42.6182 61.4531Z" fill="#212C4C"/>
<path d="M22.6182 61.4531H42.6182C43.1484 61.4525 43.6567 61.2416 44.0317 60.8666C44.4066 60.4917 44.6175 59.9834 44.6182 59.4531V57.4531H20.6182V59.4531C20.6188 59.9834 20.8297 60.4917 21.2046 60.8666C21.5796 61.2416 22.0879 61.4525 22.6182 61.4531Z" fill="#FFDB88"/>
<path d="M26.9336 27.3906C26.4839 28.2747 25.9948 29.1395 25.4663 29.985C23.2759 33.4881 21.7876 37.3837 21.0845 41.455H44.1522C43.449 37.3835 41.9607 33.4877 39.7701 29.9845C39.2415 29.1386 38.7525 28.274 38.303 27.3906C38.076 27.5008 37.8461 27.606 37.612 27.7031C37.5479 28.9843 36.9937 30.1919 36.0643 31.076C35.1348 31.9601 33.901 32.4532 32.6182 32.4532C31.3354 32.4532 30.1017 31.9601 29.1722 31.076C28.2427 30.1919 27.6886 28.9843 27.6245 27.7031C27.3912 27.607 27.1613 27.5009 26.9336 27.3906Z" fill="#FFDB88"/>
</svg>
