<svg width="64" height="64" viewBox="0 0 64 64" fill="none" xmlns="http://www.w3.org/2000/svg">
<path d="M22.9646 60.3163C22.7069 60.5963 22.5556 60.958 22.5371 61.3382C22.5371 61.9644 23.0235 62.345 25.6795 62.6863C27.777 62.9332 29.8877 63.0516 31.9996 63.0409C34.1116 63.0516 36.2222 62.9332 38.3196 62.6863C40.9756 62.345 41.462 61.9644 41.462 61.3382C41.4435 60.9579 41.2922 60.5962 41.0345 60.316C40.5838 59.764 39.952 59.3895 39.2514 59.2591C39.0945 59.2253 38.852 59.1941 38.5527 59.1572C37.401 59.0829 36.2753 58.782 35.2401 58.2719C34.377 57.7384 33.7457 55.4384 33.6345 53.5231C33.382 49.1481 33.7902 39.0568 34.0302 35.9684C34.1829 34.7242 34.6361 33.5359 35.3507 32.506C36.5107 30.4822 38.0995 27.7106 39.2076 21.0831C40.4126 13.8772 39.1395 3.03281 39.0364 2.18001C39.0315 1.67966 38.8521 0.960938 31.9996 0.960938C25.1472 0.960938 24.9678 1.67966 24.9628 2.18033C24.8597 3.03313 23.5868 13.8775 24.7915 21.0834C25.8997 27.711 27.4884 30.4825 28.6484 32.5063C29.363 33.5362 29.8162 34.7245 29.969 35.9687C30.209 39.0571 30.6171 49.1484 30.3646 53.5231C30.2534 55.4387 29.6222 57.7387 28.759 58.2719C27.7238 58.782 26.5981 59.0829 25.4465 59.1572C25.1472 59.1941 24.9047 59.2253 24.7477 59.2591C24.047 59.3895 23.4153 59.7641 22.9646 60.3163ZM31.9996 2.24094C33.9393 2.18698 35.8799 2.31053 37.7971 2.61003C37.8035 2.66398 37.8099 2.72625 37.8175 2.79326C35.8925 3.08388 33.9459 3.20659 31.9996 3.15998C30.0535 3.20657 28.1069 3.08387 26.182 2.79326C26.1894 2.72625 26.1963 2.66391 26.2024 2.61003C28.1195 2.31054 30.06 2.187 31.9996 2.24094ZM25.019 60.5103C25.1497 60.4819 25.3521 60.4584 25.6021 60.4278C26.9382 60.3381 28.2416 59.975 29.4315 59.3609C30.9675 58.4122 31.544 55.2916 31.6421 53.5972C31.8981 49.1694 31.4871 38.9838 31.2453 35.8692C31.0846 34.4347 30.5743 33.0615 29.7591 31.8702C28.6472 29.9302 27.1247 27.2736 26.0541 20.8724C25.0782 15.0361 25.8055 6.45316 26.1161 3.41585C26.9534 3.62244 28.6322 3.80017 31.9997 3.80017C35.3672 3.80017 37.046 3.62244 37.8833 3.41585C38.1939 6.45278 38.9218 15.0337 37.9453 20.8724C36.8747 27.2736 35.3522 29.9302 34.2403 31.8702C33.4251 33.0615 32.9148 34.4347 32.7541 35.8692C32.5122 38.9837 32.1013 49.1693 32.3573 53.5972C32.4554 55.2913 33.0316 58.412 34.5679 59.3607C35.7578 59.9748 37.0612 60.3381 38.3973 60.4279C38.6473 60.4585 38.8497 60.482 38.9804 60.5104C39.3786 60.5758 39.7416 60.7781 40.0066 61.0825C37.3701 61.5982 34.6853 61.8257 31.9996 61.7609C29.314 61.8257 26.6293 61.5982 23.9928 61.0825C24.2578 60.7781 24.6207 60.5757 25.019 60.5103Z" fill="#212C4C"/>
<path d="M31.9998 15.0764C34.7799 15.0764 36.6392 14.8608 37.0042 14.6951C37.009 14.6873 37.0183 14.6835 37.0237 14.6759C37.0243 14.6388 37.0261 14.6021 37.0266 14.565C37.0266 14.2962 34.7761 14.0781 31.9998 14.0781C29.2236 14.0781 26.9731 14.2961 26.9731 14.565C26.9736 14.6022 26.9754 14.6388 26.976 14.676C26.9815 14.6834 26.9907 14.6871 26.9952 14.6952C27.3605 14.8608 29.2198 15.0764 31.9998 15.0764Z" fill="#FFDB88"/>
<path d="M33.5357 30.2577C34.5176 28.4575 35.6906 25.8447 36.5615 20.6366C36.8296 18.8844 36.9781 17.1161 37.0061 15.3438C36.3495 15.5421 34.9624 15.7166 31.9999 15.7166C29.0374 15.7166 27.6504 15.5423 26.9937 15.3438C27.0215 17.116 27.17 18.8844 27.4379 20.6366C28.3088 25.8449 29.4817 28.4573 30.4635 30.2577C30.6144 30.5331 30.8366 30.7629 31.1069 30.923C31.3771 31.083 31.6854 31.1675 31.9995 31.1675C32.3136 31.1675 32.6219 31.083 32.8921 30.923C33.1623 30.7629 33.3848 30.5331 33.5357 30.2577Z" fill="#FFDB88"/>
</svg>
