<svg width="64" height="64" viewBox="0 0 64 64" fill="none" xmlns="http://www.w3.org/2000/svg">
<path fill-rule="evenodd" clip-rule="evenodd" d="M26.9882 14.7134L28.9929 14.4333V11.3333H35.0071V14.4333L37.0118 14.713V11.2817C37.5775 11.1618 38.0857 10.8446 38.4509 10.3834C38.8161 9.92221 39.0159 9.34532 39.0165 8.75V3.58333C39.0158 2.89843 38.7515 2.24181 38.2817 1.75751C37.812 1.27321 37.175 1.00079 36.5106 1H27.4894C26.825 1.00079 26.188 1.27321 25.7183 1.75751C25.2485 2.24181 24.9842 2.89843 24.9835 3.58333V8.75C24.9841 9.34532 25.1839 9.92221 25.5491 10.3834C25.9143 10.8446 26.4225 11.1618 26.9882 11.2817V14.7134Z" fill="#212C4C"/>
<path fill-rule="evenodd" clip-rule="evenodd" d="M46.3687 26.5879L42.1706 24.8054C40.9392 24.286 39.886 23.3998 39.1456 22.2601C38.4052 21.1204 38.0113 19.779 38.0142 18.4074V16.5C38.0137 16.1377 37.9209 15.7819 37.7449 15.4682C37.569 15.1546 37.3162 14.8941 37.0118 14.713L35.0071 14.4333H28.9929L26.9882 14.7134C26.6839 14.8945 26.4311 15.1549 26.2552 15.4685C26.0792 15.782 25.9864 16.1378 25.9858 16.5V18.4074C25.9887 19.779 25.5948 21.1204 24.8544 22.2601C24.114 23.3998 23.0608 24.286 21.8294 24.8054L17.6313 26.5879C15.1162 27.6573 13.0146 29.5539 11.6538 31.9825C10.293 34.4111 9.74927 37.2354 10.1073 40.0157L12.6159 59.413C12.7469 60.4047 13.2214 61.3141 13.9519 61.9734C14.6823 62.6327 15.6195 62.9973 16.5903 63H47.4097C48.3806 62.9973 49.3177 62.6326 50.0482 61.9734C50.7787 61.3141 51.2531 60.4046 51.3841 59.4129L53.8927 40.0157C54.2507 37.2354 53.707 34.4111 52.3462 31.9825C50.9854 29.5539 48.8838 27.6573 46.3687 26.5879Z" fill="#96020C"/>
<path d="M29.0624 15.4333L27.3626 15.6708C27.2699 15.7496 27.1898 15.8464 27.1273 15.9577C27.0358 16.1209 26.9863 16.3081 26.9858 16.5005C26.9858 16.5008 26.9858 16.5011 26.9858 16.5015L26.9858 18.4072C26.9888 19.9704 26.5398 21.5014 25.693 22.8049C24.8458 24.109 23.6374 25.1279 22.2188 25.7265C22.2185 25.7266 22.2183 25.7267 22.2181 25.7268L18.0225 27.5082C15.7152 28.4892 13.781 30.232 12.5262 32.4714C11.2712 34.711 10.7684 37.3187 11.099 39.8874C11.099 39.8876 11.0991 39.8878 11.0991 39.888L13.6073 59.2821C13.6074 59.2826 13.6074 59.283 13.6075 59.2834C13.7082 60.0434 14.0712 60.7341 14.6219 61.231C15.1717 61.7273 15.8716 61.9977 16.5918 62C16.5922 62 16.5927 62 16.5931 62H47.4069C47.4073 62 47.4078 62 47.4082 62C48.1284 61.9977 48.8283 61.7273 49.3782 61.231C49.9288 60.7341 50.2918 60.0433 50.3925 59.2834C50.3926 59.2829 50.3926 59.2825 50.3927 59.282L52.9009 39.888C52.9009 39.8878 52.901 39.8876 52.901 39.8874C53.2316 37.3187 52.7288 34.711 51.4738 32.4714C50.219 30.232 48.2848 28.4892 45.9775 27.5082L41.7819 25.7268C41.7816 25.7267 41.7814 25.7266 41.7811 25.7264C40.3625 25.1278 39.1542 24.109 38.307 22.8049C37.46 21.5011 37.0111 19.9697 37.0142 18.4062V18.4074L29.0624 15.4333ZM29.0624 15.4333H34.9377L36.6375 15.6704M29.0624 15.4333L36.6375 15.6704M37.0142 16.5013L37.0142 18.4053L37.0142 16.5013ZM37.0142 16.5013C37.0139 16.3085 36.9644 16.1209 36.8728 15.9574C36.8103 15.846 36.7302 15.7493 36.6375 15.6704M37.0142 16.5013L36.6375 15.6704M36.0118 11.2817V13.5638L36.0071 13.5631V11.3333V10.3333H35.0071H28.9929H27.9929V11.3333V13.5633L27.9882 13.564V11.2817V10.4713L27.1955 10.3034C26.8621 10.2328 26.5563 10.0445 26.333 9.76259C26.1095 9.48026 25.984 9.12263 25.9835 8.74962C25.9835 8.74938 25.9835 8.74914 25.9835 8.74889V3.58445C25.9835 3.58421 25.9835 3.58397 25.9835 3.58373C25.9841 3.15428 26.1502 2.74848 26.436 2.45378C26.721 2.16007 27.1006 2.0006 27.49 2H36.51C36.8994 2.0006 37.279 2.16007 37.564 2.45378C37.85 2.74865 38.0161 3.15473 38.0165 3.58445V8.74889C38.0161 9.12217 37.8907 9.48008 37.667 9.76259C37.4437 10.0445 37.1379 10.2328 36.8045 10.3034L36.0118 10.4713V11.2817Z" stroke="#212C4C" stroke-width="2"/>
<path d="M32.0002 26.8359C32.7932 26.8359 33.5684 27.0784 34.2277 27.5325C34.8871 27.9867 35.401 28.6322 35.7044 29.3875C36.0079 30.1428 36.0873 30.9739 35.9326 31.7756C35.7779 32.5774 35.396 33.3139 34.8353 33.892C34.2746 34.47 33.5601 34.8637 32.7824 35.0232C32.0046 35.1827 31.1985 35.1008 30.4658 34.788C29.7332 34.4751 29.107 33.9454 28.6664 33.2656C28.2259 32.5859 27.9907 31.7868 27.9907 30.9693C27.9919 29.8734 28.4147 28.8228 29.1664 28.0479C29.918 27.273 30.9372 26.8372 32.0002 26.8359Z" fill="#212C4C"/>
<path d="M47.0278 55.8979L49.0325 39.3646C49.0501 39.2192 49.0375 39.0716 48.9956 38.9316C48.9537 38.7916 48.8834 38.6624 48.7893 38.5526C48.6953 38.4428 48.5796 38.3548 48.4501 38.2945C48.3205 38.2343 48.18 38.2031 48.0379 38.2031H15.9623C15.8202 38.2031 15.6797 38.2343 15.5501 38.2945C15.4206 38.3548 15.3049 38.4428 15.2109 38.5526C15.1168 38.6624 15.0465 38.7916 15.0046 38.9316C14.9626 39.0716 14.9501 39.2192 14.9677 39.3646L16.9724 55.8979C17.0027 56.1478 17.1205 56.3777 17.3037 56.5444C17.4868 56.7111 17.7227 56.8031 17.967 56.8031H46.0332C46.2775 56.8031 46.5134 56.7111 46.6965 56.5444C46.8797 56.3777 46.9975 56.1478 47.0278 55.8979Z" fill="#212C4C"/>
</svg>
