<svg width="64" height="64" viewBox="0 0 64 64" fill="none" xmlns="http://www.w3.org/2000/svg">
<path d="M40.3086 30.2113C41.4911 29.4876 42.7142 28.7401 43.8586 27.8538C47.8667 24.7476 51.043 21.5513 49.298 13.8763C47.9942 8.14508 46.6374 3.55008 46.6224 3.49758C46.4786 3.03258 46.2624 2.33008 31.9999 2.33008C17.7374 2.33008 17.5211 3.03258 17.3755 3.50508C17.3624 3.55008 16.0055 8.14508 14.7017 13.8763C12.9567 21.5513 16.133 24.7476 20.1411 27.8538C21.2855 28.7401 22.5086 29.4876 23.6911 30.2113C25.9211 31.5738 28.0274 32.8626 28.8561 34.7038C29.913 37.0513 30.2155 51.2426 29.0011 54.4551C28.738 55.1513 26.7492 55.6976 25.1517 56.1363C22.6617 56.8201 20.0874 57.5263 20.0005 59.3951C19.9855 59.7188 20.013 60.1388 20.3649 60.5076C21.0992 61.2763 23.1005 61.6676 31.9999 61.6676C40.8992 61.6676 42.9005 61.2763 43.6349 60.5076C43.9867 60.1388 44.0142 59.7188 43.9992 59.3951C43.9124 57.5263 41.338 56.8201 38.848 56.1363C37.2505 55.6976 35.2617 55.1513 34.9986 54.4551C33.7842 51.2426 34.0867 37.0513 35.1436 34.7038C35.9724 32.8626 38.0786 31.5738 40.3086 30.2113ZM45.166 4.09859C43.8979 4.33586 40.5853 4.67383 31.9999 4.67383C23.4142 4.67383 20.1017 4.33586 18.8336 4.09859C19.8809 3.91914 22.99 3.61008 31.9999 3.61008C41.0095 3.61008 44.1185 3.91914 45.166 4.09859ZM33.8011 54.9076C34.2949 56.2138 36.3417 56.7751 38.5092 57.3713C40.3661 57.8801 42.6767 58.5151 42.7205 59.4551C42.7267 59.5801 42.7161 59.6126 42.7149 59.6163C42.3905 60.1276 38.7855 60.3876 31.9999 60.3876C25.2142 60.3876 21.6092 60.1276 21.2855 59.6176C21.2836 59.6126 21.273 59.5801 21.2792 59.4551C21.323 58.5151 23.6336 57.8801 25.4905 57.3713C27.658 56.7751 29.7049 56.2138 30.1986 54.9076C31.5136 51.4276 31.1705 36.7276 30.0236 34.1788C29.033 31.9763 26.7624 30.5888 24.3592 29.1188C23.2061 28.4138 22.0136 27.6851 20.9249 26.8413C17.1392 23.9088 14.3699 21.1113 15.9505 14.1613C16.9342 9.83328 17.9452 6.1725 18.379 4.64523C20.1724 5.07852 24.8827 5.31383 31.9999 5.31383C39.117 5.31383 43.8275 5.07852 45.6208 4.64523C46.0559 6.17641 47.0653 9.83352 48.0492 14.1613C49.6299 21.1113 46.8605 23.9088 43.0749 26.8413C41.9861 27.6851 40.7936 28.4138 39.6405 29.1188C37.2374 30.5888 34.9667 31.9763 33.9761 34.1788C32.8292 36.7276 32.4861 51.4276 33.8011 54.9076Z" fill="#212C4C"/>
<path fill-rule="evenodd" clip-rule="evenodd" d="M39 28C40.2602 27.3718 41.0407 26.7423 42 26C45.3799 23.3826 48.9714 20.4672 46.4999 14C46.4999 14 43.5267 15.7293 31.4996 15.7293C19.4724 15.7293 17.4997 14 17.4997 14C15.0282 20.4672 18.6195 23.3826 21.9995 26C22.9587 26.7423 23.7396 27.3718 25 28C27.5022 29.2471 29.2043 29.5 32 29.5C34.7957 29.5 36.4979 29.2472 39 28Z" fill="#C53449"/>
<ellipse cx="32" cy="13.5" rx="14" ry="1.5" fill="#C53449"/>
</svg>
