<svg width="64" height="64" viewBox="0 0 64 64" fill="none" xmlns="http://www.w3.org/2000/svg">
<path fill-rule="evenodd" clip-rule="evenodd" d="M26.1118 21.7533L37.8879 21.7535L37.0259 7.96887V3C37.0253 2.46976 36.8144 1.96142 36.4395 1.58648C36.0645 1.21154 35.5562 1.00063 35.0259 1H28.9727C28.4424 1.00063 27.9341 1.21154 27.5592 1.58648C27.1842 1.96142 26.9733 2.46976 26.9727 3V7.96887L26.1118 21.7533ZM35.0259 3H28.9727V7H35.0259V3ZM35.0868 9H28.9118L28.3493 18H35.6493L35.0868 9Z" fill="#212C4C"/>
<path fill-rule="evenodd" clip-rule="evenodd" d="M50.9469 58.9875C50.9268 58.2145 50.7892 57.4492 50.5387 56.7176L50.0713 55.351C49.9502 54.9975 49.8824 54.628 49.8701 54.2545L49.2999 37.1903C49.2113 34.5349 48.3826 31.9572 46.9072 29.7477C45.4319 27.5382 43.3685 25.7848 40.9499 24.6852L39.4328 23.9958C38.9958 23.7977 38.6211 23.4843 38.3489 23.0893C38.0767 22.6942 37.9173 22.2324 37.8879 21.7535L26.1118 21.7533C26.0824 22.2321 25.9231 22.6939 25.6509 23.0889C25.3787 23.4839 25.0039 23.7973 24.5669 23.9953L23.0493 24.6849C20.6307 25.7844 18.5674 27.5378 17.092 29.7473C15.6167 31.9568 14.7879 34.5345 14.6993 37.1899L14.1292 54.2542C14.1168 54.6277 14.049 54.9973 13.9279 55.3509L13.4606 56.7171C13.2101 57.4487 13.0724 58.214 13.0523 58.987L13.0007 60.9475C12.9937 61.2144 13.0402 61.48 13.1375 61.7287C13.2347 61.9773 13.3808 62.204 13.5671 62.3953C13.7534 62.5866 13.9761 62.7386 14.222 62.8425C14.468 62.9464 14.7323 62.9999 14.9993 63H48.9993C49.2664 63 49.5307 62.9465 49.7768 62.8427C50.0229 62.7388 50.2456 62.5868 50.432 62.3955C50.6183 62.2041 50.7645 61.9774 50.8618 61.7287C50.9591 61.48 51.0056 61.2144 50.9986 60.9474L50.9469 58.9875Z" fill="#C5320C"/>
<path d="M36.6499 17.9789L36.8235 20.7535L27.1762 20.7533L27.2857 19H28.3493H35.6493H36.7138L36.6499 17.9789ZM26.4743 23.6563C26.6671 23.3765 26.8189 23.0724 26.9264 22.7533L37.0733 22.7535C37.1808 23.0726 37.3326 23.3768 37.5254 23.6566C37.9005 24.2011 38.4169 24.6331 39.0191 24.9061C39.0191 24.9062 39.0192 24.9062 39.0193 24.9062C39.0196 24.9064 39.0198 24.9065 39.0201 24.9066L40.5361 25.5956C40.5361 25.5956 40.5362 25.5956 40.5362 25.5956C42.7851 26.6181 44.7037 28.2485 46.0756 30.303C47.4475 32.3575 48.2181 34.7545 48.3005 37.2236L48.8706 54.2875C48.8706 54.2876 48.8706 54.2876 48.8706 54.2876C48.8706 54.2877 48.8706 54.2878 48.8706 54.2879C48.8863 54.7602 48.972 55.2275 49.1251 55.6746C49.1252 55.6747 49.1252 55.6749 49.1253 55.675L49.5925 57.0412L49.5926 57.0416C49.8102 57.6771 49.9298 58.342 49.9473 59.0135L49.9473 59.0138L49.9989 60.9737C50.0024 61.1072 49.9792 61.24 49.9305 61.3644C49.8819 61.4887 49.8088 61.6021 49.7156 61.6977C49.6224 61.7934 49.5111 61.8694 49.388 61.9213C49.265 61.9732 49.1328 62 48.9993 62H14.9997C14.9995 62 14.9994 62 14.9993 62C14.8659 61.9999 14.7339 61.9731 14.611 61.9212C14.488 61.8693 14.3767 61.7933 14.2836 61.6976C14.1904 61.602 14.1174 61.4887 14.0687 61.3643C14.0201 61.24 13.9968 61.1073 14.0003 60.9738C14.0003 60.9738 14.0003 60.9738 14.0003 60.9737L14.052 59.0133L14.052 59.013C14.0695 58.3415 14.1891 57.6766 14.4067 57.041L14.4067 57.0408L14.874 55.6748C14.8741 55.6747 14.8741 55.6746 14.8741 55.6745C15.0272 55.2274 15.1129 54.76 15.1286 54.2876C15.1286 54.2876 15.1286 54.2875 15.1286 54.2874L15.6988 37.2233L15.6988 37.2232C15.7812 34.7541 16.5518 32.3572 17.9237 30.3026C19.2955 28.2481 21.2141 26.6177 23.463 25.5953C23.4631 25.5953 23.4631 25.5952 23.4632 25.5952L24.9796 24.9061C24.9799 24.906 24.9803 24.9058 24.9806 24.9057C24.9806 24.9057 24.9806 24.9057 24.9806 24.9057C25.5828 24.6327 26.0992 24.2007 26.4743 23.6563Z" stroke="#212C4C" stroke-width="2"/>
<path d="M40.4391 53.4135C40.814 53.0386 41.0249 52.5302 41.0255 52L41.0259 44C41.0253 43.4698 40.8144 42.9614 40.4394 42.5865C40.0645 42.2115 39.5561 42.0006 39.0259 42H24.9727C24.4424 42.0006 23.9341 42.2115 23.5591 42.5865C23.1842 42.9614 22.9733 43.4698 22.9727 44V52C22.9733 52.5302 23.1842 53.0386 23.5591 53.4135C23.9341 53.7885 24.4424 53.9994 24.9727 54H39.0255C39.5558 53.9994 40.0641 53.7885 40.4391 53.4135Z" fill="#212C4C"/>
</svg>
