<svg width="64" height="64" viewBox="0 0 64 64" fill="none" xmlns="http://www.w3.org/2000/svg">
<path d="M22.1116 46.56L22.1116 46.5602C22.1525 47.353 22.4976 48.1003 23.0762 48.6476C23.6548 49.1949 24.4229 49.5003 25.2217 49.5H25.2218H38.7783H38.7785C39.5773 49.5003 40.3453 49.1949 40.9239 48.6476C41.5025 48.1003 41.8476 47.353 41.8885 46.5602L41.8885 46.56L43.4987 15.5524C43.5055 15.4169 43.4847 15.2815 43.4375 15.1542C43.3904 15.0272 43.318 14.9108 43.2244 14.8122C43.1303 14.714 43.0171 14.6356 42.8915 14.5819L43.0876 14.1235L42.8915 14.5819C42.7659 14.5282 42.6305 14.5003 42.4936 14.5H21.506C21.506 14.5 21.506 14.5 21.506 14.5C21.3692 14.5 21.2339 14.5277 21.1084 14.5814C20.9828 14.6351 20.8697 14.7137 20.7758 14.8121C20.6819 14.9106 20.6093 15.0269 20.5621 15.154C20.515 15.2811 20.4943 15.4163 20.5013 15.5515L22.1116 46.56ZM22.1116 46.56L20.5013 15.5515L22.1116 46.56ZM20.7547 15.2219L20.7547 15.2219C20.7926 15.1199 20.8509 15.0267 20.926 14.948L20.926 14.948C21.0011 14.8694 21.0913 14.8069 21.1912 14.7643C21.2909 14.7218 21.3983 14.6999 21.5066 14.7M20.7547 15.2219L42.4939 14.7H21.5066M20.7547 15.2219C20.7168 15.324 20.7002 15.4327 20.7058 15.5415L22.3161 46.5497M20.7547 15.2219L25.2218 49.3M21.5066 14.7C21.5068 14.7 21.5069 14.7 21.507 14.7L21.5064 15.2V14.7H21.5066ZM25.2218 49.3C24.4767 49.3002 23.7596 49.0154 23.2188 48.5038C22.6778 47.9922 22.3544 47.2927 22.3161 46.5497M25.2218 49.3C25.2219 49.3 25.2219 49.3 25.222 49.3M25.2218 49.3H25.222M22.3161 46.5497L22.8155 46.524L22.3161 46.5497ZM25.222 49.3H38.7781H25.222ZM40.6853 46.498L40.6853 46.4982C40.6603 46.9839 40.4489 47.4418 40.0942 47.7773C39.7394 48.1129 39.2685 48.3002 38.7785 48.3H38.7783H25.2218H25.2217C24.7317 48.3002 24.2607 48.1129 23.9059 47.7773C23.5512 47.4418 23.3398 46.9839 23.3148 46.4982L23.3148 46.498L21.7154 15.7H42.2851L40.6853 46.498ZM40.7814 48.5038C41.3223 47.9922 41.6457 47.2927 41.684 46.5497L38.7783 49.3C39.5234 49.3002 40.2405 49.0154 40.7814 48.5038Z" fill="white" stroke="black"/>
<path d="M41 23.0421C41 23.0421 37.538 24.0246 32 24.0195C26.4602 24.0143 23 23 23 23L23.7946 36.2595C23.9364 38.3596 24.8613 40.327 26.3825 41.7639C27.9037 43.2008 29.9077 44 31.9893 44C34.0709 44 36.0749 43.2008 37.5961 41.7639C39.1173 40.327 40.0422 38.3596 40.1839 36.2595L41 23.0421Z" fill="#E53D00"/>
<ellipse cx="32" cy="22" rx="9" ry="1" fill="#E53D00"/>
</svg>
