<svg width="64" height="64" viewBox="0 0 64 64" fill="none" xmlns="http://www.w3.org/2000/svg">
<path d="M50.1234 24.5708L47.9731 8.80208C47.9035 8.30354 47.6565 7.84683 47.2773 7.51579C46.8981 7.18475 46.4122 7.00162 45.9088 7H18.0911C17.5877 7.00162 17.1019 7.18475 16.7227 7.51579C16.3435 7.84683 16.0964 8.30354 16.0268 8.80208L13.8765 24.5708C13.2389 29.251 14.436 33.9964 17.2173 37.8141C19.9986 41.6319 24.1486 44.226 28.7989 45.0537C28.994 45.0863 29.1713 45.1867 29.2996 45.3373C29.4279 45.4878 29.4988 45.6789 29.5 45.8766V50.7933C29.4991 50.9937 29.4264 51.1871 29.2951 51.3385C29.1639 51.4898 28.9827 51.5891 28.7844 51.6183L21.4057 52.6724C20.8989 52.7402 20.4317 52.9825 20.0842 53.3576C19.7368 53.7327 19.531 54.2172 19.5023 54.7277C19.4876 55.0213 19.5332 55.3149 19.6362 55.5903C19.7393 55.8656 19.8975 56.117 20.1013 56.3289C20.3046 56.5406 20.5485 56.7092 20.8184 56.8245C21.0883 56.9398 21.3787 56.9995 21.6721 57H42.2891C42.8356 57.0016 43.3633 56.8005 43.7701 56.4355C44.1769 56.0705 44.4338 55.5675 44.4912 55.024C44.5413 54.4696 44.3768 53.917 44.0315 53.4803C43.6862 53.0437 43.1864 52.7561 42.6354 52.6771L35.2157 51.6172C35.0175 51.5879 34.8363 51.4886 34.7051 51.3373C34.5738 51.1859 34.5011 50.9925 34.5003 50.7922V45.8755C34.5014 45.6777 34.5724 45.4867 34.7006 45.3361C34.8289 45.1856 35.0062 45.0851 35.2013 45.0526C39.8513 44.2248 44.0011 41.6308 46.7823 37.8133C49.5635 33.9959 50.7607 29.2508 50.1234 24.5708ZM45.3793 36.9093C42.8586 40.3447 39.109 42.6744 34.9124 43.4124C34.3311 43.5123 33.8038 43.8143 33.4234 44.265C33.043 44.7158 32.834 45.2863 32.8333 45.8761V50.7928C32.8358 51.3939 33.0538 51.9741 33.4476 52.4282C33.8414 52.8823 34.385 53.1801 34.9796 53.2676L42.3993 54.3276C42.5278 54.3463 42.6442 54.4136 42.7246 54.5156C42.8049 54.6176 42.843 54.7466 42.8311 54.8759C42.8132 55.0056 42.748 55.1241 42.648 55.2086C42.548 55.2931 42.4203 55.3376 42.2894 55.3335H21.6721C21.6037 55.3335 21.5359 55.3196 21.473 55.2926C21.4101 55.2656 21.3533 55.2261 21.306 55.1765C21.2588 55.127 21.2222 55.0683 21.1983 55.0041C21.1744 54.94 21.1638 54.8716 21.1671 54.8032C21.1793 54.6808 21.233 54.5663 21.3193 54.4787C21.4056 54.3911 21.5193 54.3357 21.6415 54.3218L29.0202 53.2676C29.6149 53.1801 30.1585 52.8823 30.5524 52.4281C30.9462 51.974 31.1642 51.3937 31.1666 50.7926V45.8759C31.1659 45.2861 30.9569 44.7155 30.5765 44.2648C30.1961 43.814 29.6688 43.5121 29.0876 43.4122C24.8617 42.6589 21.0908 40.3009 18.5636 36.8312C16.0364 33.3616 14.9486 29.0492 15.5279 24.796L17.6783 9.02698C17.6922 8.92728 17.7416 8.83595 17.8174 8.76975C17.8933 8.70356 17.9904 8.66696 18.0911 8.66667H45.9088C46.0095 8.66696 46.1067 8.70358 46.1825 8.76979C46.2583 8.83601 46.3077 8.92737 46.3216 9.02708L48.472 24.796C49.0677 29.083 47.9572 33.4325 45.3793 36.9093Z" fill="#212C4C"/>
<path d="M47 22.7109C47 22.7109 37.8795 24 32 24C26.1205 24 17 22.7109 17 22.7109V25.3478C17 25.3478 17.1702 29.5549 17.7982 31.5627C18.4261 33.5706 19.4727 35.4225 20.8689 36.9963C22.265 38.57 23.979 39.8298 25.8977 40.6926C27.8165 41.5554 29.8963 42.0015 32.0001 42.0015C34.1039 42.0015 36.1838 41.5554 38.1025 40.6926C40.0213 39.8298 41.7353 38.57 43.1314 36.9963C44.5276 35.4225 45.5741 33.5706 46.2021 31.5627C46.8301 29.5549 47 25.3478 47 25.3478V22.7109Z" fill="#96020C"/>
<ellipse cx="32" cy="21.5" rx="15" ry="1.5" fill="#96020C"/>
</svg>
