<svg width="64" height="64" viewBox="0 0 64 64" fill="none" xmlns="http://www.w3.org/2000/svg">
<path d="M30.1213 15.7969C19.9977 15.7969 19.9977 16.8494 20.0001 17.4143L23.0081 50.0095C23.0081 51.2177 26.3318 52.2771 30.1212 52.2771C33.8581 52.2771 37.1425 51.2467 37.2325 50.0596L40.245 17.3556C40.2451 16.8494 40.2451 15.7969 30.1213 15.7969ZM30.1213 17.0769C34.7694 17.0769 37.9981 17.3987 38.9332 17.6712L38.9314 17.6904C37.8346 17.9704 34.7041 18.2734 30.1213 18.2734C25.5351 18.2734 22.4029 17.9701 21.3085 17.6898L21.3068 17.6716C22.2388 17.3994 25.4688 17.0769 30.1213 17.0769ZM35.9709 49.8065C35.529 50.1678 33.5581 50.9969 30.1213 50.9969C26.6845 50.9969 24.7133 50.1675 24.2717 49.8065L21.3669 18.3221C23.4021 18.8439 27.8852 18.9137 30.1213 18.9137C32.3564 18.9137 36.8367 18.8439 38.8731 18.3228L35.9709 49.8065Z" fill="#212C4C"/>
<path d="M30.1212 35.0078C26.8983 35.0078 24.2856 35.3093 24.2856 35.6812L24.3027 35.8323C24.7031 36.0634 26.8527 36.3648 30.1212 36.3648C33.3896 36.3648 35.5396 36.0634 35.9398 35.8322L35.9568 35.6812C35.9568 35.3093 33.3441 35.0078 30.1212 35.0078Z" fill="#EABD06"/>
<path d="M24.3794 36.5078L24.8038 40.2724C24.8498 40.7022 25.0062 41.1127 25.2578 41.4641C25.5094 41.8156 25.8476 42.0959 26.2396 42.2779C27.47 42.789 28.7892 43.052 30.1216 43.052C31.4539 43.052 32.7731 42.789 34.0035 42.2779C34.3955 42.0959 34.7337 41.8156 34.9853 41.4642C35.2369 41.1127 35.3933 40.7022 35.4392 40.2725L35.8635 36.5078C34.5999 36.9259 31.9113 37.0026 30.1213 37.0026C28.3313 37.0026 25.6431 36.9258 24.3794 36.5078Z" fill="#EABD06"/>
<path d="M38.771 19.1627L41.486 20.9375C41.8447 20.1891 42.008 19.3643 41.9613 18.5379L38.771 19.1627Z" fill="#CBDC01"/>
<path d="M32.8944 12.123L32.844 12.123C32.2833 12.4533 31.7675 12.8507 31.3082 13.3055C31.0002 13.6104 31.0781 14.1122 31.4403 14.3502C31.7453 14.5506 32.1485 14.4915 32.4144 14.2416C33.3957 13.3194 34.6504 12.7199 36.0042 12.5365C37.5708 12.3243 39.1621 12.6841 40.4783 13.548C41.7946 14.4119 42.7451 15.7203 43.1509 17.227C43.4997 18.5223 43.4252 19.8873 42.9474 21.1304C42.8136 21.4783 42.9169 21.8831 43.2284 22.0879C43.5855 22.3226 44.0701 22.2034 44.2361 21.8096C44.7935 20.4876 44.9734 19.0346 44.7482 17.61C44.4816 15.9238 43.662 14.3702 42.4149 13.1867C41.1678 12.0032 39.5618 11.255 37.8424 11.0565C36.1231 10.858 34.3851 11.2201 32.8944 12.0875L32.8944 12.123Z" fill="#A0B121"/>
<path d="M33.1753 15.4986L35.8759 17.2734L35.2349 14.1356C34.4427 14.4112 33.7341 14.8801 33.1753 15.4986Z" fill="#CBDC01"/>
<path d="M36.6538 13.8543L37.2947 16.9922L39.0951 14.33C38.3354 13.9701 37.4953 13.8065 36.6538 13.8543Z" fill="#CBDC01"/>
<path d="M40.2828 15.1112L38.4824 17.7734L41.6583 17.1416C41.3782 16.3626 40.9055 15.6647 40.2828 15.1112Z" fill="#CBDC01"/>
</svg>
