<svg width="64" height="64" viewBox="0 0 64 64" fill="none" xmlns="http://www.w3.org/2000/svg">
<path d="M40.7614 23.0659L37.7438 19.6171C36.6195 18.3325 35.9998 16.6834 36 14.9762V7C36.2652 7 36.5196 6.89464 36.7071 6.70711C36.8946 6.51957 37 6.26522 37 6V2C37 1.73478 36.8946 1.48043 36.7071 1.29289C36.5196 1.10536 36.2652 1 36 1H28C27.7348 1 27.4804 1.10536 27.2929 1.29289C27.1054 1.48043 27 1.73478 27 2V6C27 6.26522 27.1054 6.51957 27.2929 6.70711C27.4804 6.89464 27.7348 7 28 7V14.9762C28.0002 16.6834 27.3805 18.3325 26.2563 19.6171L23.2386 23.0659C21.7952 24.715 20.9997 26.8322 21 29.0238V59C21.0012 60.0605 21.423 61.0772 22.1729 61.8271C22.9228 62.577 23.9395 62.9988 25 63H39C40.0605 62.9988 41.0772 62.577 41.8271 61.8271C42.577 61.0772 42.9988 60.0605 43 59V29.0238C43.0003 26.8322 42.2048 24.715 40.7614 23.0659ZM41 59C40.9994 59.5302 40.7885 60.0386 40.4135 60.4135C40.0386 60.7885 39.5302 60.9994 39 61H25C24.4698 60.9994 23.9614 60.7885 23.5865 60.4135C23.2115 60.0386 23.0006 59.5302 23 59V29.0238C22.9998 27.3166 23.6195 25.6675 24.7437 24.3829L27.7614 20.9341C29.1993 19.2911 29.9945 17.1834 30 15H34C34.0055 17.1834 34.8007 19.2911 36.2386 20.9341L39.2562 24.3829C40.3805 25.6675 41.0002 27.3166 41 29.0238V59Z" fill="#212C4C"/>
<path d="M40.4135 60.4135C40.7885 60.0386 40.9994 59.5302 41 59V29.0238C41.0002 27.3166 40.3805 25.6675 39.2562 24.3829L36.2386 20.9341C34.8007 19.2911 34.0055 17.1834 34 15H30C29.9945 17.1834 29.1993 19.2911 27.7614 20.9341L24.7437 24.3829C23.6195 25.6675 22.9998 27.3166 23 29.0238V59C23.0006 59.5302 23.2115 60.0386 23.5865 60.4135C23.9614 60.7885 24.4698 60.9994 25 61H39C39.5302 60.9994 40.0386 60.7885 40.4135 60.4135Z" fill="#E4E9ED"/>
<path d="M37 29H27C26.4698 29.0006 25.9614 29.2115 25.5865 29.5865C25.2115 29.9614 25.0006 30.4698 25 31V53C25.0006 53.5302 25.2115 54.0386 25.5865 54.4135C25.9614 54.7885 26.4698 54.9994 27 55H37C37.5302 54.9994 38.0386 54.7885 38.4135 54.4135C38.7885 54.0386 38.9994 53.5302 39 53V31C38.9994 30.4698 38.7885 29.9614 38.4135 29.5865C38.0386 29.2115 37.5302 29.0006 37 29ZM27 31H37V33H27V31ZM37 53H27V51H37L37.0009 53H37Z" fill="#212C4C"/>
</svg>
