<svg width="64" height="64" viewBox="0 0 64 64" fill="none" xmlns="http://www.w3.org/2000/svg">
<path d="M36.1228 44.1741C37.3961 43.1678 38.2754 41.746 38.6071 40.1572L43.8028 12.4016C43.8097 12.3628 43.8133 12.3235 43.8134 12.2841C43.8134 11.8135 43.8134 10.5625 32.0003 10.5625C20.1872 10.5625 20.1865 11.8138 20.1865 12.2841C20.1866 12.3235 20.1902 12.3628 20.1971 12.4016L25.3934 40.1584C25.7249 41.7466 26.604 43.1678 27.8771 44.1734C28.0953 44.3518 28.2636 44.5835 28.3657 44.8461C28.4677 45.1088 28.5001 45.3934 28.4595 45.6722C28.4439 46.2621 28.4226 47.0703 25.7989 48.1459C23.7532 48.9843 22.4005 49.4628 21.7764 49.6734C21.5024 49.766 21.2644 49.9423 21.0961 50.1776C20.9278 50.4128 20.8376 50.6949 20.8384 50.9841V51.4954C20.8384 52.0479 21.1121 52.5416 24.4746 52.9941C26.971 53.3043 29.4847 53.4539 32.0002 53.4421C34.5156 53.4539 37.029 53.3043 39.5252 52.9941C42.8877 52.5416 43.1614 52.0479 43.1614 51.4954V50.9841C43.1622 50.695 43.0722 50.4129 42.9039 50.1777C42.7357 49.9425 42.4979 49.7661 42.224 49.6735C41.4577 49.4147 40.1376 48.9397 38.2014 48.1453C35.5771 47.0698 35.5559 46.2622 35.5396 45.6373C35.5026 45.3638 35.5368 45.0854 35.639 44.8291C35.7412 44.5728 35.9078 44.3472 36.1228 44.1741ZM32.0003 11.8422C37.5915 11.8422 41.4178 12.2341 42.4703 12.5635L42.4516 12.6629C41.1984 12.9997 37.4939 13.366 32.0004 13.366C26.507 13.366 22.8016 12.9997 21.5484 12.6629L21.5296 12.5635C22.5822 12.2341 26.4091 11.8422 32.0003 11.8422ZM35.3027 43.191C34.9372 43.4936 34.6513 43.8809 34.4697 44.3193C34.2881 44.7577 34.2164 45.2338 34.2608 45.7062C34.289 46.7862 34.5815 48.0456 37.7164 49.3299C39.6834 50.1368 41.0308 50.6218 41.8152 50.8868C41.8352 50.8938 41.8525 50.9071 41.8644 50.9246C41.8763 50.9422 41.8823 50.9631 41.8814 50.9843V51.2106C40.9765 51.5812 37.2384 52.1624 32.0002 52.1624C26.7621 52.1624 23.0233 51.5812 22.1186 51.2106V50.9843C22.1179 50.963 22.124 50.942 22.1361 50.9244C22.1481 50.9067 22.1654 50.8934 22.1855 50.8862C22.9655 50.623 24.3099 50.1393 26.2842 49.3299C29.4186 48.0456 29.7111 46.7862 29.7402 45.6718C29.7808 45.2047 29.707 44.7347 29.5252 44.3025C29.3435 43.8703 29.0592 43.4889 28.697 43.1912C27.6538 42.3747 26.9299 41.2182 26.6514 39.9231L21.6695 13.3105C24.1499 13.9446 29.9091 14.006 32.0003 14.006C34.0915 14.006 39.8501 13.9446 42.3305 13.3105L37.3484 39.9217C37.0704 41.2174 36.3464 42.3744 35.3027 43.191Z" fill="#212C4C"/>
<path d="M39.1222 23.6108L39.1594 23.412C39.1594 23.0291 35.954 22.7188 31.9999 22.7188C28.0458 22.7188 24.8403 23.0291 24.8403 23.412L24.8776 23.6111C25.5379 23.8512 28.1249 24.1403 31.9996 24.1403C35.8756 24.1403 38.4629 23.8512 39.1222 23.6108Z" fill="#E4E9ED"/>
<path d="M38.9975 24.2812C37.5818 24.684 34.6112 24.7855 31.9995 24.7855C29.3877 24.7855 26.4179 24.6841 25.002 24.2814L26.5014 32.291C26.7416 33.5737 27.4227 34.7321 28.4268 35.5656C29.4309 36.3992 30.6948 36.8554 31.9998 36.8554C33.3049 36.8554 34.5688 36.3992 35.5729 35.5656C36.577 34.7321 37.2581 33.5737 37.4983 32.291L38.9975 24.2812Z" fill="#E4E9ED"/>
</svg>
