<svg width="64" height="64" viewBox="0 0 64 64" fill="none" xmlns="http://www.w3.org/2000/svg">
<path d="M42.7725 13.9091C39.8916 13.6304 36.0656 13.4766 32 13.4766C27.9344 13.4766 24.1085 13.6302 21.2276 13.9091C16.5823 14.3591 16.2128 14.9104 16.2153 15.6385L18.786 45.3879C18.8423 45.9691 19.0627 46.5224 19.4214 46.9833C19.78 47.4441 20.2623 47.7936 20.812 47.9909L25.295 49.6229C25.9027 49.8442 26.5445 49.9571 27.1913 49.9567H36.8088C37.4557 49.9571 38.0976 49.8441 38.7054 49.6229L43.1879 47.9909C43.7378 47.7935 44.2202 47.4439 44.579 46.9828C44.9377 46.5217 45.158 45.9681 45.2141 45.3866L47.7869 15.5834C47.7872 14.9104 47.4176 14.3591 42.7725 13.9091ZM45.732 24.5271C45.3214 24.065 44.7914 23.725 44.2002 23.5446C43.609 23.3643 42.9794 23.3504 42.3808 23.5047C41.3806 23.7358 40.4391 24.1718 39.6159 24.7852C38.7927 25.3986 38.1057 26.176 37.5982 27.0684C36.8996 26.2837 36.0343 25.6651 35.0656 25.2582C34.0969 24.8512 33.0495 24.6662 32 24.7166C30.9506 24.6662 29.9032 24.8512 28.9345 25.2582C27.9658 25.6651 27.1005 26.2837 26.4019 27.0684C25.8945 26.1761 25.2075 25.3987 24.3844 24.7853C23.5613 24.1719 22.6199 23.7359 21.6198 23.5047C21.0207 23.3507 20.3908 23.3648 19.7992 23.5455C19.2076 23.7262 18.6774 24.0666 18.2667 24.5291L17.5602 16.3608C18.7744 16.6576 20.0116 16.8511 21.2585 16.9391C24.1288 17.2172 27.9435 17.3703 32 17.3703C36.0566 17.3703 39.8713 17.2172 42.7416 16.9391C43.9877 16.851 45.224 16.6578 46.4376 16.3615L45.732 24.5271ZM32 14.7566C39.6668 14.7566 44.8276 15.2927 46.2781 15.7509C44.6293 16.2205 39.6043 16.7301 32 16.7301C24.3958 16.7301 19.3712 16.2204 17.7222 15.7509C19.1731 15.2924 24.3341 14.7566 32 14.7566ZM21.2497 46.7886C20.9287 46.6749 20.6466 46.4725 20.4362 46.2048C20.2258 45.9371 20.0956 45.6152 20.061 45.2764L18.3443 25.427C18.6606 24.9077 19.1335 24.5021 19.6949 24.2685C20.2564 24.0349 20.8774 23.9854 21.4688 24.1272C22.4489 24.3569 23.3661 24.8008 24.1544 25.4269C24.9428 26.0531 25.5827 26.8459 26.0284 27.7486L26.0891 48.5157C25.9704 48.4837 25.849 48.4625 25.7328 48.4203L21.2497 46.7886ZM27.1913 48.6766C27.0367 48.6716 26.8826 48.6582 26.7295 48.6365L26.6685 27.7753C26.9353 27.3747 28.4554 25.3566 32 25.3566C35.5447 25.3566 37.0648 27.3747 37.3316 27.7753L37.2706 48.6364C37.1175 48.6581 36.9633 48.6715 36.8088 48.6765L27.1913 48.6766ZM43.9391 45.2753C43.9046 45.6143 43.7745 45.9364 43.564 46.2043C43.3535 46.4722 43.0712 46.6748 42.7501 46.7884L38.2676 48.4204C38.1513 48.4627 38.0299 48.484 37.911 48.5159L37.9717 27.7488C38.4174 26.846 39.0574 26.0531 39.8458 25.427C40.6342 24.8009 41.5514 24.357 42.5316 24.1273C43.1225 23.9858 43.7431 24.0351 44.3041 24.2684C44.8652 24.5016 45.3379 24.9067 45.6543 25.4254L43.9391 45.2753Z" fill="#212C4C"/>
<path d="M27.6357 30.9803L27.6421 33.1617C28.9522 33.2115 30.4032 33.2417 31.9998 33.2417C33.5965 33.2417 35.0475 33.2115 36.3575 33.1617L36.3639 30.9803C35.0128 30.9281 33.5429 30.8984 31.9998 30.8984C30.4566 30.8984 28.9868 30.9281 27.6357 30.9803Z" fill="#E53D00"/>
<path d="M38.9237 31.1172L38.9185 33.028C40.5559 32.9733 42.1835 32.7519 43.7761 32.3674C43.7853 32.259 43.7947 32.1513 43.804 32.0415C43.8034 31.6611 41.8762 31.325 38.9237 31.1172Z" fill="#E53D00"/>
<path d="M25.0765 31.1172C22.1241 31.325 20.1968 31.6612 20.1968 32.0415C20.2061 32.1513 20.2155 32.2591 20.2247 32.3674C21.8173 32.7519 23.4449 32.9733 25.0823 33.028L25.0765 31.1172Z" fill="#E53D00"/>
<path d="M27.644 33.8047L27.6748 44.3184C29.1092 44.4994 30.5541 44.5844 31.9999 44.5731C33.4456 44.5844 34.8905 44.4994 36.3249 44.3184L36.3557 33.8047C34.9793 33.8568 33.5125 33.8853 31.9999 33.8853C30.4872 33.8853 29.0204 33.8568 27.644 33.8047Z" fill="#E53D00"/>
<path d="M38.9161 33.67L38.8862 43.7729C42.722 42.5819 42.9689 40.2743 43.2115 38.3707C43.3118 37.5848 43.5001 35.5432 43.7164 33.0469C42.7566 33.2796 41.7798 33.4356 40.7952 33.5134C40.2136 33.5723 39.5838 33.6245 38.9161 33.67Z" fill="#E53D00"/>
<path d="M23.2044 33.5134C22.2198 33.4356 21.243 33.2796 20.2832 33.0469C20.4996 35.5432 20.6879 37.5848 20.7881 38.3707C21.0308 40.2743 21.2776 42.5819 25.1134 43.7729L25.0838 33.67C24.4161 33.6245 23.7863 33.5723 23.2044 33.5134Z" fill="#E53D00"/>
</svg>
