<svg width="64" height="64" viewBox="0 0 64 64" fill="none" xmlns="http://www.w3.org/2000/svg">
<path d="M31.4241 58.1001C28.9729 58.1001 25.2353 57.9657 23.9169 57.2041C23.6684 57.0787 23.4475 56.9048 23.2672 56.6926C23.087 56.4805 22.951 56.2344 22.8673 55.9689C22.6689 55.2393 20.1665 18.3753 20.1665 18.1001C20.1665 17.2937 20.3457 13.1913 20.4673 10.4713C20.5185 9.38974 20.5505 8.55134 20.5633 8.30814C20.5633 7.79134 20.8786 7.53502 21.6912 7.07949C21.7368 7.05391 21.7866 7.03558 21.8379 7.02518C28.5237 5.66813 35.4529 5.663 42.1376 7.02529C42.1885 7.03566 42.2377 7.05382 42.283 7.07921C43.0966 7.53491 43.4182 7.79123 43.4369 8.30814C43.4369 8.55774 43.4817 9.38974 43.5329 10.4713C43.6545 13.1913 43.8337 17.2937 43.8337 18.1001C43.8337 18.3753 41.3313 55.2201 41.1329 55.9689C41.0492 56.2344 40.9132 56.4805 40.733 56.6926C40.5527 56.9048 40.3318 57.0787 40.0833 57.2041C38.6561 58.0297 34.4065 58.1193 31.9937 58.1001H31.4241ZM24.1153 55.6809C24.1153 55.6809 24.1665 55.8537 24.5569 56.0841C25.3825 56.5577 28.2305 56.8393 31.9937 56.8073C35.7569 56.7753 38.6177 56.5577 39.4433 56.0841C39.8337 55.8537 39.8785 55.6745 39.8977 55.6169C40.0321 54.6121 42.5537 19.1369 42.5537 18.0873C42.5537 17.3065 42.3681 13.0569 42.2529 10.5161C42.2392 10.1842 42.2262 9.87612 42.2144 9.60094C42.2041 9.36045 42.1949 9.14509 42.1871 8.96094C42.1747 8.6651 42.166 8.44978 42.1633 8.34014C42.1633 8.26334 42.1633 8.19934 42.1633 8.14814C35.4515 6.87937 28.5615 6.87937 21.8497 8.14814C21.8497 8.19934 21.8497 8.26334 21.8497 8.34014C21.8497 8.44978 21.8415 8.6651 21.8286 8.96094C21.8205 9.14509 21.8107 9.36045 21.7998 9.60094C21.7874 9.87612 21.7738 10.1842 21.7601 10.5161C21.6449 13.0761 21.4593 17.3065 21.4593 18.0873C21.4593 19.1305 23.9809 54.6121 24.1281 55.6809H24.1153Z" fill="#212C4C"/>
<path d="M42.1871 8.96094C35.4602 10.2298 28.5554 10.2298 21.8286 8.96094C21.8205 9.14509 21.8107 9.36045 21.7998 9.60094C28.5451 10.8696 35.4692 10.8698 42.2144 9.60094C42.2041 9.36045 42.1949 9.14509 42.1871 8.96094Z" fill="#212C4C"/>
<path d="M40.9144 14C40.9291 13.9135 40.946 13.8262 40.96 13.7402C40.96 13.2192 36.9485 12.7969 32 12.7969C27.0516 12.7969 23.04 13.2192 23.04 13.7402C23.054 13.8262 23.0709 13.9135 23.0857 13.9998C23.9595 14.3303 27.1642 14.7169 32 14.7169C36.8359 14.7169 40.04 14.3305 40.9144 14Z" fill="#FFA300"/>
<path d="M40.96 14.7189C38.8708 15.2742 34.0619 15.3479 31.6803 15.3479C29.2988 15.3479 25.1289 15.2742 23.04 14.7188V17.9187L25.6 53.7588C26.624 55.0387 37.12 55.0387 38.4 53.7588L40.96 17.9187V14.7189Z" fill="#FFA300"/>
</svg>
