<svg width="64" height="64" viewBox="0 0 64 64" fill="none" xmlns="http://www.w3.org/2000/svg">
<path d="M46.5727 11.6249L46.5719 11.6234L45.433 9.72H18.567L17.4281 11.6234L17.4273 11.6249C16.494 13.1789 16.0006 14.9574 16 16.7701C16 16.7702 16 16.7703 16 16.7703V50.2297C16 50.2298 16 50.2299 16 50.23C16.0006 52.0427 16.494 53.8212 17.4273 55.3751L17.4278 55.376L18.9978 57.996L19.0002 58L44.9998 58L45.0022 57.996L46.5722 55.376L46.5727 55.3751C47.506 53.8212 47.9994 52.0427 48 50.23L46.5727 11.6249ZM46.5727 11.6249C47.506 13.1788 47.9994 14.9573 48 16.77M46.5727 11.6249L48 16.77M48 16.77C48 16.7701 48 16.7702 48 16.7703M48 16.77V16.7703M48 16.7703V50.2297V16.7703ZM45 7.72H19L19 6L45 6V7.72Z" fill="#E7E7E7" stroke="#212C4C" stroke-width="2"/>
<path d="M47 44H17V22H47V44Z" fill="#212C4C"/>
<path d="M32 41C33.5823 41 35.129 40.5308 36.4446 39.6518C37.7602 38.7727 38.7855 37.5233 39.391 36.0615C39.9965 34.5997 40.155 32.9911 39.8463 31.4393C39.5376 29.8874 38.7757 28.462 37.6569 27.3431C36.538 26.2243 35.1126 25.4624 33.5607 25.1537C32.0089 24.845 30.4003 25.0035 28.9385 25.609C27.4767 26.2145 26.2273 27.2399 25.3482 28.5554C24.4692 29.871 24 31.4178 24 33C24 35.1217 24.8429 37.1566 26.3431 38.6569C27.8434 40.1571 29.8783 41 32 41Z" fill="#E91F25"/>
</svg>
