<svg width="64" height="64" viewBox="0 0 64 64" fill="none" xmlns="http://www.w3.org/2000/svg">
<path d="M33.9776 58.2891C26.464 58.2891 21.536 57.7003 19.7376 56.5867C19.5023 56.4316 19.3067 56.2233 19.1666 55.9788C19.0265 55.7342 18.9459 55.4601 18.9312 55.1786C18.8482 54.441 19.0598 53.7003 19.52 53.1179C20.416 52.2667 22.8928 51.7354 25.3504 51.2618L26.0544 51.1274C26.5344 51.025 28.096 49.5274 28.3136 47.3258C28.4072 46.3535 28.2208 45.3748 27.7763 44.505C27.3317 43.6352 26.6477 42.9107 25.8048 42.417C25.1648 42.0394 24.3968 41.6618 23.584 41.2586C20.8338 40.0401 18.3122 38.3605 16.128 36.2922C13.6064 33.8026 12.4608 28.9002 13.2736 24.0938C13.952 20.1002 16.2432 14.4938 17.7536 10.769C18.2784 9.48905 18.8224 8.15785 18.912 7.77385C18.8252 7.44692 18.8129 7.10467 18.876 6.77236C18.9392 6.44005 19.0761 6.12616 19.2768 5.85385C19.4264 5.65133 19.6185 5.48397 19.8396 5.36347C20.0607 5.24297 20.3055 5.17224 20.5568 5.15625H43.4048C43.6561 5.17224 43.9009 5.24297 44.122 5.36347C44.3431 5.48397 44.5352 5.65133 44.6848 5.85385C44.8855 6.12616 45.0224 6.44005 45.0856 6.77236C45.1487 7.10467 45.1364 7.44692 45.0496 7.77385C45.1392 8.15785 45.6896 9.48265 46.208 10.769C47.7248 14.481 50.048 20.1002 50.688 24.0938C51.5072 28.9002 50.3616 33.8026 47.84 36.2922C45.6534 38.3491 43.1319 40.0178 40.384 41.2266C39.5712 41.6298 38.8032 42.0075 38.1696 42.3851C37.3256 42.8779 36.6402 43.602 36.1945 44.4718C35.7488 45.3417 35.5614 46.3209 35.6544 47.2938C35.872 49.4954 37.4336 50.993 37.9136 51.0954L38.6176 51.2299C41.0752 51.7034 43.552 52.2346 44.448 53.0858C44.6796 53.3784 44.8509 53.7141 44.952 54.0733C45.0531 54.4325 45.0819 54.8082 45.0368 55.1786C45.0219 55.4593 44.9418 55.7327 44.8029 55.977C44.6641 56.2214 44.4703 56.4301 44.2368 56.5867C42.9312 57.4123 39.5328 58.2891 33.9776 58.2891ZM20.576 6.44905C20.4501 6.4884 20.343 6.57268 20.2752 6.68585C20.1995 6.81513 20.1523 6.95912 20.1368 7.10815C20.1214 7.25717 20.138 7.40778 20.1856 7.54985C20.2168 7.66635 20.2277 7.77812 20.1856 7.97946C20.0981 8.39751 19.782 9.20172 18.944 11.2362C17.5424 14.7178 15.1936 20.4778 14.5408 24.3178C13.8048 28.657 14.8288 33.2138 17.024 35.3898C19.1189 37.3462 21.5294 38.9344 24.1536 40.0874C24.9856 40.497 25.7792 40.8874 26.4576 41.297C27.5092 41.9146 28.3625 42.8198 28.9169 43.9061C29.4714 44.9923 29.7039 46.2143 29.5872 47.4282C29.3248 50.0779 27.4752 52.1194 26.3104 52.3563L25.6 52.4779C24.1472 52.7531 21.12 53.3354 20.416 54.001C20.2377 54.3363 20.1704 54.7195 20.224 55.0954C20.2282 55.1707 20.248 55.2443 20.2822 55.3115C20.3163 55.3787 20.3641 55.4381 20.4224 55.4858C21.152 55.9402 23.9488 56.9963 33.9904 56.9963C39.2832 56.9963 42.4768 56.1834 43.5904 55.4858C43.647 55.437 43.6931 55.3773 43.7261 55.3102C43.7591 55.2431 43.7782 55.1701 43.7824 55.0954C43.8368 54.7167 43.7672 54.3306 43.584 53.9947C42.88 53.3483 39.8656 52.7659 38.4 52.4779L37.6768 52.3371C36.512 52.1003 34.6624 50.0587 34.4 47.409C34.2833 46.1951 34.5158 44.9731 35.0703 43.8869C35.6247 42.8006 36.478 41.8954 37.5296 41.2778C38.208 40.8682 39.0016 40.4778 39.84 40.0682C42.4649 38.9185 44.8773 37.3348 46.976 35.3834C49.1776 33.2074 50.176 28.6507 49.4592 24.3114C48.8192 20.4714 46.4576 14.7114 45.056 11.249C44.218 9.19341 43.9009 8.39673 43.8144 7.98424C43.7741 7.79186 43.7839 7.68304 43.8144 7.56905C43.862 7.42698 43.8786 7.27637 43.8632 7.12735C43.8477 6.97832 43.8005 6.83433 43.7248 6.70505C43.6564 6.58978 43.5465 6.50506 43.4176 6.46825L20.576 6.44905Z" fill="#212C4C"/>
<path d="M43.8144 7.56905C36.1601 9.09301 26.5601 8.95781 20.1856 7.54985C20.2168 7.66635 20.2277 7.77812 20.1856 7.97946C24.3201 9.59781 39.6801 9.59781 43.8144 7.98424C43.7741 7.79186 43.7839 7.68304 43.8144 7.56905Z" fill="#212C4C"/>
<ellipse cx="32" cy="24.6391" rx="16" ry="1.6" fill="#96020C"/>
<path d="M42.4718 37.3557C43.3253 36.8244 44.125 36.2685 44.8673 35.6904C48 33.6314 48 27.5813 48 26.0002C44.3979 26.5527 36.1066 27.2629 32.0005 27.2629C27.8944 27.2629 19.6015 26.5527 16 26C16 27.5813 16 33.2497 19.1338 35.6904C19.876 36.2684 20.6758 36.8243 21.5294 37.3556C22.8104 38.1834 24.412 38.8493 26.2212 39.3062C28.0305 39.7632 30.0033 40 32.0005 40C33.9977 40 35.9706 39.7632 37.7798 39.3063C39.5891 38.8494 41.1908 38.1836 42.4718 37.3557Z" fill="#96020C"/>
</svg>
