<svg width="64" height="64" viewBox="0 0 64 64" fill="none" xmlns="http://www.w3.org/2000/svg">
<path d="M39.8193 57.5091C39.6524 57.4737 39.4105 57.4415 39.1153 57.404C37.9327 57.3138 36.7769 57.0063 35.7059 56.4969C35.0438 56.1164 34.4951 55.5664 34.1162 54.9034C33.7374 54.2405 33.542 53.4885 33.5503 52.725C33.5677 51.477 33.5903 50.0231 33.6143 48.5078C33.673 44.7597 33.7399 40.5119 33.7399 38.1828C33.7399 36.9647 35.1061 35.7794 36.8361 34.2788C39.8299 31.6819 43.9299 28.1254 43.9299 21.3941C43.9299 14.4565 41.3555 4.96007 41.0691 3.92506C41.0399 3.40186 40.538 2.5625 31.9999 2.5625C23.4618 2.5625 22.9605 3.40186 22.9311 3.925C22.6448 4.96 20.0698 14.4563 20.0698 21.3941C20.0698 28.1253 24.1698 31.6819 27.1642 34.2787C28.8942 35.7794 30.2604 36.9647 30.2604 38.1827C30.2604 40.5118 30.3273 44.7596 30.386 48.5078C30.4098 50.023 30.4323 51.4768 30.45 52.7249C30.4583 53.4885 30.2629 54.2405 29.884 54.9034C29.5051 55.5664 28.9564 56.1164 28.2943 56.4969C27.2232 57.0063 26.0674 57.3139 24.8849 57.4041C24.5899 57.4419 24.348 57.4738 24.1809 57.5091C23.4395 57.6379 22.7678 58.0255 22.2852 58.6029C22.0115 58.8905 21.8496 59.2666 21.829 59.6632C21.829 60.3038 22.3474 60.6957 25.179 61.0588C27.4427 61.3255 29.7206 61.4536 31.9999 61.4425C34.2791 61.4535 36.5569 61.3253 38.8205 61.0585C41.6524 60.6954 42.1705 60.3033 42.1705 59.6628C42.1502 59.2662 41.9886 58.89 41.7149 58.6022C41.232 58.0253 40.5605 57.638 39.8193 57.5091ZM39.7196 4.34317C37.1661 4.73581 34.5826 4.90062 31.9999 4.83565C29.4173 4.90062 26.8341 4.73581 24.2807 4.34317C26.8331 3.94127 29.4169 3.77368 31.9999 3.8425C34.583 3.77368 37.167 3.94127 39.7196 4.34317ZM31.9999 60.1625C27.5936 60.1625 24.3561 59.7288 23.2767 59.4128C23.5761 59.0636 23.9903 58.8327 24.4448 58.7615C24.5879 58.7313 24.7955 58.7059 25.0473 58.6734C26.3926 58.564 27.7058 58.2047 28.9193 57.6138C29.7866 57.1253 30.5056 56.4115 31.0004 55.5478C31.4952 54.6841 31.7472 53.7027 31.7299 52.7075C31.7124 51.4584 31.6899 50.004 31.6659 48.4875C31.6072 44.7444 31.5403 40.5019 31.5403 38.1828C31.5403 36.3806 29.9009 34.9585 28.0028 33.3119C25.0384 30.7409 21.3497 27.5413 21.3497 21.3941C21.3497 15.4426 23.3704 7.28 23.9993 4.88333C25.6061 5.38484 29.4639 5.47565 31.9993 5.47565C34.5347 5.47565 38.3929 5.38484 40 4.88333C40.629 7.28045 42.6496 15.4429 42.6496 21.3941C42.6496 27.5413 38.9609 30.7409 35.9971 33.3119C34.099 34.9585 32.4596 36.3806 32.4596 38.1828C32.4596 40.5019 32.3928 44.7444 32.334 48.4875C32.3103 50.0043 32.2877 51.4584 32.27 52.7075C32.2527 53.7027 32.5048 54.6841 32.9995 55.5478C33.4943 56.4115 34.2134 57.1253 35.0806 57.6138C36.2942 58.2047 37.6073 58.564 38.9526 58.6734C39.2045 58.7059 39.412 58.731 39.5551 58.7615C40.0096 58.8327 40.4238 59.0636 40.7233 59.4128C39.6449 59.7285 36.4067 60.1625 31.9999 60.1625Z" fill="#212C4C"/>
<path d="M40.8831 15.391C40.8722 15.3151 40.8639 15.2389 40.8525 15.163C40.8525 14.6806 36.8895 14.2891 31.9999 14.2891C27.1103 14.2891 23.1467 14.6803 23.1467 15.1628C23.1356 15.2385 23.1271 15.3145 23.1162 15.3903C23.864 15.6964 27.0793 16.0692 31.9998 16.0692C36.9184 16.0694 40.1331 15.6971 40.8831 15.391Z" fill="#C53449"/>
<path d="M39.9824 26.9944C40.9281 25.2701 41.4098 23.3297 41.3803 21.3633C41.3577 19.566 41.2184 17.772 40.9634 15.9928C39.2063 16.6306 34.3438 16.7116 31.9999 16.7116C29.6559 16.7116 24.7923 16.6305 23.036 15.9922C22.7812 17.7716 22.6421 19.5656 22.6194 21.363C22.59 23.3295 23.0717 25.27 24.0173 26.9944C24.8297 28.3915 25.9945 29.5509 27.3953 30.3567C28.7961 31.1626 30.3838 31.5867 31.9999 31.5867C33.616 31.5867 35.2037 31.1626 36.6045 30.3567C38.0053 29.5509 39.1701 28.3915 39.9824 26.9944Z" fill="#C53449"/>
</svg>
