<svg width="64" height="64" viewBox="0 0 64 64" fill="none" xmlns="http://www.w3.org/2000/svg">
<path d="M41.306 14.0479L38.3265 13.0548C37.6487 12.8295 37.059 12.3964 36.6414 11.8169C36.2237 11.2375 35.9993 10.5412 36 9.82688V9C36.2652 9 36.5196 8.89464 36.7071 8.70711C36.8946 8.51957 37 8.26522 37 8V2C37 1.73478 36.8946 1.48043 36.7071 1.29289C36.5196 1.10536 36.2652 1 36 1H28C27.7348 1 27.4804 1.10536 27.2929 1.29289C27.1054 1.48043 27 1.73478 27 2V8C27 8.26522 27.1054 8.51957 27.2929 8.70711C27.4804 8.89464 27.7348 9 28 9V9.82688C28.0007 10.5412 27.7763 11.2375 27.3586 11.8169C26.941 12.3964 26.3513 12.8295 25.6735 13.0548L22.694 14.0479C21.6178 14.4055 20.6816 15.0932 20.0185 16.0132C19.3554 16.9332 18.999 18.0388 19 19.1729V59.5C19.0011 60.4279 19.3701 61.3176 20.0263 61.9737C20.6824 62.6299 21.5721 62.9989 22.5 63H41.5C42.4279 62.9989 43.3176 62.6299 43.9737 61.9737C44.6298 61.3176 44.9989 60.4279 45 59.5V19.1731C45.001 18.039 44.6447 16.9334 43.9816 16.0133C43.3184 15.0933 42.3822 14.4055 41.306 14.0479ZM43 59.5C42.9996 59.8977 42.8414 60.279 42.5602 60.5602C42.279 60.8414 41.8977 60.9996 41.5 61H22.5C22.1023 60.9996 21.721 60.8414 21.4398 60.5602C21.1586 60.279 21.0004 59.8977 21 59.5V19.1731C20.9993 18.4588 21.2237 17.7625 21.6414 17.1831C22.059 16.6036 22.6487 16.1705 23.3265 15.9453L26.306 14.9521C27.3822 14.5945 28.3184 13.9068 28.9815 12.9868C29.6446 12.0668 30.001 10.9612 30 9.82712V9H34V9.82688C33.999 10.961 34.3554 12.0665 35.0185 12.9865C35.6816 13.9065 36.6178 14.5942 37.694 14.9519L40.6735 15.945C41.3514 16.1702 41.941 16.6034 42.3587 17.1829C42.7763 17.7624 43.0007 18.4588 43 19.1731V59.5Z" fill="#212C4C"/>
<path d="M43 59.5C42.9996 59.8977 42.8414 60.279 42.5602 60.5602C42.279 60.8414 41.8977 60.9996 41.5 61H22.5C22.1023 60.9996 21.721 60.8414 21.4398 60.5602C21.1586 60.279 21.0004 59.8977 21 59.5V19.1731C20.9993 18.4588 21.2237 17.7625 21.6414 17.1831C22.059 16.6036 22.6487 16.1705 23.3265 15.9453L26.306 14.9521C27.3822 14.5945 28.3184 13.9068 28.9815 12.9868C29.6446 12.0668 30.001 10.9612 30 9.82712V9H34V9.82688C33.999 10.961 34.3554 12.0665 35.0185 12.9865C35.6816 13.9065 36.6178 14.5942 37.694 14.9519L40.6735 15.945C41.3514 16.1702 41.941 16.6034 42.3587 17.1829C42.7763 17.7624 43.0007 18.4588 43 19.1731V59.5Z" fill="#00D7E5"/>
<path d="M41.306 14.0479L38.3265 13.0548C37.6487 12.8295 37.059 12.3964 36.6414 11.8169C36.2237 11.2375 35.9993 10.5412 36 9.82687V9C36.2652 9 36.5196 8.89464 36.7071 8.70711C36.8946 8.51957 37 8.26522 37 8V2C37 1.73478 36.8946 1.48043 36.7071 1.29289C36.5196 1.10536 36.2652 1 36 1H28C27.7348 1 27.4804 1.10536 27.2929 1.29289C27.1054 1.48043 27 1.73478 27 2V8C27 8.26522 27.1054 8.51957 27.2929 8.70711C27.4804 8.89464 27.7348 9 28 9V9.82687C28.0007 10.5412 27.7763 11.2375 27.3586 11.8169C26.941 12.3964 26.3513 12.8295 25.6735 13.0548L22.694 14.0479C21.6178 14.4055 20.6816 15.0932 20.0185 16.0132C19.3554 16.9332 18.999 18.0388 19 19.1729V59.5C19.0011 60.4279 19.3701 61.3176 20.0263 61.9737C20.6824 62.6299 21.5721 62.9989 22.5 63H41.5C42.4279 62.9989 43.3176 62.6299 43.9737 61.9737C44.6299 61.3176 44.9989 60.4279 45 59.5V19.1731C45.001 18.039 44.6447 16.9334 43.9816 16.0133C43.3184 15.0933 42.3823 14.4055 41.306 14.0479ZM43 59.5C42.9996 59.8977 42.8414 60.279 42.5602 60.5602C42.279 60.8414 41.8977 60.9996 41.5 61H22.5C22.1023 60.9996 21.721 60.8414 21.4398 60.5602C21.1586 60.279 21.0004 59.8977 21 59.5V19.1731C20.9993 18.4588 21.2237 17.7625 21.6414 17.1831C22.059 16.6036 22.6487 16.1705 23.3265 15.9452L26.306 14.9521C27.3822 14.5945 28.3184 13.9068 28.9815 12.9868C29.6446 12.0668 30.001 10.9612 30 9.82712V9H34V9.82687C33.999 10.961 34.3554 12.0665 35.0185 12.9865C35.6816 13.9065 36.6178 14.5942 37.694 14.9519L40.6735 15.945C41.3514 16.1702 41.941 16.6034 42.3587 17.1829C42.7763 17.7624 43.0007 18.4588 43 19.1731V59.5Z" fill="#212C4C"/>
<path d="M38.7882 23.4035C36.6422 22.4774 34.3333 22 32.0004 22C29.6674 22 27.3586 22.4774 25.2125 23.4035C24.8525 23.5592 24.5457 23.8186 24.3301 24.1495C24.1146 24.4803 23.9998 24.8679 24 25.2642V55.9756C24.0006 56.5123 24.2115 57.0268 24.5865 57.4064C24.9614 57.7859 25.4698 57.9994 26 58H38C38.5302 57.9994 39.0386 57.7859 39.4135 57.4064C39.7885 57.0268 39.9994 56.5123 40 55.9756V25.2642C40.0003 24.868 39.8856 24.4804 39.6702 24.1496C39.4548 23.8188 39.1481 23.5594 38.7882 23.4035ZM32.0008 37.7556C31.2096 37.7556 30.4363 37.5181 29.7785 37.0732C29.1207 36.6283 28.608 35.996 28.3052 35.2562C28.0025 34.5163 27.9233 33.7022 28.0776 32.9168C28.2319 32.1314 28.6129 31.41 29.1723 30.8437C29.7317 30.2775 30.4445 29.8919 31.2204 29.7356C31.9963 29.5794 32.8006 29.6596 33.5315 29.966C34.2624 30.2725 34.8871 30.7914 35.3266 31.4573C35.7662 32.1231 36.0008 32.9059 36.0008 33.7067C35.9996 34.7802 35.5777 35.8093 34.8279 36.5684C34.078 37.3274 33.0613 37.7544 32.0008 37.7556Z" fill="#212C4C"/>
</svg>
