<svg width="64" height="64" viewBox="0 0 64 64" fill="none" xmlns="http://www.w3.org/2000/svg">
<path d="M31.9998 3.51758C19.7173 3.51758 19.7173 4.49633 19.7173 5.09695L21.0135 58.2726L21.021 58.5482L21.2248 58.7326C21.4235 58.9113 23.416 60.4826 31.9998 60.4826C40.5848 60.4826 42.5773 58.9113 42.776 58.7326L42.9798 58.5482L44.2823 5.08133C44.2823 4.49633 44.2823 3.51758 31.9998 3.51758ZM42.3006 5.28508C40.9892 5.46664 38.1514 5.6782 31.9998 5.6782C25.8485 5.6782 23.0111 5.46656 21.7001 5.285C22.9153 5.07156 25.696 4.79758 31.9998 4.79758C38.3065 4.79758 41.0861 5.07148 42.3006 5.28508ZM31.9998 59.2026C25.391 59.2026 22.946 58.2426 22.2848 57.9007L22.1775 53.5C23.4903 54.088 26.2474 54.7576 31.9998 54.7576C37.7542 54.7576 40.5049 54.1161 41.8227 53.5219L41.716 57.9007C41.051 58.2426 38.5935 59.2026 31.9998 59.2026ZM41.8593 52.0174C41.6176 52.2275 39.8463 53.4776 31.9998 53.4776C23.9398 53.4776 22.2729 52.1386 22.1417 52.0306L21.0152 5.81555C23.002 6.22242 27.8706 6.3182 31.9998 6.3182C36.1291 6.3182 40.9976 6.22242 42.9844 5.81555L41.8593 52.0174Z" fill="#212C4C"/>
<path d="M32 20C22 20 22 18.2763 22 18.2763L23.0554 50.2163L23.0615 50.4389L23.2274 50.5878C23.3892 50.7321 25.0114 52.0009 32 52.0009C38.9896 52.0009 40.6118 50.7321 40.7737 50.5878L40.9395 50.4389L42 18.2637C42 18.2637 42 20 32 20Z" fill="#FFA300"/>
<ellipse cx="32" cy="17.5" rx="10" ry="1.5" fill="#FFA300"/>
</svg>
