<svg width="64" height="64" viewBox="0 0 64 64" fill="none" xmlns="http://www.w3.org/2000/svg">
<path d="M31.9998 3.51758C19.7173 3.51758 19.7173 4.49633 19.7173 5.09695C19.7173 5.09695 21.3923 21.2847 21.6451 31.6848C21.8975 42.0658 21.0135 58.2726 21.0135 58.2726L21.021 58.5482L21.2248 58.7326C21.4235 58.9113 23.416 60.4826 31.9998 60.4826C40.5848 60.4826 42.5773 58.9113 42.776 58.7326L42.9798 58.5482C42.9798 58.5482 42.0941 42.2526 42.3477 31.8148C42.6017 21.3579 44.2823 5.08133 44.2823 5.08133C44.2823 4.49633 44.2823 3.51758 31.9998 3.51758ZM42.3006 5.28508C40.9892 5.46664 38.1514 5.6782 31.9998 5.6782C25.8485 5.6782 23.0111 5.46656 21.7001 5.285C22.9153 5.07156 25.696 4.79758 31.9998 4.79758C38.3065 4.79758 41.0861 5.07148 42.3006 5.28508ZM31.9998 59.2026C25.391 59.2026 22.946 58.2426 22.2848 57.9007L22.1775 53.5C23.4903 54.088 26.2474 54.7576 31.9998 54.7576C37.7542 54.7576 40.5049 54.1161 41.8227 53.5219L41.716 57.9007C41.051 58.2426 38.5935 59.2026 31.9998 59.2026ZM41.8593 52.0174C41.6176 52.2275 39.8463 53.4776 31.9998 53.4776C23.9398 53.4776 22.2729 52.1386 22.1417 52.0306C22.1417 52.0306 23.0355 39.632 22.9258 31.6848C22.786 21.5631 21.0152 5.81555 21.0152 5.81555C23.002 6.22242 27.8706 6.3182 31.9998 6.3182C36.1291 6.3182 40.9976 6.22242 42.9844 5.81555C42.9844 5.81555 41.2049 21.6423 41.0702 31.8148C40.9657 39.7062 41.8593 52.0174 41.8593 52.0174Z" fill="#212C4C"/>
<path d="M32 15C23 15 23 13.1639 23 13.1639C23 13.1639 24.2274 24.099 24.4126 31.7669C24.5975 39.4208 23.9498 50.37 23.9498 50.37L23.9553 50.5732L24.1046 50.7091C24.2503 50.8409 25.7103 51.9994 32 51.9994C38.2907 51.9994 39.7507 50.8409 39.8963 50.7091L40.0456 50.5732C40.0456 50.5732 39.3966 39.5586 39.5824 31.8628C39.7685 24.153 41 13.1523 41 13.1523C41 13.1523 41 15 32 15Z" fill="#FFE600"/>
<ellipse cx="32" cy="12.5" rx="9" ry="1.5" fill="#FFE600"/>
</svg>
