<svg width="64" height="64" viewBox="0 0 64 64" fill="none" xmlns="http://www.w3.org/2000/svg">
<path d="M58.3708 5.19959C58.2374 4.84562 57.9988 4.54096 57.6872 4.32653C57.3755 4.1121 57.0057 3.99816 56.6275 4.00002H7.37243C6.99458 4.00004 6.62563 4.11473 6.31436 4.32892C6.00309 4.54312 5.76414 4.84673 5.62912 5.19963C5.49409 5.55253 5.46934 5.9381 5.55814 6.30537C5.64693 6.67263 5.8451 7.0043 6.12643 7.25654L26.2406 25.2899C27.1713 26.1253 27.9157 27.1473 28.4256 28.2892C28.9355 29.4312 29.1993 30.6677 29.1999 31.9184V53.0477C29.199 53.2721 29.1176 53.4888 28.9705 53.6583C28.8235 53.8278 28.6206 53.939 28.3986 53.9717L20.1344 55.1523C19.5668 55.2282 19.0434 55.4996 18.6543 55.9198C18.2653 56.3399 18.0348 56.8825 18.0025 57.4542C17.9861 57.7831 18.0372 58.1119 18.1526 58.4203C18.268 58.7287 18.4452 59.0103 18.6735 59.2476C18.9011 59.4849 19.1742 59.6738 19.4765 59.8031C19.7788 59.9324 20.104 59.9993 20.4328 60H43.5671C43.8959 59.9993 44.2211 59.9324 44.5234 59.8031C44.8257 59.6738 45.0988 59.4849 45.3264 59.2476C45.5547 59.0103 45.732 58.7287 45.8473 58.4202C45.9627 58.1118 46.0138 57.783 45.9974 57.4541C45.9651 56.8824 45.7346 56.3398 45.3455 55.9197C44.9564 55.4996 44.4331 55.2282 43.8655 55.1523L35.6013 53.9717C35.3793 53.939 35.1764 53.8278 35.0294 53.6583C34.8823 53.4888 34.8009 53.2721 34.7999 53.0477V31.9184C34.8007 30.6678 35.0645 29.4314 35.5744 28.2895C36.0842 27.1476 36.8287 26.1258 37.7593 25.2904L57.8735 7.25654C58.1564 7.00541 58.3557 6.67373 58.4446 6.30603C58.5335 5.93833 58.5077 5.55223 58.3708 5.19959ZM36.5133 23.9001C35.3874 24.9106 34.4868 26.1468 33.87 27.5282C33.2532 28.9097 32.9341 30.4055 32.9333 31.9184V53.0477C32.9361 53.7209 33.1803 54.3708 33.6214 54.8794C34.0625 55.3879 34.6713 55.7215 35.3373 55.8195L43.6015 57.0002C43.7384 57.0158 43.8659 57.0778 43.9626 57.1759C44.0594 57.274 44.1196 57.4023 44.1333 57.5394C44.137 57.6161 44.1251 57.6927 44.0984 57.7646C44.0716 57.8365 44.0305 57.9022 43.9775 57.9578C43.9246 58.0133 43.8609 58.0575 43.7903 58.0877C43.7198 58.1179 43.6438 58.1334 43.5671 58.1334H20.4328C20.3561 58.1333 20.2802 58.1177 20.2098 58.0875C20.1393 58.0573 20.0757 58.0131 20.0228 57.9576C19.9699 57.9021 19.9289 57.8364 19.9021 57.7645C19.8754 57.6927 19.8635 57.6161 19.8672 57.5395C19.8808 57.4025 19.941 57.2742 20.0376 57.1761C20.1342 57.078 20.2616 57.0159 20.3984 57.0002L28.6626 55.8195C29.3286 55.7215 29.9374 55.3879 30.3785 54.8794C30.8196 54.3708 31.0638 53.7209 31.0666 53.0477V31.9184C31.0658 30.4056 30.7466 28.9099 30.1298 27.5285C29.513 26.1471 28.6124 24.911 27.4866 23.9006L7.37348 5.86669L56.6266 5.86727L36.5133 23.9001Z" fill="#212C4C"/>
<path d="M16.4516 12.169L31.3849 25.2357C31.5551 25.3845 31.7735 25.4666 31.9995 25.4666C32.2256 25.4666 32.444 25.3845 32.6141 25.2357L47.5475 12.169C47.6904 12.0439 47.7918 11.8783 47.8381 11.6941C47.8844 11.5099 47.8734 11.316 47.8066 11.1383C47.7398 10.9605 47.6204 10.8073 47.4643 10.6992C47.3081 10.5911 47.1228 10.5332 46.9329 10.5332H17.0662C16.8763 10.5332 16.6909 10.5911 16.5348 10.6992C16.3787 10.8073 16.2592 10.9605 16.1924 11.1383C16.1257 11.316 16.1147 11.5099 16.161 11.6941C16.2073 11.8783 16.3087 12.0439 16.4516 12.169Z" fill="#E4E9ED"/>
</svg>
