<svg width="64" height="64" viewBox="0 0 64 64" fill="none" xmlns="http://www.w3.org/2000/svg">
<path d="M44.1636 11.0509C40.911 10.7359 36.591 10.5625 31.9998 10.5625C27.4086 10.5625 23.0886 10.7359 19.836 11.0509C14.6657 11.5519 14.2451 12.1665 14.2451 12.86C14.2451 12.8839 14.2464 12.9078 14.2491 12.9316L18.3242 49.075C18.3829 49.6073 18.588 50.113 18.9165 50.5359C19.245 50.9589 19.6842 51.2826 20.1854 51.4713C23.9654 52.8249 27.9567 53.4924 31.9714 53.4425C36.0022 53.4898 40.0095 52.8217 43.807 51.4694C44.3102 51.2817 44.7513 50.958 45.0813 50.5343C45.4113 50.1106 45.6171 49.6035 45.6758 49.0697L49.7502 12.9316C49.7529 12.9078 49.7543 12.8839 49.7542 12.86C49.7545 12.1665 49.3339 11.5519 44.1636 11.0509ZM31.9998 11.8425C41.0424 11.8425 46.9713 12.4985 48.339 13.0341C46.6722 13.5823 40.9068 14.1977 31.9998 14.1977C23.0928 14.1977 17.3274 13.5825 15.6606 13.0342C17.0283 12.4985 22.9572 11.8425 31.9998 11.8425ZM44.4042 48.9263C44.3712 49.2255 44.2557 49.5097 44.0707 49.7471C43.8857 49.9846 43.6384 50.166 43.3563 50.2712C39.7031 51.57 35.8484 52.2103 31.9714 52.1625C28.1116 52.2129 24.2738 51.5736 20.6388 50.2745C20.358 50.1687 20.1119 49.9872 19.9279 49.7501C19.7438 49.5131 19.629 49.2297 19.596 48.9314L15.6166 13.6364C19.1541 14.7978 30.4966 14.8377 31.9998 14.8377C33.503 14.8377 44.8455 14.798 48.383 13.6365L44.4042 48.9263Z" fill="#212C4C"/>
<path d="M45.5189 27.1695C45.5189 26.3079 39.4662 25.6094 31.9997 25.6094C24.5332 25.6094 18.4805 26.3079 18.4805 27.1695L18.5365 27.6667C19.9351 28.1915 24.7474 28.8231 31.9998 28.8231C39.2486 28.8231 44.0593 28.1923 45.4654 27.6426L45.5189 27.1695Z" fill="#C5320C"/>
<path d="M31.9998 29.4628C31.5099 29.4628 21.9255 29.4458 18.6084 28.3047L19.6802 37.8107C19.7867 38.8063 20.149 39.7573 20.7319 40.5714C21.3147 41.3855 22.0983 42.035 23.0064 42.4566C25.8449 43.6796 28.9093 44.2907 31.9998 44.25C35.0902 44.2907 38.1546 43.6796 40.993 42.4566C41.9012 42.035 42.6848 41.3855 43.2676 40.5714C43.8504 39.7573 44.2127 38.8062 44.3192 37.8106L45.3875 28.3357C44.3044 28.6419 43.1961 28.8501 42.0757 28.9577C38.7294 29.3173 35.3653 29.486 31.9998 29.4628Z" fill="#C5320C"/>
</svg>
