<svg width="64" height="64" viewBox="0 0 64 64" fill="none" xmlns="http://www.w3.org/2000/svg">
<path d="M37.8125 21.6971L37.8133 21.6977C40.4461 23.7242 42.056 26.9487 41.9985 30.4827L41.9984 30.4908V30.4989V60.0632C41.9984 61.181 41.1548 62 40.1781 62H23.8203C22.8435 62 22 61.181 22 60.0632V30.4337C22 26.9558 23.6131 23.7256 26.2478 21.6977L26.2486 21.6971C28.2193 20.177 29.2701 17.7121 29.2701 15.2274V10.986C29.2701 10.2261 28.654 9.61 27.8941 9.61C27.6694 9.61 27.4526 9.44363 27.4526 9.10895V5.89474C27.4526 5.56006 27.6694 5.39368 27.8941 5.39368C28.654 5.39368 29.2701 4.77761 29.2701 4.01764V2.63158C29.2701 2.2044 29.5754 2 29.7743 2H34.2241C34.5115 2 34.7909 2.23163 34.7909 2.63158V4.01764C34.7909 4.77761 35.407 5.39368 36.167 5.39368C36.3917 5.39368 36.6085 5.56005 36.6085 5.89474V9.10895C36.6085 9.44363 36.3917 9.61 36.167 9.61C35.407 9.61 34.7909 10.2261 34.7909 10.986V15.2274C34.7909 17.7121 35.8418 20.177 37.8125 21.6971Z" fill="#E4E9ED" stroke="#212C4C" stroke-width="2"/>
<path d="M36.167 10.61H35.791H28.2702H27.8941C27.0794 10.61 26.4526 9.95737 26.4526 9.10895V5.89474C26.4526 5.04632 27.0794 4.39368 27.8941 4.39368C28.1018 4.39368 28.2702 4.22533 28.2702 4.01764V2.63158C28.2702 1.71789 28.9596 1 29.7743 1H34.2241C35.1016 1 35.791 1.71789 35.791 2.63158V4.01764C35.791 4.22533 35.9593 4.39368 36.167 4.39368C36.9818 4.39368 37.6085 5.04632 37.6085 5.89474V9.10895C37.6085 9.95737 36.9818 10.61 36.167 10.61Z" fill="#212C4C"/>
<path d="M37.9231 53C38.4932 53 39 52.5064 39 51.8013V43.1987C39 42.5641 38.4932 42 37.8597 42H26.0769C25.5068 42 25 42.4936 25 43.1987V51.8013C25 52.4359 25.4434 53 26.0769 53H37.9231Z" fill="#212C4C"/>
</svg>
