<svg width="64" height="64" viewBox="0 0 64 64" fill="none" xmlns="http://www.w3.org/2000/svg">
<path d="M38.8481 56.6566C37.2506 56.2179 35.2619 55.6716 34.9981 54.9754C33.7844 51.7616 34.0869 37.5716 35.1431 35.2241C35.9856 33.3504 37.3119 32.5191 39.1481 31.3704C40.0481 30.8066 41.0694 30.1666 42.1794 29.3079C46.0769 26.2866 47.4781 21.6591 46.2319 15.9241C44.7944 9.30414 43.0169 4.70164 42.7356 3.99164L42.7269 3.84414L42.5381 3.65539C42.2981 3.41539 41.6594 2.77539 31.9994 2.77539C22.3406 2.77539 21.7019 3.41539 21.4619 3.65539L21.2544 3.87539V4.01664C20.9431 4.80414 19.1906 9.37664 17.7681 15.9241C16.5219 21.6591 17.9231 26.2866 21.8206 29.3079C22.9306 30.1679 23.9519 30.8066 24.8519 31.3704C26.6869 32.5204 28.0131 33.3504 28.8556 35.2241C29.9131 37.5729 30.2156 51.7629 29.0006 54.9754C28.7381 55.6716 26.7494 56.2179 25.1519 56.6566C22.6619 57.3404 20.0869 58.0466 20.0006 59.9154C19.9856 60.2391 20.0131 60.6591 20.3656 61.0279C21.0994 61.7979 23.1006 62.1879 31.9994 62.1879C40.8994 62.1879 42.9006 61.7966 43.6344 61.0279C43.9869 60.6579 44.0144 60.2391 43.9981 59.9154C43.9119 58.0466 41.3381 57.3404 38.8481 56.6566ZM41.1889 4.4807C40.0912 4.64305 37.6042 4.84289 31.9994 4.84289C26.3954 4.84289 23.9088 4.64297 22.8111 4.4807C23.7018 4.31156 26.0328 4.05539 31.9994 4.05539C37.967 4.05539 40.2981 4.31156 41.1889 4.4807ZM42.7144 60.1366C42.3894 60.6479 38.7844 60.9079 31.9994 60.9079C25.2131 60.9079 21.6081 60.6479 21.2856 60.1379C21.2831 60.1329 21.2731 60.1004 21.2781 59.9754C21.3231 59.0354 23.6331 58.4004 25.4906 57.8916C27.6581 57.2954 29.7044 56.7341 30.1981 55.4279C31.5144 51.9479 31.1706 37.2479 30.0231 34.6991C29.0206 32.4716 27.4806 31.5066 25.5319 30.2854C24.6556 29.7379 23.6644 29.1166 22.6056 28.2954C19.0744 25.5604 17.8681 21.4891 19.0181 16.1966C20.2288 10.6276 21.6737 6.52664 22.2398 5.01945C23.9616 5.39484 28.3135 5.48289 31.9994 5.48289C35.6864 5.48289 40.0385 5.39484 41.7603 5.01945C42.3263 6.52656 43.7713 10.6276 44.9819 16.1966C46.1319 21.4891 44.9256 25.5604 41.3944 28.2954C40.3356 29.1166 39.3431 29.7379 38.4681 30.2854C36.5181 31.5066 34.9781 32.4716 33.9756 34.6991C32.8294 37.2466 32.4856 51.9466 33.8006 55.4279C34.2944 56.7341 36.3419 57.2954 38.5094 57.8916C40.3656 58.4004 42.6769 59.0354 42.7206 59.9754C42.7256 60.1004 42.7156 60.1329 42.7144 60.1366Z" fill="black"/>
<path fill-rule="evenodd" clip-rule="evenodd" d="M32.0001 30C38.0002 30 40.5 27.5 42.9999 24C43.9997 22.3871 45 20.5 43.358 14C43.358 14 41.029 15.6735 31.6081 15.6735C22.1871 15.6735 20.6419 14 20.6419 14C18.9997 20.5 20.2553 22.8086 20.9999 24C23.6834 28.2933 26 30 32.0001 30Z" fill="#C53449"/>
<ellipse cx="32" cy="13.5" rx="11" ry="1.5" fill="#C53449"/>
</svg>
