<svg width="90" height="90" viewBox="0 0 90 90" fill="none" xmlns="http://www.w3.org/2000/svg">
<mask id="path-1-inside-1_1323_35118" fill="white">
<path d="M61.8344 38.8479L52.1336 31.8238C51.5234 31.1829 51.5369 30.6795 51.602 30.3539C51.7108 29.8086 52.1158 29.1792 52.8051 28.4835C53.9864 27.2912 53.4162 23.9067 52.7025 20.7533C52.2931 18.9434 51.8155 17.2279 51.4987 16.1445H53.7297C54.0637 16.1445 54.3689 15.9541 54.5182 15.6527L57.7288 9.17234C57.8655 8.89655 57.8508 8.56897 57.6902 8.30687C57.5296 8.0446 57.2457 7.88482 56.9404 7.88482H51.3532C51.3848 7.64247 51.4008 7.39906 51.4008 7.15529C51.4008 3.98522 48.8454 1.40625 45.704 1.40625C42.562 1.40625 40.0058 3.98522 40.0058 7.15529C40.0058 7.39906 40.0217 7.64247 40.0532 7.88482H34.4678C34.1623 7.88482 33.8784 8.04442 33.7178 8.30687C33.5574 8.56915 33.5427 8.89655 33.6792 9.17234L36.8898 15.6527C37.0393 15.9541 37.3444 16.1445 37.6785 16.1445H39.9093C39.5927 17.2278 39.1151 18.9434 38.7055 20.7533C37.9918 23.9067 37.4218 27.2912 38.603 28.4835C39.2924 29.1792 39.6972 29.8086 39.8062 30.3539C39.8713 30.6795 39.8847 31.1829 39.2746 31.8238L29.5718 38.8479C27.811 39.9335 26.7188 41.8967 26.7188 43.9804V82.5796C26.7188 85.8959 29.392 88.5938 32.6781 88.5938H45.704H58.7299C62.015 88.5938 64.6875 85.8959 64.6875 82.5796V43.9804C64.6875 41.8967 63.5953 39.9335 61.8344 38.8479ZM45.704 3.18559C47.873 3.18559 49.6377 4.96635 49.6377 7.15529C49.6377 7.3987 49.612 7.64247 49.5658 7.88482H41.8408C41.7945 7.64247 41.7691 7.3987 41.7691 7.15529C41.7689 4.96635 43.5341 3.18559 45.704 3.18559ZM38.2231 14.3652L35.894 9.66415H41.1675H50.2387H55.5138L53.1847 14.3652H38.2231Z"/>
</mask>
<path d="M61.8344 38.8479L52.1336 31.8238C51.5234 31.1829 51.5369 30.6795 51.602 30.3539C51.7108 29.8086 52.1158 29.1792 52.8051 28.4835C53.9864 27.2912 53.4162 23.9067 52.7025 20.7533C52.2931 18.9434 51.8155 17.2279 51.4987 16.1445H53.7297C54.0637 16.1445 54.3689 15.9541 54.5182 15.6527L57.7288 9.17234C57.8655 8.89655 57.8508 8.56897 57.6902 8.30687C57.5296 8.0446 57.2457 7.88482 56.9404 7.88482H51.3532C51.3848 7.64247 51.4008 7.39906 51.4008 7.15529C51.4008 3.98522 48.8454 1.40625 45.704 1.40625C42.562 1.40625 40.0058 3.98522 40.0058 7.15529C40.0058 7.39906 40.0217 7.64247 40.0532 7.88482H34.4678C34.1623 7.88482 33.8784 8.04442 33.7178 8.30687C33.5574 8.56915 33.5427 8.89655 33.6792 9.17234L36.8898 15.6527C37.0393 15.9541 37.3444 16.1445 37.6785 16.1445H39.9093C39.5927 17.2278 39.1151 18.9434 38.7055 20.7533C37.9918 23.9067 37.4218 27.2912 38.603 28.4835C39.2924 29.1792 39.6972 29.8086 39.8062 30.3539C39.8713 30.6795 39.8847 31.1829 39.2746 31.8238L29.5718 38.8479C27.811 39.9335 26.7188 41.8967 26.7188 43.9804V82.5796C26.7188 85.8959 29.392 88.5938 32.6781 88.5938H45.704H58.7299C62.015 88.5938 64.6875 85.8959 64.6875 82.5796V43.9804C64.6875 41.8967 63.5953 39.9335 61.8344 38.8479ZM45.704 3.18559C47.873 3.18559 49.6377 4.96635 49.6377 7.15529C49.6377 7.3987 49.612 7.64247 49.5658 7.88482H41.8408C41.7945 7.64247 41.7691 7.3987 41.7691 7.15529C41.7689 4.96635 43.5341 3.18559 45.704 3.18559ZM38.2231 14.3652L35.894 9.66415H41.1675H50.2387H55.5138L53.1847 14.3652H38.2231Z" fill="#EABD06" stroke="#212C4C" stroke-width="5.625" mask="url(#path-1-inside-1_1323_35118)"/>
<path d="M34.7266 49.6407V76.7258H56.6828V49.6407C53.3458 49.437 50.5442 47.0971 49.1374 45.6772C48.2216 44.7516 47.003 44.2422 45.7055 44.2422C44.4068 44.2422 43.1876 44.7516 42.2725 45.6769C41.1501 46.8112 39.9071 47.7637 38.6774 48.4313C37.3425 49.1558 36.0158 49.5619 34.7266 49.6407Z" fill="#212C4C"/>
</svg>
