<svg width="64" height="64" viewBox="0 0 64 64" fill="none" xmlns="http://www.w3.org/2000/svg">
<path d="M36.84 19.5511C36.3041 20.0919 35.8493 20.7118 35.7141 21.3891C35.6724 21.5981 35.6396 21.9085 35.7365 22.2775C35.8326 22.6439 36.0365 22.9921 36.3485 23.3198L36.4119 23.3864L36.4863 23.4403L43.3847 28.4352L43.4147 28.4569L37.5503 20.2549M36.84 19.5511L37.5503 20.2549M36.84 19.5511C36.84 19.5511 36.84 19.5511 36.8399 19.5511L37.5503 20.2549M36.84 19.5511C36.8567 19.5341 36.9301 19.4415 36.9823 19.167C37.0331 18.8993 37.0482 18.5397 37.021 18.0898C36.9665 17.1888 36.7545 16.0943 36.502 14.9787L36.502 14.9785C36.2171 13.7191 35.8836 12.5208 35.6615 11.7612L35.5018 11.2152M37.5503 20.2549C38.3904 19.407 37.9849 17.0003 37.4774 14.7579C37.2921 13.9387 37.0871 13.1467 36.9045 12.4805H36.6213V11.4805L37.5285 11.2152H36.6213H35.5018M35.5018 11.2152L35.287 10.4805H36.6213H37.8203H37.9747H27.0266H27.1809H28.38H29.7141L29.4994 11.2152M35.5018 11.2152H29.4994M29.4994 11.2152L29.3398 11.7611C29.1178 12.5207 28.7843 13.7191 28.4992 14.9786L28.4992 14.9787C28.2467 16.0943 28.0348 17.1888 27.9803 18.0898C27.9531 18.5397 27.9682 18.8993 28.0191 19.167C28.0713 19.4415 28.1447 19.5341 28.1614 19.5511" fill="#EABD06" stroke="#212C4C" stroke-width="2"/>
<path d="M24.6934 35.2999V54.5604H40.3067V35.2999C37.9337 35.155 35.9415 33.4911 34.9411 32.4814C34.2899 31.8232 33.4233 31.4609 32.5006 31.4609C31.5771 31.4609 30.7101 31.8232 30.0594 32.4812C29.2612 33.2878 28.3773 33.9651 27.5028 34.4398C26.5536 34.9551 25.6101 35.2438 24.6934 35.2999Z" fill="#212C4C"/>
</svg>
