<svg width="64" height="64" viewBox="0 0 64 64" fill="none" xmlns="http://www.w3.org/2000/svg">
<path fill-rule="evenodd" clip-rule="evenodd" d="M27.6197 11.9306H36.3798C36.5677 11.8574 36.7291 11.7294 36.8429 11.5634C36.9567 11.3974 37.0177 11.2011 37.0178 11V3C37.0172 2.46976 36.8055 1.96142 36.4292 1.58648C36.0529 1.21154 35.5427 1.00063 35.0106 1H28.9889C28.4568 1.00063 27.9466 1.21154 27.5703 1.58648C27.194 1.96142 26.9823 2.46976 26.9817 3V11C26.9818 11.2011 27.0428 11.3974 27.1566 11.5634C27.2704 11.7294 27.4318 11.8574 27.6197 11.9306ZM28.9889 7V10H35.0106V7H28.9889ZM35.0106 5V3H28.9889V5H35.0106Z" fill="#212C4C"/>
<path fill-rule="evenodd" clip-rule="evenodd" d="M41.071 24.5L36.4015 22.506C36.3616 22.4887 36.3297 22.4572 36.3119 22.4177C36.294 22.3782 36.2916 22.3335 36.3051 22.2924L37.0275 20.1334C37.7034 18.0987 37.7034 15.9013 37.0275 13.8666L36.3798 11.9306H27.6197L26.972 13.8666C26.2961 15.9013 26.2961 18.0987 26.972 20.1334L27.6944 22.2924C27.7079 22.3335 27.7055 22.3782 27.6877 22.4177C27.6699 22.4572 27.638 22.4887 27.5982 22.506L22.9285 24.5C22.341 24.7484 21.8426 25.168 21.4987 25.7037C21.1548 26.2394 20.9815 26.8662 21.0016 27.5018L21.8963 59.5971C21.9171 60.5097 22.2968 61.3776 22.9535 62.0141C23.6102 62.6505 24.4914 63.0046 25.4075 63H38.5925C39.5086 63.0046 40.3898 62.6505 41.0465 62.0141C41.7032 61.3776 42.0829 60.5097 42.1037 59.5971L42.9984 27.5018C43.0185 26.8661 42.8451 26.2393 42.5011 25.7036C42.1571 25.1679 41.6586 24.7483 41.071 24.5Z" fill="#E53D00"/>
<path d="M28.3397 12.9306L27.921 14.1819C27.9209 14.1822 27.9208 14.1825 27.9207 14.1828C27.3132 16.0122 27.3132 17.9878 27.9207 19.8172C27.9208 19.8175 27.9209 19.8178 27.921 19.8181L28.6427 21.9751L28.6447 21.981L28.6447 21.981C28.7359 22.2593 28.7197 22.5615 28.5995 22.8284C28.5995 22.8284 28.5995 22.8284 28.5995 22.8284L27.6877 22.4177C27.6699 22.4572 27.638 22.4887 27.5982 22.506L28.3397 12.9306ZM28.3397 12.9306H35.6598H28.3397ZM27.9817 3.00119C27.9817 3.00107 27.9817 3.00096 27.9817 3.00084C27.9818 2.96116 27.9842 2.92171 27.9889 2.88268V3V5V6V7V10V10.9306H27.9817L27.9817 3.00119ZM36.0178 10.9306H36.0106V10V7V6V5V3V2.88267C36.0153 2.92161 36.0177 2.96097 36.0178 3.00056C36.0178 3.00077 36.0178 3.00098 36.0178 3.00119L36.0178 10.9306Z" stroke="#212C4C" stroke-width="2"/>
<path d="M40.7531 36H23.2466L23.6926 52H40.3071L40.7531 36Z" fill="#212C4C"/>
</svg>
