<svg width="64" height="64" viewBox="0 0 64 64" fill="none" xmlns="http://www.w3.org/2000/svg">
<path d="M38.4337 56.6555C36.8362 56.2167 34.8474 55.6705 34.5843 54.9742C33.3699 51.7617 33.6725 37.5705 34.7293 35.223C35.7693 32.9117 36.6449 32.1155 37.9712 30.9105C38.3049 30.6067 38.6618 30.283 39.0499 29.9092C42.6456 26.4405 43.8825 22.3405 43.0599 16.6142C42.0575 9.63922 40.6162 4.50422 40.4137 3.80047C40.3825 3.24297 39.9318 2.48047 31.5856 2.48047C23.2387 2.48047 22.7881 3.24297 22.7568 3.80047C22.555 4.50297 21.1137 9.63797 20.1112 16.6142C19.2887 22.3405 20.525 26.4405 24.1206 29.9092C24.5081 30.283 24.8649 30.6067 25.1987 30.9092C26.525 32.1142 27.4012 32.9105 28.4418 35.223C29.4987 37.5705 29.8012 51.7617 28.5868 54.9742C28.3237 55.6705 26.3349 56.2167 24.7368 56.6555C22.2474 57.3392 19.6731 58.0455 19.5856 59.9142C19.5706 60.238 19.5987 60.658 19.9506 61.0267C20.685 61.7967 22.6862 62.1867 31.5856 62.1867C40.4843 62.1867 42.4856 61.7967 43.2199 61.0267C43.5718 60.658 43.6 60.238 43.585 59.9142C43.4974 58.0455 40.9231 57.3392 38.4337 56.6555ZM39.1533 4.26234C38.3372 4.39453 36.3586 4.57297 31.5856 4.57297C26.8124 4.57297 24.8338 4.39453 24.0178 4.26234C24.5064 4.10406 26.184 3.76047 31.5856 3.76047C36.9894 3.76047 38.6656 4.10312 39.1533 4.26234ZM42.3006 60.1355C41.9768 60.6467 38.3718 60.9067 31.5856 60.9067C24.7987 60.9067 21.1937 60.6467 20.8706 60.1367C20.8687 60.1317 20.8587 60.0992 20.8643 59.9742C20.9081 59.0342 23.2193 58.3992 25.0762 57.8905C27.2437 57.2942 29.2906 56.733 29.7843 55.4267C31.0993 51.9467 30.7562 37.2467 29.6093 34.698C28.4593 32.143 27.3999 31.1805 26.0593 29.9617C25.7343 29.6667 25.3868 29.3517 25.0093 28.9867C21.7399 25.8342 20.62 22.0742 21.3787 16.7967C22.2025 11.063 23.3231 6.59828 23.7897 4.86547C25.0096 5.09648 27.6177 5.21297 31.5856 5.21297C35.5526 5.21297 38.1607 5.09656 39.3809 4.86562C39.8477 6.59852 40.9687 11.0631 41.7924 16.7967C42.5512 22.0742 41.4312 25.833 38.1612 28.9867C37.7831 29.3517 37.4356 29.668 37.1106 29.963C35.7699 31.1817 34.7112 32.143 33.5618 34.698C32.4149 37.2467 32.0718 51.9467 33.3868 55.4267C33.8806 56.733 35.9275 57.2942 38.0949 57.8905C39.9518 58.3992 42.2625 59.0342 42.3062 59.9742C42.3118 60.0992 42.3018 60.1317 42.3006 60.1355Z" fill="#212C4C"/>
<ellipse cx="31.5" cy="13" rx="7.5" ry="1" fill="#EED680"/>
<path d="M39.1578 25.2892C40.0649 23.52 40.527 21.5292 40.4988 19.5117C40.477 17.6676 40.0263 15.5 39.5526 14C37.8669 14.6544 33.7486 15.001 31.5 15.001C29.2514 15.001 25.1323 14.6571 23.4474 14.0021C22.9737 15.5 22.5229 17.6673 22.5012 19.5114C22.473 21.529 22.935 23.52 23.8422 25.2892C24.6215 26.7226 25.7389 27.9122 27.0827 28.739C28.4265 29.5658 29.9497 30.0009 31.5 30.0009C33.0503 30.0009 34.5735 29.5658 35.9173 28.739C37.2611 27.9122 38.3785 26.7226 39.1578 25.2892Z" fill="#EED680"/>
</svg>
