<svg width="90" height="90" viewBox="0 0 90 90" fill="none" xmlns="http://www.w3.org/2000/svg">
<mask id="path-1-inside-1_1323_35112" fill="white">
<path d="M56.0138 36.4855C53.4128 32.5922 52.0267 28.0142 52.0313 23.332V4.92188C52.0302 3.9898 51.6595 3.09621 51.0004 2.43713C50.3413 1.77806 49.4477 1.40732 48.5156 1.40625H41.4844C40.5523 1.40732 39.6587 1.77806 38.9996 2.43713C38.3406 3.09621 37.9698 3.9898 37.9688 4.92188V23.332C37.9733 28.0142 36.5872 32.5922 33.9863 36.4855C31.0768 40.8406 29.5262 45.9617 29.5313 51.1993V81.5625C29.5334 83.4267 30.2748 85.2139 31.593 86.532C32.9111 87.8502 34.6984 88.5917 36.5625 88.5938H53.4375C55.3017 88.5917 57.0889 87.8502 58.407 86.532C59.7252 85.2139 60.4667 83.4267 60.4688 81.5625V51.1993C60.4738 45.9617 58.9232 40.8406 56.0138 36.4855ZM49.2188 19.6875H40.7813V16.875H49.2188V19.6875ZM41.4844 4.21875H48.5156C48.7021 4.21875 48.881 4.29283 49.0128 4.42469C49.1447 4.55655 49.2188 4.73539 49.2188 4.92188V14.0625H40.7813V4.92188C40.7813 4.73539 40.8553 4.55655 40.9872 4.42469C41.1191 4.29283 41.2979 4.21875 41.4844 4.21875Z"/>
</mask>
<path d="M56.0138 36.4855C53.4128 32.5922 52.0267 28.0142 52.0313 23.332V4.92188C52.0302 3.9898 51.6595 3.09621 51.0004 2.43713C50.3413 1.77806 49.4477 1.40732 48.5156 1.40625H41.4844C40.5523 1.40732 39.6587 1.77806 38.9996 2.43713C38.3406 3.09621 37.9698 3.9898 37.9688 4.92188V23.332C37.9733 28.0142 36.5872 32.5922 33.9863 36.4855C31.0768 40.8406 29.5262 45.9617 29.5313 51.1993V81.5625C29.5334 83.4267 30.2748 85.2139 31.593 86.532C32.9111 87.8502 34.6984 88.5917 36.5625 88.5938H53.4375C55.3017 88.5917 57.0889 87.8502 58.407 86.532C59.7252 85.2139 60.4667 83.4267 60.4688 81.5625V51.1993C60.4738 45.9617 58.9232 40.8406 56.0138 36.4855ZM49.2188 19.6875H40.7813V16.875H49.2188V19.6875ZM41.4844 4.21875H48.5156C48.7021 4.21875 48.881 4.29283 49.0128 4.42469C49.1447 4.55655 49.2188 4.73539 49.2188 4.92188V14.0625H40.7813V4.92188C40.7813 4.73539 40.8553 4.55655 40.9872 4.42469C41.1191 4.29283 41.2979 4.21875 41.4844 4.21875Z" fill="#C53449" stroke="#212C4C" stroke-width="5.625" mask="url(#path-1-inside-1_1323_35112)"/>
<path d="M57.6562 73.125V54.8438H32.3438V73.125H57.6562Z" fill="#212C4C"/>
<path d="M38.3807 67.0882C38.5112 67.2188 38.6663 67.3224 38.8369 67.393C39.0075 67.4637 39.1904 67.5001 39.3751 67.5001C39.5597 67.5001 39.7426 67.4637 39.9132 67.393C40.0838 67.3224 40.2389 67.2188 40.3694 67.0882L43.3753 64.0823L45.2363 66.8739C45.3517 67.047 45.5041 67.1923 45.6825 67.2994C45.8608 67.4065 46.0608 67.4727 46.2678 67.4932C46.3141 67.4978 46.3602 67.5 46.4063 67.5C46.591 67.5 46.7738 67.4637 46.9445 67.393C47.1151 67.3223 47.2701 67.2188 47.4007 67.0882L51.6194 62.8694C51.8832 62.6057 52.0313 62.248 52.0313 61.875C52.0313 61.5021 51.8832 61.1444 51.6194 60.8806C51.3557 60.6169 50.998 60.4688 50.6251 60.4688C50.2521 60.4687 49.8944 60.6169 49.6307 60.8806L46.6248 63.8865L44.7638 61.0949C44.6484 60.9218 44.496 60.7765 44.3176 60.6694C44.1393 60.5623 43.9393 60.4961 43.7323 60.4756C43.5253 60.4551 43.3163 60.4808 43.1204 60.5509C42.9244 60.6209 42.7465 60.7335 42.5994 60.8806L38.3807 65.0994C38.2501 65.23 38.1465 65.385 38.0758 65.5556C38.0051 65.7262 37.9688 65.9091 37.9688 66.0938C37.9688 66.2785 38.0051 66.4613 38.0758 66.632C38.1465 66.8026 38.2501 66.9576 38.3807 67.0882Z" fill="#FAFAFA"/>
</svg>
