<svg width="64" height="64" viewBox="0 0 64 64" fill="none" xmlns="http://www.w3.org/2000/svg">
<path d="M12 33H60V60C60 61.1046 59.1046 62 58 62H14C12.8954 62 12 61.1046 12 60V33ZM60 31H12V4C12 2.89543 12.8954 2 14 2H58C59.1046 2 60 2.89543 60 4V31Z" fill="#EED680" stroke="#212C4C" stroke-width="2"/>
<path fill-rule="evenodd" clip-rule="evenodd" d="M37.6001 55.2311C37.1102 55.0908 36.5003 54.9161 36.4194 54.6935C36.0472 53.6657 36.14 49.1278 36.4639 48.377C36.7223 47.7778 37.129 47.512 37.6921 47.1446C37.9681 46.9643 38.2813 46.7597 38.6217 46.485C39.8169 45.5189 40.2466 44.039 39.8645 42.2049C39.4236 40.0879 38.8785 38.616 38.7923 38.389L38.7896 38.3418L38.7317 38.2814C38.6581 38.2047 38.4622 38 35.4998 38C32.5378 38 32.3419 38.2047 32.2683 38.2814L32.2047 38.3518V38.3969C32.1092 38.6488 31.5718 40.1111 31.1355 42.2049C30.7534 44.039 31.1831 45.5189 32.3783 46.485C32.7168 46.7585 33.0283 46.962 33.3032 47.1415L33.3079 47.1446L33.3094 47.1456C33.8713 47.5128 34.2776 47.7783 34.5357 48.377C34.86 49.1282 34.9528 53.6661 34.5802 54.6935C34.4997 54.9161 33.8898 55.0908 33.3999 55.2311L33.3989 55.2314C32.6356 55.45 31.8466 55.6759 31.8202 56.2733C31.8156 56.3768 31.824 56.5111 31.9321 56.629C32.1571 56.8753 32.7708 57 35.4998 57C38.2292 57 38.8429 56.8749 39.0679 56.629C39.176 56.5107 39.1844 56.3768 39.1794 56.2733C39.153 55.6756 38.3637 55.4498 37.6001 55.2311ZM35.4998 38.6612C37.2186 38.6612 37.9813 38.5973 38.3179 38.5454C38.0448 38.4913 37.3299 38.4093 35.4998 38.4093C33.67 38.4093 32.9552 38.4913 32.6821 38.5454C33.0187 38.5972 33.7812 38.6612 35.4998 38.6612Z" fill="#212C4C"/>
<rect x="6" y="43" width="7" height="2" fill="#212C4C"/>
<path d="M4 40C3.44775 40 3 40.4473 3 41H2.5C2.39893 41 2.30469 41.0293 2.22607 41.082C2.08984 41.1719 2 41.3262 2 41.5C2 41.7754 2.22363 42 2.5 42H3V46C3 46.5527 3.94775 47 4.5 47V48H4C3.72363 48 3.5 48.2246 3.5 48.5C3.5 48.7754 3.72363 49 4 49H8C8.27637 49 8.5 48.7754 8.5 48.5C8.5 48.4121 8.47705 48.3281 8.43701 48.2559C8.41895 48.2246 8.39746 48.1953 8.37354 48.168C8.28174 48.0645 8.14844 48 8 48H7.5V47C8.05225 47 9 46.5527 9 46V42H9.5C9.77637 42 10 41.7754 10 41.5C10 41.2246 9.77637 41 9.5 41H9C9 40.4473 8.55225 40 8 40H4Z" fill="#212C4C"/>
<path d="M20 15C20 13.3431 21.3431 12 23 12H49C50.6569 12 52 13.3431 52 15V18C52 19.6569 50.6569 21 49 21H23C21.3431 21 20 19.6569 20 18V15Z" fill="#212C4C"/>
</svg>
