<svg width="64" height="64" viewBox="0 0 64 64" fill="none" xmlns="http://www.w3.org/2000/svg">
<path d="M43 58V36.4084L37 16.5916L36 16.5906M43 58L42 57.9989M43 58C42.9985 59.3256 42.4713 60.5965 41.5339 61.5339C40.5965 62.4712 39.3256 62.9985 38 63M43 58L38 63M42 57.9989V36.4084V36.4074C42.0034 32.881 40.9594 29.433 39.0005 26.5008C37.0411 23.5677 35.9968 20.1189 36 16.5916C36 16.5913 36 16.591 36 16.5906M42 57.9989C41.9988 59.0597 41.5769 60.0767 40.8268 60.8268C40.0767 61.5769 39.0597 61.9988 37.9989 62M42 57.9989L37.9989 62M36 16.5906L36 15H35H29H28V16.5906M36 16.5906L28 16.5906M28 16.5906L27 16.5916H28L28 16.5906ZM37.9989 62H26.0011C24.9403 61.9988 23.9233 61.5769 23.1732 60.8268C22.4233 60.0768 22.0014 59.0601 22 57.9995L37.9989 62ZM38 63H26H38Z" fill="#C53449" stroke="#212C4C" stroke-width="2"/>
<path d="M41 52V39H23V52H41Z" fill="#212C4C"/>
<path d="M27.2929 47.7072C27.3858 47.8 27.496 47.8737 27.6173 47.9239C27.7387 47.9742 27.8687 48.0001 28 48.0001C28.1314 48.0001 28.2614 47.9742 28.3827 47.9239C28.5041 47.8737 28.6143 47.8 28.7072 47.7072L30.8447 45.5697L32.168 47.5548C32.2501 47.6779 32.3585 47.7812 32.4853 47.8574C32.6122 47.9335 32.7543 47.9806 32.9015 47.9952C32.9345 47.9984 32.9673 48 33 48C33.1314 48 33.2614 47.9742 33.3827 47.9239C33.5041 47.8737 33.6143 47.8 33.7072 47.7072L36.7072 44.7072C36.8947 44.5196 37.0001 44.2652 37.0001 44C37.0001 43.7348 36.8947 43.4804 36.7072 43.2929C36.5196 43.1054 36.2653 43 36 43C35.7348 43 35.4805 43.1054 35.2929 43.2929L33.1554 45.4304L31.832 43.4453C31.75 43.3222 31.6416 43.2188 31.5148 43.1427C31.3879 43.0665 31.2458 43.0195 31.0985 43.0049C30.9513 42.9903 30.8027 43.0086 30.6634 43.0584C30.5241 43.1082 30.3975 43.1883 30.2929 43.2929L27.2929 46.2929C27.2 46.3858 27.1264 46.496 27.0761 46.6173C27.0259 46.7387 27 46.8687 27 47C27 47.1314 27.0259 47.2614 27.0761 47.3827C27.1264 47.504 27.2 47.6143 27.2929 47.7072Z" fill="#FAFAFA"/>
</svg>
