<svg width="186" height="225" viewBox="0 0 186 225" fill="none" xmlns="http://www.w3.org/2000/svg">
<path d="M1.49551 11.0377C1.4953 11.0377 1.49576 11.0354 1.49749 11.0306C1.49657 11.0353 1.49571 11.0377 1.49551 11.0377ZM1.50809 11.0069C1.52315 10.9774 1.55472 10.9264 1.61821 10.8525C1.78521 10.658 2.10138 10.3932 2.64008 10.0818C3.71733 9.45911 5.40323 8.80862 7.71237 8.16288C12.3075 6.87789 19.0277 5.70352 27.4153 4.71144C44.1701 2.72968 67.3585 1.5 93 1.5C118.641 1.5 141.83 2.72968 158.585 4.71144C166.972 5.70352 173.693 6.87789 178.288 8.16288C180.597 8.80862 182.283 9.45911 183.36 10.0818C183.899 10.3932 184.215 10.658 184.382 10.8525C184.445 10.9264 184.477 10.9774 184.492 11.0069L184.456 11.3709L184.305 12.8867C184.172 14.2152 183.977 16.1652 183.728 18.6513C183.23 23.6236 182.515 30.7403 181.648 39.3179C179.914 56.4732 177.57 79.4715 175.133 102.844C172.696 126.218 170.165 149.963 168.056 168.613C167.002 177.938 166.054 185.985 165.276 192.072C164.491 198.21 163.893 202.243 163.545 203.636C162.923 206.122 160.879 208.664 157.242 211.097C153.627 213.515 148.603 215.712 142.361 217.562C129.883 221.259 112.785 223.5 93 223.5C73.2152 223.5 56.1169 221.259 43.6395 217.562C37.3968 215.712 32.373 213.515 28.7578 211.097C25.1206 208.664 23.0766 206.122 22.4552 203.636C22.107 202.243 21.5087 198.21 20.7242 192.072C19.9463 185.985 18.998 177.938 17.9436 168.613C15.835 149.963 13.3043 126.218 10.8669 102.844C8.42963 79.4715 6.08605 56.4732 4.35177 39.3179C3.48463 30.7403 2.76984 23.6236 2.27183 18.6513C2.02283 16.1652 1.82802 14.2152 1.69547 12.8867L1.54434 11.3709L1.50809 11.0069ZM184.504 11.0377C184.504 11.0375 184.503 11.0351 184.503 11.0306C184.504 11.0355 184.505 11.0379 184.504 11.0377Z" stroke="#8797C8" stroke-width="3"/>
</svg>
