<?xml version="1.0" encoding="utf-8"?>
<svg xmlns="http://www.w3.org/2000/svg"
     width="65"
     height="65"
     viewBox="0 0 1024 1024">
    <path d="M456.8 994.4c27.2 30.4 72.8 30.4 100-.8 2.4-2.4 7.2-8 14.4-16 12-12.8 24.8-28 38.4-44.8 40-47.2 80-98.4 117.6-150.4s70.4-103.2 96.8-151.2c49.6-88.8 76.8-165.6 76.8-228.8C901.6 180 724.8 0 506.4 0S112 180 112 402.4c0 63.2 27.2 140.8 76.8 229.6 27.2 48 60 99.2 96.8 151.2 37.6 52 77.6 103.2 117.6 150.4 14.4 16.8 27.2 32 38.4 44.8 8 8 12.8 13.6 15.2 16z"
          fill="#D4AA49"/>
    <path d="M506.4 578.4c-108 0-196-88-196-196s88-196 196-196 196 88 196 196-88 196-196 196z"
          fill="white" />
</svg>