<svg width="289" height="130" viewBox="0 0 289 130" fill="none" xmlns="http://www.w3.org/2000/svg">
<path d="M288 129.5H288.5V129V4C288.5 2.06552 286.925 0.5 284.993 0.5C283.062 0.5 281.486 2.06552 281.486 4V10.8924H275.098V9.19621C275.098 7.26322 273.531 5.69621 271.598 5.69621H241C239.067 5.69621 237.5 7.26322 237.5 9.19621V31.429C237.5 33.362 239.067 34.929 241 34.929H271.598C273.531 34.929 275.098 33.362 275.098 31.429V29.7327H281.486V126.5H1H0.5V127V129V129.5H1H281.986H288ZM281.486 15.0101V25.615H275.098V15.0101H281.486Z" stroke="#8797C8"/>
</svg>
