<svg width="141" height="72" viewBox="0 0 141 72" fill="none" xmlns="http://www.w3.org/2000/svg">
<path d="M118 18C122.971 18 127 13.9706 127 9C127 4.02944 122.971 0 118 0C113.029 0 109 4.02944 109 9C109 13.9706 113.029 18 118 18Z" fill="#ECEFF5"/>
<path d="M128.23 20H117H107.771C104.584 20 102 22.6509 102 25.9226V39.3169C102 42.5866 104.584 45.2405 107.769 45.2405H109.169V67.4339C109.169 69.9548 111.16 72 113.618 72H122.38C124.837 72 126.829 69.9548 126.829 67.4339V45.2405H128.23C131.415 45.2405 134 42.5876 134 39.3169V25.9226C134.001 22.6509 131.416 20 128.23 20Z" fill="#ECEFF5"/>
<path d="M71 18C75.9706 18 80 13.9706 80 9C80 4.02944 75.9706 0 71 0C66.0294 0 62 4.02944 62 9C62 13.9706 66.0294 18 71 18Z" fill="#007675"/>
<path d="M81.2304 20H70.0005H60.7705C57.5838 20 55 22.6509 55 25.9226V39.3169C55 42.5866 57.5838 45.2405 60.7686 45.2405H62.1691V67.4339C62.1691 69.9548 64.1598 72 66.618 72H75.38C77.8373 72 79.8289 69.9548 79.8289 67.4339V45.2405H81.2304C84.4152 45.2405 87 42.5876 87 39.3169V25.9226C87.001 22.6509 84.4162 20 81.2304 20Z" fill="#007675"/>
<path d="M24 18C28.9706 18 33 13.9706 33 9C33 4.02944 28.9706 0 24 0C19.0294 0 15 4.02944 15 9C15 13.9706 19.0294 18 24 18Z" fill="#B4BDDB"/>
<path d="M34.2304 20H23.0005H13.7705C10.5838 20 8 22.6509 8 25.9226V39.3169C8 42.5866 10.5838 45.2405 13.7686 45.2405H15.1691V67.4339C15.1691 69.9548 17.1598 72 19.618 72H28.38C30.8373 72 32.8289 69.9548 32.8289 67.4339V45.2405H34.2304C37.4152 45.2405 40 42.5876 40 39.3169V25.9226C40.001 22.6509 37.4162 20 34.2304 20Z" fill="#B4BDDB"/>
</svg>
