<svg width="72" height="72" viewBox="0 0 72 72" fill="none" xmlns="http://www.w3.org/2000/svg">
<g clip-path="url(#clip0_5077_56503)">
<path d="M64.3441 70.9412L58.8387 65.3824H10.0645C8.17204 65.3824 6.55197 64.6912 5.2043 63.3088C3.85663 61.9265 3.1828 60.2647 3.1828 58.3235V15.9706C3.1828 14.0294 3.85663 12.3676 5.2043 10.9853C6.55197 9.60294 8.17204 8.91176 10.0645 8.91176H13.5914V18.9706L1.03226 6.08824C0.344086 5.38235 0 4.54412 0 3.57353C0 2.60294 0.344086 1.76471 1.03226 1.05882C1.72043 0.352941 2.53763 0 3.48387 0C4.43011 0 5.24731 0.352941 5.93548 1.05882L69.2473 66C69.9355 66.7059 70.2796 67.5294 70.2796 68.4706C70.2796 69.4118 69.9355 70.2353 69.2473 70.9412C68.5591 71.6471 67.7419 72 66.7957 72C65.8495 72 65.0323 71.6471 64.3441 70.9412ZM69.8495 53.4706C69.2186 53.7647 68.5878 53.8529 67.957 53.7353C67.3262 53.6176 66.724 53.2647 66.1505 52.6765L52.9892 39.1765C53.276 36.7059 53.0323 34.3088 52.2581 31.9853C51.4839 29.6618 50.2366 27.6176 48.5161 25.8529C46.853 24.1471 44.8889 22.8971 42.6237 22.1029C40.3584 21.3088 38.0215 21.0588 35.6129 21.3529L24.4301 9.97059C24.086 9.61765 23.8423 9.23529 23.6989 8.82353C23.5556 8.41176 23.4839 7.97059 23.4839 7.5C23.4839 7.02941 23.5556 6.60294 23.6989 6.22059C23.8423 5.83824 24.0573 5.47059 24.3441 5.11765L25.2043 4.14706C25.8351 3.44118 26.595 2.88235 27.4839 2.47059C28.3728 2.05882 29.3047 1.85294 30.2796 1.85294H44.9032C45.8781 1.85294 46.81 2.05882 47.6989 2.47059C48.5878 2.88235 49.3477 3.44118 49.9785 4.14706L54.2796 8.91176H65.1183C67.0108 8.91176 68.6308 9.60294 69.9785 10.9853C71.3262 12.3676 72 14.0294 72 15.9706V50.2059C72 51.0294 71.7993 51.7059 71.3978 52.2353C70.9964 52.7647 70.4803 53.1765 69.8495 53.4706ZM37.5914 53.0294C38.9104 53.0294 40.1864 52.8824 41.4194 52.5882C42.6523 52.2941 43.8423 51.8235 44.9892 51.1765L23.914 29.5588C23.2832 30.7353 22.8244 31.9559 22.5376 33.2206C22.2509 34.4853 22.1075 35.7941 22.1075 37.1471C22.1075 41.5588 23.6129 45.3088 26.6237 48.3971C29.6344 51.4853 33.2903 53.0294 37.5914 53.0294ZM37.5914 45.9706C35.1828 45.9706 33.147 45.1176 31.4839 43.4118C29.8208 41.7059 28.9892 39.6176 28.9892 37.1471C28.9892 35.9706 29.2043 34.8382 29.6344 33.75C30.0645 32.6618 30.681 31.7059 31.4839 30.8824L43.6989 43.4118C42.8961 44.2353 41.9642 44.8676 40.9032 45.3088C39.8423 45.75 38.7384 45.9706 37.5914 45.9706Z" fill="#007675"/>
</g>
<defs>
<clipPath id="clip0_5077_56503">
<rect width="72" height="72" rx="2" fill="white"/>
</clipPath>
</defs>
</svg>
