<svg width="72" height="72" viewBox="0 0 72 72" fill="none" xmlns="http://www.w3.org/2000/svg">
<path d="M56.5771 60.2647L52.6774 56.4044H18.129C16.7885 56.4044 15.641 55.9244 14.6864 54.9645C13.7318 54.0045 13.2545 52.8505 13.2545 51.5025V22.0907C13.2545 20.7426 13.7318 19.5886 14.6864 18.6287C15.641 17.6687 16.7885 17.1887 18.129 17.1887H20.6272V24.174L11.7312 15.2279C11.2437 14.7377 11 14.1556 11 13.4816C11 12.8076 11.2437 12.2255 11.7312 11.7353C12.2186 11.2451 12.7975 11 13.4677 11C14.138 11 14.7168 11.2451 15.2043 11.7353L60.0502 56.8333C60.5376 57.3235 60.7814 57.8954 60.7814 58.549C60.7814 59.2026 60.5376 59.7745 60.0502 60.2647C59.5627 60.7549 58.9839 61 58.3136 61C57.6434 61 57.0645 60.7549 56.5771 60.2647ZM60.4767 48.1324C60.0299 48.3366 59.583 48.3979 59.1362 48.3162C58.6894 48.2345 58.2628 47.9894 57.8566 47.5809L48.534 38.2059C48.7372 36.4902 48.5645 34.8256 48.0161 33.212C47.4677 31.5984 46.5842 30.1789 45.3656 28.9534C44.1876 27.7688 42.7963 26.9007 41.1918 26.3493C39.5872 25.7978 37.9319 25.6242 36.2258 25.8284L28.3047 17.924C28.0609 17.6789 27.8883 17.4134 27.7867 17.1275C27.6852 16.8415 27.6344 16.5351 27.6344 16.2083C27.6344 15.8815 27.6852 15.5854 27.7867 15.3199C27.8883 15.0543 28.0406 14.799 28.2437 14.5539L28.853 13.8799C29.2999 13.3897 29.8381 13.0016 30.4677 12.7157C31.0974 12.4297 31.7575 12.2868 32.448 12.2868H42.8065C43.497 12.2868 44.1571 12.4297 44.7867 12.7157C45.4164 13.0016 45.9546 13.3897 46.4014 13.8799L49.448 17.1887H57.1254C58.4659 17.1887 59.6135 17.6687 60.5681 18.6287C61.5227 19.5886 62 20.7426 62 22.0907V45.8652C62 46.4371 61.8578 46.9069 61.5735 47.2745C61.2891 47.6422 60.9235 47.9281 60.4767 48.1324ZM37.6272 47.826C38.5615 47.826 39.4654 47.7239 40.3387 47.5196C41.2121 47.3154 42.055 46.9886 42.8674 46.5392L27.9391 31.527C27.4922 32.344 27.1673 33.1916 26.9642 34.0699C26.7611 34.9481 26.6595 35.857 26.6595 36.7966C26.6595 39.8603 27.7258 42.4645 29.8584 44.6091C31.991 46.7537 34.5806 47.826 37.6272 47.826ZM37.6272 42.924C35.9211 42.924 34.4791 42.3317 33.3011 41.1471C32.1231 39.9624 31.534 38.5123 31.534 36.7966C31.534 35.9796 31.6864 35.1932 31.991 34.4375C32.2957 33.6818 32.7324 33.018 33.3011 32.4461L41.9534 41.1471C41.3847 41.719 40.7246 42.1581 39.9731 42.4645C39.2216 42.7708 38.4397 42.924 37.6272 42.924Z" fill="#007675"/>
</svg>
