<svg width="288" height="72" viewBox="0 0 288 72" fill="none" xmlns="http://www.w3.org/2000/svg">
<path d="M49.433 13.72H22.567L21.4281 15.6234L21.4273 15.6249C20.494 17.1789 20.0006 18.9574 20 20.7701C20 20.7702 20 20.7703 20 20.7703V54.2297C20 54.2298 20 54.2299 20 54.23C20.0006 56.0427 20.494 57.8212 21.4273 59.3751L21.4278 59.376L22.9978 61.996L23.0002 62L48.9998 62L49.0022 61.996L50.5722 59.376L50.5727 59.3751C51.506 57.8212 51.9994 56.0427 52 54.23L49.433 13.72ZM49.433 13.72L50.5719 15.6234L50.5727 15.6249C51.506 17.1788 51.9994 18.9573 52 20.77C52 20.7701 52 20.7702 52 20.7703V54.2297L49.433 13.72ZM49 11.72H23V10H49V11.72Z" fill="#E7E7E7" stroke="#212C4C" stroke-width="2"/>
<path d="M51 48H21V26H51V48Z" fill="#212C4C"/>
<path d="M36 45C37.5823 45 39.129 44.5308 40.4446 43.6518C41.7602 42.7727 42.7855 41.5233 43.391 40.0615C43.9965 38.5997 44.155 36.9911 43.8463 35.4393C43.5376 33.8874 42.7757 32.462 41.6569 31.3431C40.538 30.2243 39.1126 29.4624 37.5607 29.1537C36.0089 28.845 34.4003 29.0035 32.9385 29.609C31.4767 30.2145 30.2273 31.2399 29.3482 32.5554C28.4692 33.871 28 35.4178 28 37C28 39.1217 28.8429 41.1566 30.3431 42.6569C31.8434 44.1571 33.8783 45 36 45Z" fill="#E91F25"/>
<path d="M121.433 13.72H94.567L93.4281 15.6234L93.4273 15.6249C92.494 17.1789 92.0006 18.9574 92 20.7701C92 20.7702 92 20.7703 92 20.7703V54.2297C92 54.2298 92 54.2299 92 54.23C92.0006 56.0427 92.494 57.8212 93.4273 59.3751L93.4278 59.376L94.9978 61.996L95.0002 62L121 62L121.002 61.996L122.572 59.376L122.573 59.3751C123.506 57.8212 123.999 56.0427 124 54.23L121.433 13.72ZM121.433 13.72L122.572 15.6234L122.573 15.6249C123.506 17.1788 123.999 18.9573 124 20.77C124 20.7701 124 20.7702 124 20.7703V54.2297L121.433 13.72ZM121 11.72H95V10H121V11.72Z" fill="#ECEFF5" stroke="#007675" stroke-width="2"/>
<path d="M123 48H93V26H123V48Z" fill="#007675"/>
<path d="M108 45C109.582 45 111.129 44.5308 112.445 43.6518C113.76 42.7727 114.786 41.5233 115.391 40.0615C115.997 38.5997 116.155 36.9911 115.846 35.4393C115.538 33.8874 114.776 32.462 113.657 31.3431C112.538 30.2243 111.113 29.4624 109.561 29.1537C108.009 28.845 106.4 29.0035 104.939 29.609C103.477 30.2145 102.227 31.2399 101.348 32.5554C100.469 33.871 100 35.4178 100 37C100 39.1217 100.843 41.1566 102.343 42.6569C103.843 44.1571 105.878 45 108 45Z" fill="#ECEFF5"/>
<path d="M193.433 13.72H166.567L165.428 15.6234L165.427 15.6249C164.494 17.1789 164.001 18.9574 164 20.7701C164 20.7702 164 20.7703 164 20.7703V54.2297C164 54.2298 164 54.2299 164 54.23C164.001 56.0427 164.494 57.8212 165.427 59.3751L165.428 59.376L166.998 61.996L167 62L193 62L193.002 61.996L194.572 59.376L194.573 59.3751C195.506 57.8212 195.999 56.0427 196 54.23L193.433 13.72ZM193.433 13.72L194.572 15.6234L194.573 15.6249C195.506 17.1788 195.999 18.9573 196 20.77C196 20.7701 196 20.7702 196 20.7703V54.2297L193.433 13.72ZM193 11.72H167V10H193V11.72Z" stroke="#B4BDDB" stroke-width="2"/>
<path d="M195 48H165V26H195V48Z" fill="#B4BDDB"/>
<path d="M180 45C181.582 45 183.129 44.5308 184.445 43.6518C185.76 42.7727 186.786 41.5233 187.391 40.0615C187.997 38.5997 188.155 36.9911 187.846 35.4393C187.538 33.8874 186.776 32.462 185.657 31.3431C184.538 30.2243 183.113 29.4624 181.561 29.1537C180.009 28.845 178.4 29.0035 176.939 29.609C175.477 30.2145 174.227 31.2399 173.348 32.5554C172.469 33.871 172 35.4178 172 37C172 39.1217 172.843 41.1566 174.343 42.6569C175.843 44.1571 177.878 45 180 45Z" fill="#FAFAFA"/>
<path d="M265.433 13.72H238.567L237.428 15.6234L237.427 15.6249C236.494 17.1789 236.001 18.9574 236 20.7701C236 20.7702 236 20.7703 236 20.7703V54.2297C236 54.2298 236 54.2299 236 54.23C236.001 56.0427 236.494 57.8212 237.427 59.3751L237.428 59.376L238.998 61.996L239 62L265 62L265.002 61.996L266.572 59.376L266.573 59.3751C267.506 57.8212 267.999 56.0427 268 54.23L265.433 13.72ZM265.433 13.72L266.572 15.6234L266.573 15.6249C267.506 17.1788 267.999 18.9573 268 20.77C268 20.7701 268 20.7702 268 20.7703V54.2297L265.433 13.72ZM265 11.72H239V10H265V11.72Z" fill="#ECEFF5" stroke="#B4BDDB" stroke-width="2"/>
<path d="M267 48H237V26H267V48Z" fill="#B4BDDB"/>
<path d="M252 45C253.582 45 255.129 44.5308 256.445 43.6518C257.76 42.7727 258.786 41.5233 259.391 40.0615C259.997 38.5997 260.155 36.9911 259.846 35.4393C259.538 33.8874 258.776 32.462 257.657 31.3431C256.538 30.2243 255.113 29.4624 253.561 29.1537C252.009 28.845 250.4 29.0035 248.939 29.609C247.477 30.2145 246.227 31.2399 245.348 32.5554C244.469 33.871 244 35.4178 244 37C244 39.1217 244.843 41.1566 246.343 42.6569C247.843 44.1571 249.878 45 252 45Z" fill="#ECEFF5"/>
</svg>
