<svg width="60" height="40" viewBox="0 0 60 40" fill="none" xmlns="http://www.w3.org/2000/svg">
<circle cx="14.6379" cy="24.5" r="4.5" fill="#FAFAFA"/>
<circle cx="45.6379" cy="24.5" r="4.5" fill="#FAFAFA"/>
<path fill-rule="evenodd" clip-rule="evenodd" d="M0.0370393 22.7795C0.033342 22.9036 0.033342 23.0408 0.0370393 23.1612C0.0610712 24.1156 0.299545 24.9274 0.965044 25.5C1.67306 26.1079 3.5659 26.5975 5.41081 26.9329C5.6271 26.9718 5.84152 27.0089 6.04672 27.0441C6.25376 27.0793 6.45152 27.1108 6.64192 27.1423C7.68639 27.3073 8.44061 27.3981 8.44061 27.3981H8.45361H8.46282C8.47391 27.3981 8.4887 27.3999 8.50903 27.4018C8.53122 27.4018 8.55894 27.4055 8.59036 27.4073H8.59596C8.61444 27.4073 8.6347 27.4111 8.65689 27.4111C8.67167 27.4111 8.68836 27.4129 8.705 27.4148C8.79003 27.4203 8.8954 27.4296 9.0211 27.4388L9.10063 27.4444C9.12651 27.4444 9.14867 27.4481 9.17455 27.45C9.2411 27.4555 9.30948 27.4592 9.38342 27.4648C9.40745 27.4648 9.43336 27.4685 9.45924 27.4703C9.52949 27.4759 9.60342 27.4815 9.67922 27.4852H9.69402C9.7957 27.4926 9.90102 27.5 10.0119 27.5074C10.9473 28.9529 12.5112 29.911 14.3913 29.9796C14.5447 29.9926 14.6981 30 14.8534 30C15.5781 30 16.2732 29.8647 16.9128 29.6201C17.2437 29.5089 17.5562 29.3755 17.8279 29.2105C17.7687 29.2346 17.7058 29.2569 17.6448 29.2791C18.2235 28.9585 18.7393 28.5415 19.1755 28.0504C19.3826 28.0615 19.5933 28.0708 19.8041 28.0801C20.037 28.0912 20.4288 28.1079 20.6654 28.119C20.891 28.1301 21.1165 28.1394 21.3458 28.1486C21.5842 28.1598 21.8782 28.1709 22.1203 28.182C22.1203 28.182 22.7599 28.2079 23.0058 28.2172C23.2498 28.2265 23.5197 28.2357 23.7656 28.245C23.7656 28.245 24.4866 28.2709 24.738 28.2802L25.4293 28.3025C25.677 28.3099 26.0357 28.321 26.2853 28.3284C26.5274 28.3358 26.9138 28.3451 27.156 28.3525L28.8886 28.3692C33.1126 28.3043 37.6972 28.195 41.6754 28.0893C42.6256 29.1994 44.0046 29.9092 45.6111 29.9685C45.7645 29.9815 45.9179 29.9889 46.0732 29.9889C46.7979 29.9889 47.493 29.8536 48.1326 29.609C48.4635 29.4978 48.7759 29.3643 49.0477 29.1994C48.9885 29.2235 48.9256 29.2457 48.8646 29.268C49.5246 28.9029 50.105 28.4118 50.5746 27.8262C51.8039 27.7873 52.5175 27.7632 52.5175 27.7632L59.2797 27.4759C59.2797 27.4759 60.2317 24.5163 59.6605 22.3202C59.6365 22.2257 59.6125 22.1349 59.5885 22.0423H59.9009C59.9009 22.0423 60.1264 20.8933 59.8972 19.8758C59.74 19.1827 58.7492 18.2506 58.7492 18.2506C58.7492 18.2506 58.4497 18.2302 58.0152 18.2116C57.8544 18.0634 57.6752 17.9355 57.47 17.8317C56.6991 17.4463 50.7392 16.6123 45.8477 15.9785L45.8126 15.974C45.6928 15.9588 45.5719 15.9435 45.454 15.9266C45.1933 15.8933 44.9363 15.8599 44.6831 15.8284C44.1784 15.7635 43.6904 15.7024 43.2301 15.6449C42.999 15.6153 42.7753 15.5875 42.559 15.5615C40.6125 15.3188 39.2796 15.1594 39.2796 15.1594L28.0401 10L27.0455 10.1612C27.0455 10.1612 35.978 15.4077 35.5695 15.7283C35.5695 15.7283 35.5695 15.732 35.5658 15.732C35.3143 15.884 30.4432 15.8488 25.2838 15.7246C24.1459 15.7246 22.6514 15.7524 21.838 15.6301C20.6015 15.4442 18.7244 14.2828 18.7244 14.2828C18.2918 14.1772 18.0627 14.1086 18.0627 14.1086C18.0627 14.1086 11.7774 13.7268 8.44251 14.3958C5.10947 15.0649 1.63417 15.841 1.63417 15.841C1.63417 15.841 1.40314 16.3321 1.1277 17.1216C0.841166 17.1271 0.632241 17.1327 0.632241 17.1327L3.13989e-05 20.7872L0.257013 20.778C0.190463 21.2024 0.12943 21.6156 0.0887608 22.0141C0.0628803 22.2754 0.0444337 22.5311 0.0370393 22.7795ZM46.0695 20.6801C44.1248 20.6801 42.5461 22.2609 42.5461 24.2124C42.5461 26.162 44.1229 27.7446 46.0695 27.7446C48.0142 27.7446 49.593 26.162 49.593 24.2124C49.593 22.2628 48.0142 20.6801 46.0695 20.6801ZM27.4208 10.2669C27.4208 10.2669 35.5158 14.7572 36.5252 15.3447V15.3428C37.426 15.8671 37.7791 15.8069 38.2612 15.7247C38.3192 15.7147 38.3792 15.7045 38.4422 15.695C38.8951 15.6264 38.8063 15.1742 38.8063 15.1742C38.8063 15.1742 35.0297 13.4637 34.0055 12.9652C32.9814 12.4666 28.1824 10.1927 28.1824 10.1927L27.4208 10.2669ZM14.8534 20.6801C12.9087 20.6801 11.33 22.2609 11.33 24.2124C11.33 26.162 12.9068 27.7446 14.8534 27.7446C16.7982 27.7446 18.3769 26.1638 18.3769 24.2124C18.3769 22.2628 16.7982 20.6801 14.8534 20.6801Z" fill="#E8BE5D"/>
<path d="M25.2838 15.7246C25.2838 15.7246 24.4612 13.447 24.073 12.9948C23.169 11.944 21.9656 11.3714 21.5884 11.7531C21.3574 11.9885 21.6106 14.066 21.838 15.6301C22.6514 15.7524 24.1459 15.7246 25.2838 15.7246Z" fill="#E8BE5D"/>
</svg>
