<svg width="60" height="40" viewBox="0 0 60 40" fill="none" xmlns="http://www.w3.org/2000/svg">
<circle cx="4.5" cy="4.5" r="4.5" transform="matrix(-1 0 0 1 49.8621 20)" fill="#FAFAFA"/>
<circle cx="4.5" cy="4.5" r="4.5" transform="matrix(-1 0 0 1 18.8621 20)" fill="#FAFAFA"/>
<path fill-rule="evenodd" clip-rule="evenodd" d="M59.963 22.7795C59.9667 22.9036 59.9667 23.0408 59.963 23.1612C59.9389 24.1156 59.7005 24.9274 59.035 25.5C58.3269 26.1079 56.4341 26.5975 54.5892 26.9329C54.3729 26.9718 54.1585 27.0089 53.9533 27.0441C53.7462 27.0793 53.5485 27.1108 53.3581 27.1423C52.3136 27.3073 51.5594 27.3981 51.5594 27.3981H51.5464H51.5372C51.5261 27.3981 51.5113 27.3999 51.491 27.4018C51.4688 27.4018 51.4411 27.4055 51.4096 27.4073H51.404C51.3856 27.4073 51.3653 27.4111 51.3431 27.4111C51.3283 27.4111 51.3116 27.4129 51.295 27.4148C51.21 27.4203 51.1046 27.4296 50.9789 27.4388L50.8994 27.4444C50.8735 27.4444 50.8513 27.4481 50.8254 27.45C50.7589 27.4555 50.6905 27.4592 50.6166 27.4648C50.5925 27.4648 50.5666 27.4685 50.5408 27.4703C50.4705 27.4759 50.3966 27.4815 50.3208 27.4852H50.306C50.2043 27.4926 50.099 27.5 49.9881 27.5074C49.0527 28.9529 47.4888 29.911 45.6087 29.9796C45.4553 29.9926 45.3019 30 45.1466 30C44.4219 30 43.7268 29.8647 43.0872 29.6201C42.7563 29.5089 42.4438 29.3755 42.1721 29.2105C42.2313 29.2346 42.2942 29.2569 42.3552 29.2791C41.7765 28.9585 41.2607 28.5415 40.8245 28.0504C40.6174 28.0615 40.4067 28.0708 40.1959 28.0801C39.963 28.0912 39.5712 28.1079 39.3346 28.119C39.109 28.1301 38.8835 28.1394 38.6542 28.1486C38.4158 28.1598 38.1218 28.1709 37.8797 28.182C37.8797 28.182 37.2401 28.2079 36.9942 28.2172C36.7502 28.2265 36.4803 28.2357 36.2344 28.245C36.2344 28.245 35.5134 28.2709 35.262 28.2802L34.5707 28.3025C34.323 28.3099 33.9643 28.321 33.7147 28.3284C33.4726 28.3358 33.0862 28.3451 32.844 28.3525L31.1114 28.3692C26.8874 28.3043 22.3028 28.195 18.3246 28.0893C17.3744 29.1994 15.9954 29.9092 14.3889 29.9685C14.2355 29.9815 14.0821 29.9889 13.9268 29.9889C13.2021 29.9889 12.507 29.8536 11.8674 29.609C11.5365 29.4978 11.2241 29.3643 10.9523 29.1994C11.0115 29.2235 11.0744 29.2457 11.1354 29.268C10.4754 28.9029 9.89495 28.4118 9.42541 27.8262C8.19608 27.7873 7.48247 27.7632 7.48247 27.7632L0.720337 27.4759C0.720337 27.4759 -0.231705 24.5163 0.339516 22.3202C0.363544 22.2257 0.387512 22.1349 0.411545 22.0423H0.0991478C0.0991478 22.0423 -0.126381 20.8933 0.102848 19.8758C0.259979 19.1827 1.25082 18.2506 1.25082 18.2506C1.25082 18.2506 1.55034 18.2302 1.98476 18.2116C2.14559 18.0634 2.32485 17.9355 2.53004 17.8317C3.30091 17.4463 9.26085 16.6123 14.1523 15.9785L14.1874 15.974C14.3072 15.9588 14.4281 15.9435 14.546 15.9266C14.8067 15.8933 15.0637 15.8599 15.3169 15.8284C15.8216 15.7635 16.3096 15.7024 16.7699 15.6449C17.001 15.6153 17.2247 15.5875 17.441 15.5615C19.3875 15.3188 20.7204 15.1594 20.7204 15.1594L31.9599 10L32.9545 10.1612C32.9545 10.1612 24.022 15.4077 24.4305 15.7283C24.4305 15.7283 24.4305 15.732 24.4342 15.732C24.6857 15.884 29.5568 15.8488 34.7162 15.7246C35.8541 15.7246 37.3486 15.7524 38.162 15.6301C39.3985 15.4442 41.2756 14.2828 41.2756 14.2828C41.7082 14.1772 41.9373 14.1086 41.9373 14.1086C41.9373 14.1086 48.2226 13.7268 51.5575 14.3958C54.8905 15.0649 58.3658 15.841 58.3658 15.841C58.3658 15.841 58.5969 16.3321 58.8723 17.1216C59.1588 17.1271 59.3678 17.1327 59.3678 17.1327L60 20.7872L59.743 20.778C59.8095 21.2024 59.8706 21.6156 59.9112 22.0141C59.9371 22.2754 59.9556 22.5311 59.963 22.7795ZM13.9305 20.6801C15.8752 20.6801 17.4539 22.2609 17.4539 24.2124C17.4539 26.162 15.8771 27.7446 13.9305 27.7446C11.9858 27.7446 10.407 26.162 10.407 24.2124C10.407 22.2628 11.9858 20.6801 13.9305 20.6801ZM32.5792 10.2669C32.5792 10.2669 24.4842 14.7572 23.4748 15.3447V15.3428C22.574 15.8671 22.2209 15.8069 21.7388 15.7247C21.6808 15.7147 21.6208 15.7045 21.5578 15.695C21.1049 15.6264 21.1937 15.1742 21.1937 15.1742C21.1937 15.1742 24.9703 13.4637 25.9945 12.9652C27.0186 12.4666 31.8176 10.1927 31.8176 10.1927L32.5792 10.2669ZM45.1466 20.6801C47.0913 20.6801 48.67 22.2609 48.67 24.2124C48.67 26.162 47.0932 27.7446 45.1466 27.7446C43.2018 27.7446 41.6231 26.1638 41.6231 24.2124C41.6231 22.2628 43.2018 20.6801 45.1466 20.6801Z" fill="#6A646F"/>
<path d="M34.7162 15.7246C34.7162 15.7246 35.5388 13.447 35.927 12.9948C36.831 11.944 38.0344 11.3714 38.4116 11.7531C38.6426 11.9885 38.3894 14.066 38.162 15.6301C37.3486 15.7524 35.8541 15.7246 34.7162 15.7246Z" fill="#6A646F"/>
</svg>
