<svg width="48" height="48" viewBox="0 0 48 48" fill="none" xmlns="http://www.w3.org/2000/svg">
<path d="M33.375 7C31.2045 7 29.2145 7.68173 27.4604 9.02628C25.7787 10.3153 24.6591 11.9571 24 13.151C23.3409 11.9571 22.2213 10.3153 20.5396 9.02628C18.7855 7.68173 16.7955 7 14.625 7C8.56781 7 4 11.9106 4 18.4225C4 25.4577 9.69867 30.2711 18.3257 37.5578C19.7907 38.7953 21.4513 40.1979 23.1772 41.6938C23.4047 41.8913 23.6969 42 24 42C24.3031 42 24.5953 41.8913 24.8228 41.6939C26.5489 40.1977 28.2094 38.7952 29.6752 37.557C38.3013 30.2711 44 25.4577 44 18.4225C44 11.9106 39.4322 7 33.375 7Z" fill="#E8BE5D"/>
</svg>
