<svg width="291" height="130" viewBox="0 0 291 130" fill="none" xmlns="http://www.w3.org/2000/svg">
<mask id="path-1-inside-1_50_1131" fill="white">
<path fill-rule="evenodd" clip-rule="evenodd" d="M277 0H9C4.02944 0 0 4.02944 0 9V100C0 107.732 6.268 114 14 114H44.4001C46.2532 123.129 54.3242 130 64 130C73.6758 130 81.7468 123.129 83.5999 114H208.39C210.197 123.129 218.066 130 227.5 130C236.934 130 244.803 123.129 246.61 114H282C286.971 114 291 109.971 291 105V14C291 6.26802 284.732 0 277 0ZM247 110H282C284.761 110 287 107.761 287 105V14C287 8.47715 282.523 4 277 4H9C6.23858 4 4 6.23858 4 9V100C4 105.523 8.47714 110 14 110H44C44 98.9543 52.9543 90 64 90C75.0457 90 84 98.9543 84 110H208C208 98.9543 216.73 90 227.5 90C238.27 90 247 98.9543 247 110Z"/>
</mask>
<path d="M44.4001 114L48.3201 113.204L47.6697 110H44.4001V114ZM83.5999 114V110H80.3303L79.6799 113.204L83.5999 114ZM208.39 114L212.314 113.223L211.676 110H208.39V114ZM246.61 114V110H243.324L242.686 113.223L246.61 114ZM247 110H243V114H247V110ZM44 110V114H48V110H44ZM84 110H80V114H84V110ZM208 110V114H212V110H208ZM9 4H277V-4H9V4ZM4 9C4 6.23858 6.23858 4 9 4V-4C1.8203 -4 -4 1.8203 -4 9H4ZM4 100V9H-4V100H4ZM14 110C8.47715 110 4 105.523 4 100H-4C-4 109.941 4.05886 118 14 118V110ZM44.4001 110H14V118H44.4001V110ZM40.48 114.796C42.7041 125.752 52.3843 134 64 134V126C56.264 126 49.8022 120.506 48.3201 113.204L40.48 114.796ZM64 134C75.6156 134 85.2959 125.752 87.52 114.796L79.6799 113.204C78.1978 120.506 71.736 126 64 126V134ZM208.39 110H83.5999V118H208.39V110ZM204.466 114.777C206.623 125.673 216.051 134 227.5 134V126C220.082 126 213.771 120.585 212.314 113.223L204.466 114.777ZM227.5 134C238.949 134 248.377 125.673 250.534 114.777L242.686 113.223C241.229 120.585 234.918 126 227.5 126V134ZM282 110H246.61V118H282V110ZM287 105C287 107.761 284.761 110 282 110V118C289.18 118 295 112.18 295 105H287ZM287 14V105H295V14H287ZM277 4C282.523 4 287 8.47715 287 14H295C295 4.05888 286.941 -4 277 -4V4ZM247 114H282V106H247V114ZM282 114C286.971 114 291 109.971 291 105H283C283 105.552 282.552 106 282 106V114ZM291 105V14H283V105H291ZM291 14C291 6.26802 284.732 0 277 0V8C280.314 8 283 10.6863 283 14H291ZM277 0H9V8H277V0ZM9 0C4.02944 0 0 4.02944 0 9H8C8 8.44772 8.44771 8 9 8V0ZM0 9V100H8V9H0ZM0 100C0 107.732 6.268 114 14 114V106C10.6863 106 8 103.314 8 100H0ZM14 114H44V106H14V114ZM64 86C50.7452 86 40 96.7452 40 110H48C48 101.163 55.1634 94 64 94V86ZM88 110C88 96.7452 77.2548 86 64 86V94C72.8366 94 80 101.163 80 110H88ZM84 114H208V106H84V114ZM227.5 86C214.426 86 204 96.8412 204 110H212C212 101.067 219.034 94 227.5 94V86ZM251 110C251 96.8412 240.574 86 227.5 86V94C235.966 94 243 101.067 243 110H251Z" fill="#D4AA49" mask="url(#path-1-inside-1_50_1131)"/>
</svg>
