<svg width="291" height="132" viewBox="0 0 291 132" fill="none" xmlns="http://www.w3.org/2000/svg">
<path d="M289 131H290V130V5C290 2.78789 288.199 1 285.993 1C283.787 1 281.986 2.78789 281.986 5V11.3924H276.598V10.1962C276.598 7.98707 274.807 6.19621 272.598 6.19621H242C239.791 6.19621 238 7.98708 238 10.1962V32.429C238 34.6381 239.791 36.429 242 36.429H272.598C274.807 36.429 276.598 34.6381 276.598 32.429V31.2327H281.986V127H2H1V128V130V131H2H282.986H289ZM281.986 16.5101V26.115H276.598V16.5101H281.986Z" stroke="#D4AA49" stroke-width="2"/>
</svg>
