<svg width="32" height="72" viewBox="0 0 32 72" fill="none" xmlns="http://www.w3.org/2000/svg">
<path d="M16 18C20.9706 18 25 13.9706 25 9C25 4.02944 20.9706 0 16 0C11.0294 0 7 4.02944 7 9C7 13.9706 11.0294 18 16 18Z" fill="#E8BE5D"/>
<path d="M26.2304 20H15.0005H5.77054C2.58384 20 0 22.6509 0 25.9226V39.3169C0 42.5866 2.58384 45.2405 5.76859 45.2405H7.16911V67.4339C7.16911 69.9548 9.15982 72 11.618 72H20.38C22.8373 72 24.8289 69.9548 24.8289 67.4339V45.2405H26.2304C29.4152 45.2405 32 42.5876 32 39.3169V25.9226C32.001 22.6509 29.4162 20 26.2304 20Z" fill="#E8BE5D"/>
</svg>
