<svg width="48" height="48" viewBox="0 0 48 48" fill="none" xmlns="http://www.w3.org/2000/svg">
<path d="M23.9999 33.1667C26.0833 33.1667 27.8541 32.4375 29.3124 30.9792C30.7708 29.5208 31.4999 27.75 31.4999 25.6667C31.4999 23.5833 30.7708 21.8125 29.3124 20.3542C27.8541 18.8958 26.0833 18.1667 23.9999 18.1667C21.9166 18.1667 20.1458 18.8958 18.6874 20.3542C17.2291 21.8125 16.4999 23.5833 16.4999 25.6667C16.4999 27.75 17.2291 29.5208 18.6874 30.9792C20.1458 32.4375 21.9166 33.1667 23.9999 33.1667ZM23.9999 29.8333C22.8333 29.8333 21.8471 29.4306 21.0416 28.625C20.236 27.8194 19.8333 26.8333 19.8333 25.6667C19.8333 24.5 20.236 23.5139 21.0416 22.7083C21.8471 21.9028 22.8333 21.5 23.9999 21.5C25.1666 21.5 26.1527 21.9028 26.9583 22.7083C27.7638 23.5139 28.1666 24.5 28.1666 25.6667C28.1666 26.8333 27.7638 27.8194 26.9583 28.625C26.1527 29.4306 25.1666 29.8333 23.9999 29.8333ZM10.6666 39C9.74992 39 8.9652 38.6736 8.31242 38.0208C7.65964 37.3681 7.33325 36.5833 7.33325 35.6667V15.6667C7.33325 14.75 7.65964 13.9653 8.31242 13.3125C8.9652 12.6597 9.74992 12.3333 10.6666 12.3333H15.9166L17.9999 10.0833C18.3055 9.75 18.6735 9.48611 19.1041 9.29167C19.5346 9.09722 19.986 9 20.4583 9H27.5416C28.0138 9 28.4652 9.09722 28.8958 9.29167C29.3263 9.48611 29.6944 9.75 29.9999 10.0833L32.0833 12.3333H37.3333C38.2499 12.3333 39.0346 12.6597 39.6874 13.3125C40.3402 13.9653 40.6666 14.75 40.6666 15.6667V35.6667C40.6666 36.5833 40.3402 37.3681 39.6874 38.0208C39.0346 38.6736 38.2499 39 37.3333 39H10.6666ZM10.6666 35.6667H37.3333V15.6667H30.5833L27.5416 12.3333H20.4583L17.4166 15.6667H10.6666V35.6667Z" fill="#2F469C"/>
</svg>
