<svg width="48" height="48" viewBox="0 0 48 48" fill="none" xmlns="http://www.w3.org/2000/svg">
<path d="M5.66675 39V30.6667H9.00008V35.6667H14.0001V39H5.66675ZM34.0001 39V35.6667H39.0001V30.6667H42.3334V39H34.0001ZM10.6667 34V14H14.0001V34H10.6667ZM15.6667 34V14H17.3334V34H15.6667ZM20.6667 34V14H24.0001V34H20.6667ZM25.6667 34V14H30.6667V34H25.6667ZM32.3334 34V14H34.0001V34H32.3334ZM35.6667 34V14H37.3334V34H35.6667ZM5.66675 17.3333V9H14.0001V12.3333H9.00008V17.3333H5.66675ZM39.0001 17.3333V12.3333H34.0001V9H42.3334V17.3333H39.0001Z" fill="#2F469C"/>
</svg>
