<svg width="186" height="225" viewBox="0 0 186 225" fill="none" xmlns="http://www.w3.org/2000/svg">
<path d="M2.04188 11.3214L2.0246 11.1479C2.153 11.009 2.41471 10.7896 2.8903 10.5147C3.91368 9.92313 5.55252 9.28606 7.84703 8.64441C12.4051 7.36976 19.0955 6.19899 27.474 5.20798C44.2039 3.22917 67.3718 2 93 2C118.628 2 141.796 3.22917 158.526 5.20798C166.905 6.19899 173.595 7.36976 178.153 8.64441C180.447 9.28606 182.086 9.92313 183.11 10.5147C183.585 10.7896 183.847 11.009 183.975 11.1479L183.958 11.3214L183.807 12.8371C183.674 14.1655 183.48 16.1154 183.231 18.6015C182.733 23.5736 182.018 30.6902 181.151 39.2676C179.417 56.4226 177.073 79.4204 174.636 102.793C172.198 126.166 169.668 149.909 167.56 168.557C166.505 177.881 165.557 185.925 164.78 192.008C163.994 198.16 163.399 202.158 163.06 203.515C162.481 205.829 160.552 208.281 156.964 210.681C153.405 213.062 148.433 215.241 142.218 217.082C129.8 220.762 112.752 223 93 223C73.2476 223 56.1999 220.762 43.7816 217.082C37.5671 215.241 32.5947 213.062 29.0358 210.681C25.4476 208.281 23.5189 205.829 22.9403 203.515C22.601 202.158 22.0064 198.16 21.2202 192.008C20.4427 185.925 19.4948 177.881 18.4405 168.557C16.3321 149.909 13.8015 126.166 11.3642 102.793C8.927 79.4204 6.58348 56.4226 4.84923 39.2676C3.98211 30.6902 3.26733 23.5736 2.76934 18.6015C2.52034 16.1154 2.32554 14.1655 2.193 12.8371L2.04188 11.3214Z" stroke="#D4AA49" stroke-width="4"/>
</svg>
