<svg width="287" height="128" viewBox="0 0 287 128" fill="none" xmlns="http://www.w3.org/2000/svg">
<mask id="path-1-inside-1_1_5158" fill="white">
<path fill-rule="evenodd" clip-rule="evenodd" d="M275 0H7C3.13401 0 0 3.13401 0 7V98C0 104.627 5.37257 110 12 110H42.0988C43.1022 120.107 51.6293 128 62 128C72.3707 128 80.8978 120.107 81.9013 110H206.096C207.075 120.107 215.389 128 225.5 128C235.611 128 243.925 120.107 244.904 110H280C283.866 110 287 106.866 287 103V12C287 5.37259 281.627 0 275 0ZM245 108H280C282.761 108 285 105.761 285 103V12C285 6.47715 280.523 2 275 2H7C4.23858 2 2 4.23858 2 7V98C2 103.523 6.47714 108 12 108H42C42 96.9543 50.9543 88 62 88C73.0457 88 82 96.9543 82 108H206C206 96.9543 214.73 88 225.5 88C236.27 88 245 96.9543 245 108Z"/>
</mask>
<path d="M42.0988 110L44.089 109.802L43.91 108H42.0988V110ZM81.9013 110V108H80.09L79.911 109.802L81.9013 110ZM206.096 110L208.087 109.807L207.912 108H206.096V110ZM244.904 110V108H243.088L242.913 109.807L244.904 110ZM245 108H243V110H245V108ZM42 108V110H44V108H42ZM82 108H80V110H82V108ZM206 108V110H208V108H206ZM7 2H275V-2H7V2ZM2 7C2 4.23858 4.23858 2 7 2V-2C2.02944 -2 -2 2.02944 -2 7H2ZM2 98V7H-2V98H2ZM12 108C6.47715 108 2 103.523 2 98H-2C-2 105.732 4.268 112 12 112V108ZM42.0988 108H12V112H42.0988V108ZM40.1085 110.198C41.2125 121.317 50.591 130 62 130V126C52.6676 126 44.9919 118.896 44.089 109.802L40.1085 110.198ZM62 130C73.409 130 82.7875 121.317 83.8915 110.198L79.911 109.802C79.0081 118.896 71.3324 126 62 126V130ZM206.096 108H81.9013V112H206.096V108ZM204.106 110.193C205.178 121.273 214.308 130 225.5 130V126C216.469 126 208.971 118.94 208.087 109.807L204.106 110.193ZM225.5 130C236.692 130 245.822 121.273 246.894 110.193L242.913 109.807C242.029 118.94 234.531 126 225.5 126V130ZM280 108H244.904V112H280V108ZM285 103C285 105.761 282.761 108 280 108V112C284.971 112 289 107.971 289 103H285ZM285 12V103H289V12H285ZM275 2C280.523 2 285 6.47715 285 12H289C289 4.26802 282.732 -2 275 -2V2ZM245 110H280V106H245V110ZM280 110C283.866 110 287 106.866 287 103H283C283 104.657 281.657 106 280 106V110ZM287 103V12H283V103H287ZM287 12C287 5.37258 281.627 0 275 0V4C279.418 4 283 7.58172 283 12H287ZM275 0H7V4H275V0ZM7 0C3.13401 0 0 3.13401 0 7H4C4 5.34315 5.34315 4 7 4V0ZM0 7V98H4V7H0ZM0 98C0 104.627 5.37257 110 12 110V106C7.58172 106 4 102.418 4 98H0ZM12 110H42V106H12V110ZM62 86C49.8497 86 40 95.8497 40 108H44C44 98.0589 52.0589 90 62 90V86ZM84 108C84 95.8497 74.1503 86 62 86V90C71.9411 90 80 98.0589 80 108H84ZM82 110H206V106H82V110ZM225.5 86C213.578 86 204 95.8978 204 108H208C208 98.0108 215.882 90 225.5 90V86ZM247 108C247 95.8978 237.422 86 225.5 86V90C235.118 90 243 98.0108 243 108H247Z" fill="#8797C8" mask="url(#path-1-inside-1_1_5158)"/>
</svg>
