<svg width="289" height="130" viewBox="0 0 289 130" fill="none" xmlns="http://www.w3.org/2000/svg">
<path d="M1 129.5H0.5V129V4C0.5 2.06552 2.07535 0.5 4.00687 0.5C5.93839 0.5 7.51373 2.06552 7.51373 4V10.8924H13.9021V9.19621C13.9021 7.26322 15.4691 5.69621 17.4021 5.69621H48C49.933 5.69621 51.5 7.26322 51.5 9.19621V31.429C51.5 33.362 49.933 34.929 48 34.929H17.4021C15.4691 34.929 13.9021 33.362 13.9021 31.429V29.7327H7.51373V126.5H288H288.5V127V129V129.5H288H7.01373H1ZM7.51373 15.0101V25.615H13.9021V15.0101H7.51373Z" stroke="#8797C8"/>
</svg>
