<svg width="299" height="162" viewBox="0 0 299 162" fill="none" xmlns="http://www.w3.org/2000/svg">
<g filter="url(#filter0_dd_50_4288)">
<rect width="295" height="136" transform="translate(2 13)" fill="white"/>
<path d="M6 145.5H5.5V145V20C5.5 18.0655 7.07535 16.5 9.00687 16.5C10.9384 16.5 12.5137 18.0655 12.5137 20V26.8924H18.9021V25.1962C18.9021 23.2632 20.4691 21.6962 22.4021 21.6962H53C54.933 21.6962 56.5 23.2632 56.5 25.1962V47.429C56.5 49.362 54.933 50.929 53 50.929H22.4021C20.4691 50.929 18.9021 49.362 18.9021 47.429V45.7327H12.5137V142.5H293H293.5V143V145V145.5H293H12.0137H6ZM12.5137 31.0101V41.615H18.9021V31.0101H12.5137Z" stroke="#8797C8"/>
<path d="M40 87C44.9706 87 49 82.9706 49 78C49 73.0294 44.9706 69 40 69C35.0294 69 31 73.0294 31 78C31 82.9706 35.0294 87 40 87Z" fill="#B4BDDB"/>
<path d="M50.2304 89H39.0005H29.7705C26.5838 89 24 91.6509 24 94.9226V108.317C24 111.587 26.5838 114.241 29.7686 114.241H31.1691V136.434C31.1691 138.955 33.1598 141 35.618 141H44.38C46.8373 141 48.8289 138.955 48.8289 136.434V114.241H50.2304C53.4152 114.241 56 111.588 56 108.317V94.9226C56.001 91.6509 53.4162 89 50.2304 89Z" fill="#B4BDDB"/>
<path d="M95 87C99.9706 87 104 82.9706 104 78C104 73.0294 99.9706 69 95 69C90.0294 69 86 73.0294 86 78C86 82.9706 90.0294 87 95 87Z" fill="#B4BDDB"/>
<path d="M105.23 89H94.0005H84.7705C81.5838 89 79 91.6509 79 94.9226V108.317C79 111.587 81.5838 114.241 84.7686 114.241H86.1691V136.434C86.1691 138.955 88.1598 141 90.618 141H99.38C101.837 141 103.829 138.955 103.829 136.434V114.241H105.23C108.415 114.241 111 111.588 111 108.317V94.9226C111.001 91.6509 108.416 89 105.23 89Z" fill="#B4BDDB"/>
<path d="M150 87C154.971 87 159 82.9706 159 78C159 73.0294 154.971 69 150 69C145.029 69 141 73.0294 141 78C141 82.9706 145.029 87 150 87Z" fill="#B4BDDB"/>
<path d="M160.23 89H149H139.771C136.584 89 134 91.6509 134 94.9226V108.317C134 111.587 136.584 114.241 139.769 114.241H141.169V136.434C141.169 138.955 143.16 141 145.618 141H154.38C156.837 141 158.829 138.955 158.829 136.434V114.241H160.23C163.415 114.241 166 111.588 166 108.317V94.9226C166.001 91.6509 163.416 89 160.23 89Z" fill="#B4BDDB"/>
<path d="M205 87C209.971 87 214 82.9706 214 78C214 73.0294 209.971 69 205 69C200.029 69 196 73.0294 196 78C196 82.9706 200.029 87 205 87Z" fill="#B4BDDB"/>
<path d="M215.23 89H204H194.771C191.584 89 189 91.6509 189 94.9226V108.317C189 111.587 191.584 114.241 194.769 114.241H196.169V136.434C196.169 138.955 198.16 141 200.618 141H209.38C211.837 141 213.829 138.955 213.829 136.434V114.241H215.23C218.415 114.241 221 111.588 221 108.317V94.9226C221.001 91.6509 218.416 89 215.23 89Z" fill="#B4BDDB"/>
<path d="M260 87C264.971 87 269 82.9706 269 78C269 73.0294 264.971 69 260 69C255.029 69 251 73.0294 251 78C251 82.9706 255.029 87 260 87Z" fill="#B4BDDB"/>
<path d="M270.23 89H259H249.771C246.584 89 244 91.6509 244 94.9226V108.317C244 111.587 246.584 114.241 249.769 114.241H251.169V136.434C251.169 138.955 253.16 141 255.618 141H264.38C266.837 141 268.829 138.955 268.829 136.434V114.241H270.23C273.415 114.241 276 111.588 276 108.317V94.9226C276.001 91.6509 273.416 89 270.23 89Z" fill="#B4BDDB"/>
</g>
<defs>
<filter id="filter0_dd_50_4288" x="0" y="0" width="299" height="162" filterUnits="userSpaceOnUse" color-interpolation-filters="sRGB">
<feFlood flood-opacity="0" result="BackgroundImageFix"/>
<feColorMatrix in="SourceAlpha" type="matrix" values="0 0 0 0 0 0 0 0 0 0 0 0 0 0 0 0 0 0 127 0" result="hardAlpha"/>
<feMorphology radius="9" operator="erode" in="SourceAlpha" result="effect1_dropShadow_50_4288"/>
<feOffset dy="11"/>
<feGaussianBlur stdDeviation="5.5"/>
<feComposite in2="hardAlpha" operator="out"/>
<feColorMatrix type="matrix" values="0 0 0 0 0 0 0 0 0 0 0 0 0 0 0 0 0 0 0.25 0"/>
<feBlend mode="normal" in2="BackgroundImageFix" result="effect1_dropShadow_50_4288"/>
<feColorMatrix in="SourceAlpha" type="matrix" values="0 0 0 0 0 0 0 0 0 0 0 0 0 0 0 0 0 0 127 0" result="hardAlpha"/>
<feMorphology radius="9" operator="erode" in="SourceAlpha" result="effect2_dropShadow_50_4288"/>
<feOffset dy="-11"/>
<feGaussianBlur stdDeviation="5.5"/>
<feComposite in2="hardAlpha" operator="out"/>
<feColorMatrix type="matrix" values="0 0 0 0 0.191667 0 0 0 0 0.179688 0 0 0 0 0.180191 0 0 0 0.25 0"/>
<feBlend mode="normal" in2="effect1_dropShadow_50_4288" result="effect2_dropShadow_50_4288"/>
<feBlend mode="normal" in="SourceGraphic" in2="effect2_dropShadow_50_4288" result="shape"/>
</filter>
</defs>
</svg>
