<svg width="55" height="72" viewBox="0 0 55 72" fill="none" xmlns="http://www.w3.org/2000/svg">
<path d="M28 18C32.9706 18 37 13.9706 37 9C37 4.02944 32.9706 0 28 0C23.0294 0 19 4.02944 19 9C19 13.9706 23.0294 18 28 18Z" fill="#449B9B"/>
<path d="M38.2304 20H27.0005H17.7705C14.5838 20 12 22.6509 12 25.9226V39.3169C12 42.5866 14.5838 45.2405 17.7686 45.2405H19.1691V67.4339C19.1691 69.9548 21.1598 72 23.618 72H32.38C34.8373 72 36.8289 69.9548 36.8289 67.4339V45.2405H38.2304C41.4152 45.2405 44 42.5876 44 39.3169V25.9226C44.001 22.6509 41.4162 20 38.2304 20Z" fill="#449B9B"/>
</svg>
