<svg width="186" height="225" viewBox="0 0 186 225" fill="none" xmlns="http://www.w3.org/2000/svg">
<path d="M90.6645 224.991C80.2862 224.991 64.4612 224.422 58.8791 221.197C57.827 220.666 56.8917 219.929 56.1285 219.031C55.3653 218.133 54.7895 217.091 54.4351 215.967C53.5951 212.878 43 56.7964 43 55.6312C43 52.2169 43.7587 34.8474 44.2736 23.331C44.4904 18.7515 44.6259 15.2017 44.68 14.172C44.68 11.9839 46.015 10.8986 49.4554 8.96992C49.6486 8.86162 49.8596 8.78402 50.0766 8.73997C78.3843 2.99424 107.722 2.97252 136.025 8.74042C136.241 8.78434 136.449 8.86125 136.641 8.96873C140.086 10.8982 141.447 11.9834 141.527 14.172C141.527 15.2288 141.716 18.7515 141.933 23.331C142.448 34.8474 143.207 52.2169 143.207 55.6312C143.207 56.7964 132.611 212.797 131.771 215.967C131.417 217.091 130.841 218.133 130.078 219.031C129.315 219.929 128.38 220.666 127.327 221.197C121.285 224.693 103.292 225.072 93.0762 224.991H90.6645ZM59.7192 214.748C59.7192 214.748 59.9359 215.479 61.5889 216.455C65.0845 218.46 77.1429 219.652 93.0762 219.517C109.01 219.381 121.122 218.46 124.618 216.455C126.271 215.479 126.46 214.721 126.542 214.477C127.111 210.222 137.787 60.021 137.787 55.577C137.787 52.2711 137.001 34.2783 136.513 23.5206C136.456 22.1153 136.4 20.8108 136.351 19.6457C136.307 18.6275 136.268 17.7156 136.235 16.9359C136.182 15.6834 136.146 14.7717 136.134 14.3075C136.134 13.9823 136.134 13.7113 136.134 13.4946C107.717 8.12262 78.5442 8.12262 50.1266 13.4946C50.1266 13.7113 50.1266 13.9823 50.1266 14.3075C50.1266 14.7717 50.0918 15.6834 50.0372 16.9359C50.0031 17.7156 49.9614 18.6275 49.9155 19.6457C49.863 20.8108 49.8051 22.1153 49.7473 23.5206C49.2595 34.3596 48.4737 52.2711 48.4737 55.577C48.4737 59.9939 59.1501 210.222 59.7734 214.748H59.7192Z" fill="#002554"/>
<path d="M136.235 16.9359C107.753 22.3081 78.5187 22.3081 50.0372 16.9359C50.0031 17.7156 49.9614 18.6275 49.9155 19.6457C78.4748 25.0173 107.791 25.0181 136.351 19.6457C136.307 18.6275 136.268 17.7156 136.235 16.9359Z" fill="#002554"/>
</svg>
