<svg width="186" height="225" viewBox="0 0 186 225" fill="none" xmlns="http://www.w3.org/2000/svg">
<path d="M153.72 27.6036L153.716 27.5977L148.971 19.6667H37.0295L32.2842 27.5977L32.2806 27.6036C28.3919 34.0785 26.3363 41.4887 26.3337 49.0417L153.72 27.6036ZM153.72 27.6036C157.609 34.0785 159.664 41.4887 159.667 49.0417M153.72 27.6036L159.667 49.0417M153.718 209.9L153.72 209.896C157.609 203.421 159.664 196.011 159.667 188.458L153.718 209.9ZM153.718 209.9L147.176 220.817L147.171 220.825M153.718 209.9L147.171 220.825M147.171 220.825L147.166 220.833M147.171 220.825L147.166 220.833M147.166 220.833L38.8344 220.833L38.8294 220.825M147.166 220.833L38.8294 220.825M38.8294 220.825L38.8244 220.817M38.8294 220.825L38.8244 220.817M38.8244 220.817L32.2827 209.9L32.2806 209.896M38.8244 220.817L32.2806 209.896M32.2806 209.896C28.3919 203.421 26.3363 196.011 26.3337 188.458M32.2806 209.896L26.3337 188.458M159.667 49.0417C159.667 49.0421 159.667 49.0425 159.667 49.043M159.667 49.0417V49.043M159.667 49.043V188.457V49.043ZM26.3337 188.458C26.3337 188.458 26.3337 188.457 26.3337 188.457M26.3337 188.458V188.457M26.3337 188.457V49.043V188.457ZM147.167 11.3333H38.8337V4.16667H147.167V11.3333Z" stroke="#002554" stroke-width="8.33333"/>
</svg>
