<svg width="186" height="225" viewBox="0 0 186 225" fill="none" xmlns="http://www.w3.org/2000/svg">
<path fill-rule="evenodd" clip-rule="evenodd" d="M164.097 54.6815L176.377 155.282C177.27 162.579 174.986 169.923 170.111 175.427C165.238 180.934 158.226 184.091 150.873 184.091H127.436V206.95C129.551 207.572 131.407 208.909 131.525 211.237C131.662 213.996 131.525 217.443 131.525 217.443L131.493 218.264L130.981 218.905C129.529 220.739 120.754 225 70.793 225C20.8318 225 12.0575 220.739 10.6045 218.905L10.0931 218.264L10.0612 217.443C10.0612 217.443 9.92351 213.996 10.0612 211.237C10.1792 208.909 12.0353 207.572 14.1496 206.95V4.09091C14.1496 1.11369 14.1496 0 70.793 0C127.436 0 127.436 1.11369 127.436 4.09091V32.0979H138.593C151.564 32.0979 162.529 41.8064 164.097 54.6815ZM70.793 7.68766C99.3559 7.68766 112.501 6.70366 118.572 5.85456C112.335 5.4735 99.0523 5.03497 70.793 5.03497C42.5337 5.03497 29.2505 5.4735 23.0143 5.85456C29.0846 6.70366 42.2301 7.68766 70.793 7.68766ZM70.793 219.965C112.071 219.965 123.672 216.941 126.534 215.837C126.554 214.795 126.566 213.325 126.517 211.963C126.165 211.81 125.564 211.675 125.019 211.61C122.143 212.211 105.457 215.35 70.793 215.35C36.1158 215.35 19.4314 212.209 16.5636 211.609C16.0236 211.674 15.4219 211.81 15.0691 211.963C15.0175 213.381 15.0322 214.918 15.0544 215.965C17.3334 216.784 28.4457 219.965 70.793 219.965ZM127.436 57.526V161.225H144.447C146.762 161.225 148.894 160.281 150.448 158.565C152.004 156.848 152.734 154.636 152.508 152.33L143.879 64.8301C143.471 60.6654 140.004 57.526 135.82 57.526H127.436ZM150.873 179.056C156.783 179.056 162.423 176.516 166.342 172.091C170.261 167.663 172.097 161.761 171.382 155.892L159.102 55.2912C157.838 44.9385 149.022 37.1329 138.593 37.1329H122.401V7.70303C115.447 9.32655 97.6021 10.2051 70.793 10.2051C43.9839 10.2051 26.1393 9.32655 19.1846 7.70303V127.991V196.135V206.978C24.529 207.92 41.0451 210.316 70.793 210.316C100.553 210.316 117.073 207.918 122.41 206.977L122.407 196.121L122.405 179.056H124.078H150.873ZM124.078 166.26H144.447C148.147 166.26 151.694 164.689 154.18 161.945C156.663 159.204 157.882 155.521 157.518 151.838L148.889 64.3359C148.225 57.5825 142.608 52.491 135.82 52.491H122.401V127.995L122.404 166.26H124.078Z" fill="#002554"/>
</svg>
