<svg width="186" height="225" viewBox="0 0 186 225" fill="none" xmlns="http://www.w3.org/2000/svg">
<path d="M110.465 77.506L110.665 79.5984L112.579 80.4661C114.267 81.2312 117.275 82.8106 120.273 85.4241C126.205 90.5952 129.29 97.3533 129.291 105.104C129.291 105.104 129.291 105.104 129.291 105.104V117.611V120.299V180.591V183.279V207.569C129.291 215.333 123.289 221.371 116.26 221.371H69.7456C62.7131 221.371 56.7101 215.332 56.7101 207.569V183.279V180.591V120.299V117.611V105.104C56.7101 97.3534 59.7954 90.5951 65.7271 85.424C68.725 82.8108 71.7328 81.2318 73.4218 80.4658L75.3353 79.5979L75.5354 77.5063L81.3353 16.8669L81.5255 14.8785H104.48L104.67 16.8666L110.465 77.506Z" stroke="#002554" stroke-width="7.25806"/>
</svg>
