<svg width="186" height="225" viewBox="0 0 186 225" fill="none" xmlns="http://www.w3.org/2000/svg">
<path d="M60.2545 215.123C59.3204 216.138 58.772 217.448 58.7051 218.826C58.7051 221.096 60.4679 222.475 70.0941 223.712C77.6962 224.607 85.3458 225.036 93.0003 224.998C100.655 225.036 108.304 224.607 115.906 223.712C125.532 222.475 127.295 221.096 127.295 218.826C127.228 217.448 126.68 216.137 125.746 215.121C124.112 213.121 121.822 211.764 119.283 211.291C118.714 211.169 117.835 211.055 116.751 210.922C112.577 210.652 108.497 209.562 104.745 207.713C101.617 205.78 99.3287 197.444 98.9256 190.502C98.0105 174.645 99.4897 138.072 100.36 126.878C100.913 122.369 102.556 118.062 105.146 114.329C109.35 106.994 115.108 96.9494 119.124 72.9291C123.492 46.8125 118.877 7.50912 118.504 4.4183C118.486 2.60487 117.836 0 93.0003 0C68.1647 0 67.5145 2.60487 67.4965 4.41946C67.1228 7.51028 62.5094 46.8136 66.8757 72.9303C70.8921 96.9505 76.6501 106.995 80.8543 114.33C83.4443 118.063 85.0869 122.37 85.6405 126.879C86.5104 138.073 87.9896 174.647 87.0745 190.502C86.6713 197.445 84.3838 205.78 81.2552 207.713C77.5034 209.562 73.4236 210.652 69.2496 210.922C68.1647 211.055 67.2858 211.169 66.7171 211.291C64.1775 211.764 61.8878 213.121 60.2545 215.123ZM93.0003 4.63913C100.03 4.44357 107.064 4.89133 114.012 5.97682C114.035 6.17236 114.059 6.39805 114.086 6.64091C107.109 7.69423 100.054 8.13894 93.0003 7.97002C85.9468 8.13888 78.8919 7.69417 71.9154 6.64091C71.9421 6.39805 71.9672 6.17213 71.9892 5.97682C78.9375 4.89139 85.9705 4.44363 93.0003 4.63913ZM67.7003 215.826C68.1738 215.723 68.9077 215.638 69.8137 215.527C74.6559 215.202 79.3798 213.886 83.6926 211.66C89.2595 208.222 91.349 196.911 91.7046 190.771C92.6324 174.723 91.1428 137.807 90.2664 126.519C89.684 121.319 87.8343 116.343 84.8797 112.025C80.8499 104.994 75.3319 95.3656 71.4518 72.1653C67.9147 51.0128 70.5508 19.9056 71.6763 8.89738C74.7112 9.64613 80.7957 10.2903 93.0005 10.2903C105.205 10.2903 111.29 9.64613 114.325 8.89738C115.45 19.9042 118.088 51.0042 114.549 72.1653C110.669 95.3656 105.151 104.994 101.121 112.025C98.1667 116.343 96.317 121.319 95.7346 126.519C94.858 137.806 93.3686 174.722 94.2964 190.771C94.652 196.91 96.7406 208.221 102.308 211.659C106.621 213.885 111.345 215.202 116.187 215.527C117.093 215.638 117.827 215.723 118.301 215.826C119.744 216.063 121.06 216.796 122.02 217.9C112.465 219.769 102.734 220.593 93.0003 220.358C83.2666 220.593 73.5363 219.769 63.9809 217.9C64.9414 216.796 66.2569 216.063 67.7003 215.826Z" fill="#002554"/>
</svg>
