<svg width="186" height="225" viewBox="0 0 186 225" fill="none" xmlns="http://www.w3.org/2000/svg">
<path fill-rule="evenodd" clip-rule="evenodd" d="M107.383 38.3444C107.376 60.0383 113.496 81.2965 125.044 99.6895C137.315 119.236 143.819 141.827 143.812 164.881V210.484C143.807 214.332 142.271 218.022 139.539 220.744C136.807 223.465 133.103 224.996 129.24 225H56.383C52.5197 224.996 48.8159 223.465 46.0842 220.744C43.3525 218.022 41.8159 214.332 41.8115 210.484V164.881C41.8045 141.827 48.3083 119.236 60.5795 99.6895C72.1267 81.2965 78.2467 60.0383 78.2401 38.3444V24.4211C77.134 23.7849 76.2151 22.8702 75.5758 21.7687C74.9364 20.6672 74.5989 19.4176 74.5972 18.1452V7.25806C74.5995 5.33381 75.3679 3.48901 76.7337 2.12836C78.0995 0.7677 79.9514 0.002281 81.8829 0H103.74C105.672 0.002281 107.524 0.7677 108.889 2.12836C110.255 3.48901 111.024 5.33381 111.026 7.25806V18.1452C111.024 19.4176 110.687 20.6672 110.047 21.7687C109.408 22.8702 108.489 23.7849 107.383 24.4211V38.3444ZM72.1028 94.1212C70.4647 97.3296 68.6831 100.468 66.7578 103.536C58.7783 116.249 53.3568 130.387 50.7953 145.161C47.5 157 49.095 188.591 49.0972 203.226V210.484C49.0995 212.408 49.8679 214.253 51.2337 215.614C52.5995 216.974 54.4514 217.74 56.383 217.742H129.24C131.172 217.74 133.023 216.974 134.389 215.614C135.755 214.253 136.524 212.408 136.526 210.484V203.226C136.736 188.925 138 157.5 134.828 145.161C132.266 130.386 126.844 116.248 118.864 103.534C116.939 100.465 115.157 97.3269 113.52 94.1212C112.693 94.5209 111.855 94.9028 111.003 95.2553C110.769 99.9049 108.75 104.287 105.364 107.496C101.979 110.704 97.4842 112.493 92.8111 112.493C88.1379 112.493 83.6436 110.704 80.2576 107.496C76.8717 104.287 74.8531 99.9049 74.6195 95.2553C73.7699 94.9065 72.9325 94.5213 72.1028 94.1212Z" fill="#002554"/>
</svg>
