<svg width="186" height="225" viewBox="0 0 186 225" fill="none" xmlns="http://www.w3.org/2000/svg">
<path d="M101.431 225C69.6136 225 48.7452 222.507 41.1295 217.791C40.1329 217.134 39.3047 216.252 38.7115 215.217C38.1183 214.181 37.7769 213.02 37.7147 211.828C37.3631 208.705 38.2592 205.568 40.2081 203.102C44.0023 199.497 54.4908 197.248 64.8979 195.242L67.8791 194.673C69.9118 194.239 76.5246 187.897 77.4461 178.574C77.8426 174.457 77.0531 170.312 75.1706 166.629C73.2882 162.946 70.3914 159.878 66.8221 157.787C64.112 156.188 60.8597 154.589 57.4178 152.882C45.7717 147.722 35.0933 140.609 25.8441 131.851C15.1659 121.308 10.3147 100.548 13.7566 80.1945C16.6294 63.2829 26.3319 39.5417 32.728 23.7684C34.9503 18.348 37.254 12.7108 37.6334 11.0847C37.2658 9.70024 37.2138 8.25093 37.4811 6.8437C37.7485 5.43647 38.3285 4.10724 39.1782 2.9541C39.8119 2.09651 40.6253 1.38777 41.5616 0.877495C42.4979 0.367217 43.5344 0.067732 44.5986 0H141.352C142.417 0.067732 143.453 0.367217 144.389 0.877495C145.326 1.38777 146.139 2.09651 146.773 2.9541C147.622 4.10724 148.202 5.43647 148.47 6.8437C148.737 8.25093 148.685 9.70024 148.318 11.0847C148.697 12.7108 151.028 18.3209 153.223 23.7684C159.646 39.4875 169.484 63.2829 172.194 80.1945C175.663 100.548 170.812 121.308 160.134 131.851C150.874 140.561 140.197 147.627 128.56 152.746C125.118 154.454 121.866 156.053 119.183 157.652C115.609 159.739 112.706 162.805 110.819 166.488C108.932 170.172 108.138 174.319 108.532 178.439C109.453 187.762 116.066 194.104 118.099 194.537L121.08 195.107C131.487 197.112 141.976 199.362 145.77 202.966C146.751 204.205 147.476 205.626 147.904 207.148C148.332 208.669 148.454 210.26 148.263 211.828C148.2 213.017 147.861 214.175 147.273 215.209C146.685 216.244 145.864 217.128 144.876 217.791C139.347 221.287 124.956 225 101.431 225ZM44.6799 5.47458C44.1466 5.64122 43.6933 5.99812 43.4061 6.47735C43.0854 7.02479 42.8856 7.63455 42.8201 8.26564C42.7547 8.89672 42.8251 9.53451 43.0267 10.1361C43.1588 10.6295 43.2051 11.1028 43.0267 11.9554C42.6563 13.7257 41.3176 17.1312 37.7689 25.7468C31.8336 40.4902 21.8872 64.8819 19.1228 81.1431C16.0061 99.5182 20.3424 118.815 29.6383 128.029C38.5096 136.314 48.7172 143.039 59.8299 147.922C63.3531 149.657 66.7137 151.31 69.5865 153.044C74.0397 155.66 77.653 159.493 80.0009 164.093C82.3488 168.693 83.3336 173.867 82.8394 179.008C81.7282 190.228 73.8957 198.874 68.9632 199.877L65.9549 200.391C59.8028 201.557 46.9836 204.023 44.0023 206.842C43.2472 208.261 42.9624 209.884 43.1893 211.476C43.2071 211.795 43.291 212.106 43.4357 212.391C43.5803 212.676 43.7825 212.927 44.0294 213.129C47.1191 215.054 58.9626 219.525 101.485 219.525C123.899 219.525 137.423 216.083 142.138 213.129C142.378 212.922 142.573 212.669 142.713 212.385C142.853 212.101 142.934 211.792 142.951 211.476C143.182 209.872 142.887 208.237 142.111 206.815C139.13 204.077 126.365 201.611 120.159 200.391L117.096 199.795C112.164 198.792 104.331 190.147 103.22 178.927C102.726 173.786 103.711 168.611 106.058 164.011C108.406 159.412 112.02 155.578 116.473 152.963C119.346 151.229 122.706 149.575 126.257 147.841C137.372 142.972 147.588 136.265 156.475 128.002C165.798 118.788 170.026 99.4911 166.991 81.116C164.281 64.8548 154.28 40.4631 148.345 25.801C144.796 17.096 143.453 13.7224 143.087 11.9756C142.916 11.1609 142.958 10.7001 143.087 10.2174C143.288 9.61581 143.359 8.97803 143.293 8.34695C143.228 7.71586 143.028 7.1061 142.707 6.55866C142.418 6.07054 141.952 5.71175 141.407 5.55589L44.6799 5.47458Z" fill="#002554"/>
<path d="M143.087 10.2174C110.674 16.6709 70.0207 16.0984 43.0267 10.1361C43.1588 10.6295 43.2051 11.1028 43.0267 11.9554C60.5351 18.8086 125.58 18.8086 143.087 11.9756C142.916 11.1609 142.958 10.7001 143.087 10.2174Z" fill="#002554"/>
</svg>
