<svg width="186" height="225" viewBox="0 0 186 225" fill="none" xmlns="http://www.w3.org/2000/svg">
<path fill-rule="evenodd" clip-rule="evenodd" d="M74.8118 49.7663L82.087 48.75V37.5H103.913V48.75L111.188 49.7648V37.3125C113.241 36.8776 115.085 35.7262 116.41 34.0526C117.736 32.379 118.461 30.2855 118.463 28.125V9.375C118.46 6.88947 117.501 4.50656 115.796 2.74903C114.092 0.99149 111.78 0.00285344 109.369 0H76.6306C74.2196 0.00285344 71.9081 0.99149 70.2032 2.74903C68.4984 4.50656 67.5394 6.88947 67.5366 9.375V28.125C67.539 30.2855 68.2639 32.379 69.5892 34.0526C70.9145 35.7262 72.759 36.8776 74.8118 37.3125V49.7663Z" fill="#002554"/>
<path d="M82.3392 52.379L76.1706 53.2407C75.8342 53.5268 75.5434 53.8779 75.3166 54.2821C74.9843 54.8745 74.8046 55.5546 74.8032 56.2532C74.8032 56.2539 74.8032 56.2546 74.8032 56.2554L74.8032 63.1681M82.3392 52.379L74.8032 63.172V63.1681M82.3392 52.379H103.661L109.829 53.2395C110.166 53.5257 110.456 53.8768 110.683 54.2811C111.016 54.8741 111.196 55.5552 111.196 56.2547L111.196 63.1644C111.196 63.1656 111.196 63.1669 111.196 63.1681C111.185 68.842 112.814 74.3992 115.888 79.1306C118.962 83.8627 123.347 87.5599 128.494 89.7324C128.496 89.733 128.497 89.7337 128.499 89.7343L143.724 96.1991C152.098 99.7593 159.117 106.084 163.671 114.211C168.225 122.339 170.05 131.803 168.85 141.126L159.747 211.507C159.747 211.51 159.747 211.512 159.747 211.514C159.381 214.271 158.064 216.777 156.066 218.58C154.07 220.381 151.531 221.362 148.917 221.371C148.915 221.371 148.914 221.371 148.912 221.371H37.0876C37.086 221.371 37.0843 221.371 37.0826 221.371C34.4692 221.362 31.9293 220.381 29.934 218.58C27.9357 216.777 26.618 214.27 26.2528 211.512C26.2526 211.511 26.2524 211.509 26.2522 211.508L17.1497 141.126C17.1496 141.125 17.1496 141.124 17.1495 141.124C15.9496 131.802 17.7745 122.338 22.3288 114.211C26.8822 106.084 33.9009 99.7602 42.2735 96.1998C42.2738 96.1996 42.2741 96.1995 42.2745 96.1994C42.2747 96.1993 42.275 96.1992 42.2752 96.1991L57.5009 89.7343C57.5022 89.7338 57.5036 89.7332 57.505 89.7326M82.3392 52.379L57.505 89.7326M74.8032 63.1681C74.8145 68.842 73.1852 74.3992 70.1115 79.1306C67.0372 83.8629 62.6527 87.5602 57.505 89.7326M74.8032 63.1681L57.505 89.7326M107.559 37.3125V45.5944L107.542 45.5921V37.5V33.871H103.913H82.087H78.458V37.5V45.5927L78.4408 45.5951V37.3125V34.3718L75.564 33.7623C74.3543 33.506 73.2444 32.8228 72.4343 31.7997C71.623 30.7752 71.1678 29.4774 71.1656 28.1238C71.1656 28.1229 71.1656 28.1219 71.1656 28.121V9.37904C71.1656 9.3781 71.1656 9.37716 71.1656 9.37621C71.1681 7.81781 71.7707 6.34525 72.8081 5.27581C73.842 4.20993 75.2198 3.63123 76.633 3.62903H109.367C110.78 3.63123 112.158 4.20993 113.192 5.2758C114.23 6.3459 114.832 7.81959 114.834 9.37904V28.121C114.833 29.4756 114.377 30.7745 113.565 31.7997C112.755 32.8228 111.645 33.506 110.436 33.7623L107.559 34.3718V37.3125Z" stroke="#002554" stroke-width="7.25806"/>
</svg>
