<svg width="186" height="225" viewBox="0 0 186 225" fill="none" xmlns="http://www.w3.org/2000/svg">
<path d="M122.88 209.967C122.243 209.832 121.318 209.709 120.19 209.565C115.671 209.221 111.255 208.045 107.162 206.099C104.632 204.645 102.535 202.543 101.088 200.01C99.6398 197.476 98.8932 194.603 98.9248 191.685C98.9916 186.916 99.0776 181.361 99.1693 175.57C99.3939 161.248 99.6494 145.016 99.6494 136.115C99.6494 131.461 104.87 126.931 111.481 121.197C122.921 111.274 138.588 97.6831 138.588 71.961C138.588 45.4505 128.751 9.1618 127.656 5.20674C127.545 3.20744 125.627 0 93.0003 0C60.3737 0 58.4583 3.20744 58.3458 5.20649C57.2518 9.16155 47.4121 45.4495 47.4121 71.9608C47.4121 97.6829 63.0793 111.273 74.5216 121.197C81.1326 126.931 86.3533 131.461 86.3533 136.115C86.3533 145.015 86.6089 161.247 86.8334 175.57C86.9241 181.36 87.0102 186.916 87.0779 191.685C87.1094 194.603 86.3628 197.476 84.9149 200.01C83.467 202.543 81.3701 204.645 78.8401 206.099C74.7473 208.046 70.3307 209.221 65.8118 209.566C64.6846 209.71 63.7601 209.832 63.1216 209.967C60.2885 210.459 57.7218 211.94 55.8779 214.146C54.8317 215.246 54.2133 216.683 54.1344 218.198C54.1344 220.646 56.1154 222.144 66.9358 223.531C75.586 224.55 84.2903 225.04 93.0003 224.997C101.71 225.04 110.414 224.55 119.064 223.53C129.885 222.142 131.865 220.644 131.865 218.197C131.788 216.681 131.17 215.244 130.124 214.144C128.279 211.939 125.713 210.46 122.88 209.967ZM122.5 6.80446C112.742 8.30486 102.87 8.93464 93.0003 8.68637C83.1315 8.93462 73.2603 8.30484 63.5031 6.80446C73.2566 5.26869 83.1301 4.62828 93.0003 4.89125C102.871 4.62826 112.745 5.26867 122.5 6.80446ZM93.0003 220.106C76.1626 220.106 63.7912 218.449 59.6664 217.241C60.8106 215.907 62.3934 215.025 64.1302 214.753C64.677 214.637 65.4701 214.54 66.4325 214.416C71.5734 213.998 76.5912 212.625 81.2285 210.367C84.5426 208.5 87.2903 205.772 89.181 202.472C91.0717 199.172 92.0349 195.422 91.9687 191.619C91.9019 186.845 91.8158 181.288 91.7241 175.493C91.4996 161.189 91.2441 144.977 91.2441 136.115C91.2441 129.229 84.9796 123.794 77.7264 117.502C66.3985 107.678 52.3029 95.451 52.3029 71.9608C52.3029 49.2184 60.0247 18.0269 62.4278 8.86857C68.568 10.785 83.3095 11.132 92.9981 11.132C102.687 11.132 117.43 10.785 123.571 8.86857C125.975 18.0287 133.696 49.2199 133.696 71.9608C133.696 95.451 119.6 107.678 108.275 117.502C101.022 123.794 94.7572 129.229 94.7572 136.115C94.7572 144.977 94.5016 161.189 94.2771 175.493C94.1864 181.289 94.1003 186.845 94.0326 191.619C93.9664 195.422 94.9296 199.172 96.8203 202.472C98.7109 205.772 101.459 208.5 104.773 210.367C109.41 212.625 114.428 213.998 119.569 214.416C120.531 214.54 121.324 214.636 121.871 214.753C123.608 215.025 125.19 215.907 126.335 217.241C122.214 218.448 109.84 220.106 93.0003 220.106Z" fill="#002554"/>
</svg>
