<svg width="186" height="225" viewBox="0 0 186 225" fill="none" xmlns="http://www.w3.org/2000/svg">
<path d="M126.771 47.3512L115.959 43.7471C113.499 42.9297 111.359 41.3579 109.843 39.255C108.328 37.1522 107.513 34.6252 107.516 32.033V29.0323C108.478 29.0323 109.401 28.6499 110.082 27.9693C110.763 27.2888 111.145 26.3657 111.145 25.4032V3.62903C111.145 2.66655 110.763 1.74349 110.082 1.06292C109.401 0.382343 108.478 0 107.516 0H78.4836C77.5211 0 76.598 0.382343 75.9174 1.06292C75.2369 1.74349 74.8545 2.66655 74.8545 3.62903V25.4032C74.8545 26.3657 75.2369 27.2888 75.9174 27.9693C76.598 28.6499 77.5211 29.0323 78.4836 29.0323V32.033C78.486 34.6252 77.6716 37.1522 76.1559 39.255C74.6403 41.3579 72.5005 42.9297 70.0406 43.7471L59.2279 47.3512C55.3223 48.6491 51.925 51.1447 49.5185 54.4834C47.112 57.8222 45.8187 61.8343 45.8223 65.95V212.298C45.8261 215.666 47.1655 218.894 49.5467 221.276C51.9279 223.657 55.1564 224.996 58.5239 225H127.475C130.843 224.996 134.071 223.657 136.453 221.276C138.834 218.894 140.173 215.666 140.177 212.298V65.9509C140.181 61.8351 138.888 57.8227 136.481 54.4838C134.075 51.1449 130.677 48.6492 126.771 47.3512ZM132.919 212.298C132.917 213.742 132.343 215.125 131.323 216.146C130.302 217.166 128.919 217.74 127.475 217.742H58.5239C57.0806 217.74 55.697 217.166 54.6764 216.146C53.6559 215.125 53.0819 213.742 53.0803 212.298V65.9509C53.0779 63.3587 53.8923 60.8317 55.408 58.7288C56.9236 56.626 59.0634 55.0542 61.5233 54.2368L72.336 50.6327C76.2416 49.3348 79.6389 46.8392 82.0454 43.5004C84.4519 40.1617 85.7452 36.1496 85.7416 32.0339V29.0323H100.258V32.033C100.254 36.1486 101.547 40.1608 103.954 43.4995C106.36 46.8383 109.758 49.3339 113.663 50.6318L124.476 54.2359C126.936 55.0533 129.076 56.6252 130.592 58.7283C132.107 60.8313 132.922 63.3586 132.919 65.9509V212.298Z" fill="#002554"/>
</svg>
