<svg width="186" height="225" viewBox="0 0 186 225" fill="none" xmlns="http://www.w3.org/2000/svg">
<path d="M93.5133 0C45 0 45 3.86586 45 6.23821L50.1199 216.271L50.1495 217.36L50.9543 218.088C51.7393 218.794 59.6093 225 93.5133 225C127.422 225 135.292 218.794 136.077 218.088L136.882 217.36L142.027 6.17649C142.027 3.86586 142.027 0 93.5133 0ZM134.2 6.98126C129.02 7.69839 117.811 8.53402 93.5133 8.53402C69.2172 8.53402 58.0099 7.69809 52.8317 6.98095C57.6313 6.13792 68.6148 5.05574 93.5133 5.05574C118.424 5.05574 129.402 6.13761 134.2 6.98126ZM93.5133 219.944C67.4101 219.944 57.7529 216.152 55.1411 214.802L54.7174 197.42C59.9024 199.743 70.7925 202.387 93.5133 202.387C116.242 202.387 127.107 199.854 132.312 197.507L131.891 214.802C129.264 216.152 119.557 219.944 93.5133 219.944ZM132.456 191.564C131.502 192.394 124.506 197.332 93.5133 197.332C61.678 197.332 55.0942 192.043 54.5758 191.617L50.1264 9.0765C57.9738 10.6836 77.2038 11.0619 93.5133 11.0619C109.823 11.0619 129.053 10.6836 136.9 9.0765L132.456 191.564Z" fill="#002554"/>
</svg>
