<svg width="186" height="225" viewBox="0 0 186 225" fill="none" xmlns="http://www.w3.org/2000/svg">
<path d="M93.0006 0C44.4873 0 44.4873 3.86586 44.4873 6.23821C44.4873 6.23821 51.1034 70.1766 52.1019 111.255C53.0986 152.258 49.6072 216.271 49.6072 216.271L49.6368 217.36L50.4416 218.088C51.2266 218.794 59.0966 225 93.0006 225C126.91 225 134.78 218.794 135.565 218.088L136.369 217.36C136.369 217.36 132.871 152.995 133.873 111.768C134.876 70.4656 141.514 6.17649 141.514 6.17649C141.514 3.86586 141.514 0 93.0006 0ZM133.687 6.98126C128.507 7.69839 117.298 8.53402 93.0006 8.53402C68.7045 8.53402 57.4972 7.69809 52.319 6.98095C57.1186 6.13792 68.1021 5.05574 93.0006 5.05574C117.911 5.05574 128.89 6.13761 133.687 6.98126ZM93.0006 219.944C66.8974 219.944 57.2402 216.152 54.6284 214.802L54.2047 197.42C59.3898 199.743 70.2798 202.387 93.0006 202.387C115.73 202.387 126.594 199.854 131.799 197.507L131.378 214.802C128.751 216.152 119.045 219.944 93.0006 219.944ZM131.944 191.564C130.989 192.394 123.993 197.332 93.0006 197.332C61.1653 197.332 54.5815 192.043 54.0631 191.617C54.0631 191.617 57.5936 142.645 57.1602 111.255C56.6082 71.2762 49.6137 9.0765 49.6137 9.0765C57.4611 10.6836 76.6911 11.0619 93.0006 11.0619C109.311 11.0619 128.54 10.6836 136.388 9.0765C136.388 9.0765 129.359 71.589 128.827 111.768C128.414 142.938 131.944 191.564 131.944 191.564Z" fill="#002554"/>
</svg>
