<svg width="186" height="225" viewBox="0 0 186 225" fill="none" xmlns="http://www.w3.org/2000/svg">
<path d="M184.951 4.81978C184.414 3.39758 183.456 2.17351 182.204 1.31195C180.952 0.450388 179.466 -0.00739135 177.946 9.02627e-05H8.04648C6.52834 0.000170353 5.04596 0.460966 3.79531 1.32157C2.54466 2.18216 1.58462 3.40204 1.04211 4.81994C0.499593 6.23784 0.400149 7.787 0.75692 9.26262C1.11369 10.7382 1.90988 12.0709 3.04023 13.0843L69.856 85.5399C73.5954 88.8964 76.5865 93.0023 78.6351 97.5907C80.6836 102.179 81.7437 107.147 81.7463 112.172V197.067C81.7423 197.968 81.4153 198.839 80.8246 199.52C80.2338 200.201 79.4184 200.648 78.5264 200.779L45.3221 205.523C43.0417 205.828 40.9389 206.918 39.3756 208.606C37.8123 210.294 36.8862 212.474 36.7566 214.771C36.6907 216.093 36.8959 217.414 37.3595 218.653C37.8231 219.892 38.5353 221.023 39.4524 221.977C40.3668 222.93 41.4642 223.689 42.6787 224.209C43.8933 224.728 45.2002 224.997 46.5211 225H139.471C140.792 224.997 142.099 224.728 143.314 224.209C144.528 223.689 145.626 222.93 146.54 221.977C147.457 221.023 148.169 219.892 148.633 218.653C149.097 217.413 149.302 216.092 149.236 214.771C149.106 212.474 148.18 210.294 146.617 208.606C145.053 206.918 142.951 205.828 140.67 205.523L107.466 200.779C106.574 200.648 105.759 200.201 105.168 199.52C104.577 198.839 104.25 197.968 104.246 197.067V112.172C104.249 107.147 105.309 102.18 107.358 97.5917C109.406 93.0037 112.397 88.8981 116.137 85.5418L182.952 13.0843C184.089 12.0753 184.89 10.7426 185.247 9.26528C185.604 7.78793 185.501 6.23664 184.951 4.81978ZM111.13 79.9557C106.607 84.0159 102.988 88.9826 100.51 94.5331C98.0317 100.084 96.7494 106.093 96.7463 112.172V197.067C96.7577 199.772 97.7386 202.383 99.5109 204.426C101.283 206.469 103.729 207.81 106.405 208.203L139.61 212.947C140.16 213.01 140.672 213.259 141.061 213.653C141.449 214.047 141.691 214.563 141.746 215.114C141.761 215.422 141.713 215.729 141.606 216.018C141.498 216.307 141.333 216.571 141.12 216.794C140.908 217.018 140.652 217.195 140.368 217.317C140.085 217.438 139.78 217.5 139.471 217.5H46.5211C46.2131 217.5 45.9082 217.437 45.625 217.316C45.3419 217.195 45.0863 217.017 44.8738 216.794C44.6614 216.571 44.4964 216.307 44.3889 216.018C44.2815 215.729 44.2337 215.422 44.2486 215.114C44.3034 214.563 44.545 214.048 44.9333 213.654C45.3216 213.26 45.8331 213.01 46.3829 212.947L79.5872 208.203C82.2633 207.81 84.7094 206.469 86.4817 204.426C88.254 202.383 89.2348 199.772 89.2463 197.067V112.172C89.2429 106.094 87.9604 100.084 85.4823 94.5341C83.0041 88.984 79.3857 84.0175 74.8622 79.9576L8.0507 7.50009L177.943 7.50243L111.13 79.9557Z" fill="#002554"/>
</svg>
