<svg width="186" height="225" viewBox="0 0 186 225" fill="none" xmlns="http://www.w3.org/2000/svg">
<path d="M124.294 105.722C128.778 102.978 133.416 100.143 137.755 96.7827C152.954 85.0042 164.997 72.8845 158.381 43.7819C153.437 22.0497 148.292 4.62608 148.235 4.42701C147.69 2.66379 146.87 0 92.7884 0C38.7069 0 37.8869 2.66379 37.3347 4.45545C37.2849 4.62608 32.1398 22.0497 27.1962 43.7819C20.5794 72.8845 32.6233 85.0042 47.8216 96.7827C52.1609 100.143 56.7988 102.978 61.2827 105.722C69.7386 110.888 77.7252 115.775 80.8677 122.757C84.8753 131.658 86.0223 185.47 81.4175 197.651C80.4198 200.291 72.8787 202.363 66.8212 204.026C57.3795 206.619 47.6178 209.297 47.2884 216.383C47.2315 217.611 47.3358 219.203 48.67 220.601C51.4547 223.516 59.0432 225 92.7884 225C126.534 225 134.122 223.516 136.907 220.601C138.241 219.203 138.345 217.611 138.288 216.383C137.959 209.297 128.197 206.619 118.756 204.026C112.698 202.363 105.157 200.291 104.159 197.651C99.5545 185.47 100.702 131.658 104.709 122.757C107.852 115.775 115.838 110.888 124.294 105.722ZM142.713 6.70598C137.904 7.60566 125.343 8.88719 92.7884 8.88719C60.2326 8.88719 47.6723 7.60566 42.8637 6.70598C46.8348 6.02552 58.6243 4.85359 92.7884 4.85359C126.952 4.85359 138.741 6.02552 142.713 6.70598ZM99.6185 199.367C101.491 204.32 109.252 206.448 117.471 208.709C124.512 210.638 133.274 213.046 133.44 216.611C133.463 217.084 133.423 217.208 133.418 217.222C132.188 219.161 118.519 220.146 92.7884 220.146C67.0582 220.146 53.3885 219.161 52.1609 217.227C52.1538 217.208 52.1135 217.084 52.1372 216.611C52.3031 213.046 61.0647 210.638 68.1057 208.709C76.3246 206.448 84.0861 204.32 85.9583 199.367C90.9446 186.171 89.6435 130.431 85.2947 120.766C81.5384 112.415 72.9285 107.153 63.8162 101.579C59.4437 98.9062 54.9219 96.1428 50.7935 92.9434C36.4389 81.8238 25.9378 71.216 31.9313 44.8625C35.6615 28.4512 39.4949 14.57 41.1399 8.77877C47.9404 10.4217 65.8013 11.314 92.7884 11.314C119.776 11.314 137.637 10.4217 144.437 8.77877C146.087 14.5848 149.915 28.452 153.646 44.8625C159.639 71.216 149.138 81.8238 134.783 92.9434C130.655 96.1428 126.133 98.9062 121.761 101.579C112.648 107.153 104.038 112.415 100.282 120.766C95.9333 130.431 94.6322 186.171 99.6185 199.367Z" fill="#002554"/>
</svg>
