<svg width="186" height="225" viewBox="0 0 186 225" fill="none" xmlns="http://www.w3.org/2000/svg">
<path fill-rule="evenodd" clip-rule="evenodd" d="M71.1673 75.3142L113.934 75.3151L110.804 25.2903V7.25806C110.801 5.33381 110.035 3.48901 108.674 2.12836C107.312 0.7677 105.466 0.002281 103.54 0H81.557C79.6314 0.002281 77.7853 0.7677 76.4236 2.12836C75.062 3.48901 74.296 5.33381 74.2937 7.25806V25.2903L71.1673 75.3142ZM103.54 7.25806H81.557V21.7742H103.54V7.25806ZM103.761 29.0323H81.336L79.2932 61.6936H105.804L103.761 29.0323Z" fill="#002554"/>
<path d="M81.5592 3.62903H81.557C81.5578 3.62903 81.5585 3.62903 81.5592 3.62903ZM81.5592 3.62903C81.5593 3.62903 81.5594 3.62903 81.5595 3.62903M81.5592 3.62903H103.538M81.5595 3.62903L110.804 7.25806C110.801 5.33381 110.035 3.48901 108.674 2.12836C107.312 0.7677 105.466 0.002281 103.54 0M81.5595 3.62903H103.538M81.5595 3.62903C81.5601 3.62903 81.5607 3.62903 81.5613 3.62903L81.557 0M81.5595 3.62903H81.557V0M81.5595 3.62903L81.557 0M103.538 3.62903C103.539 3.62903 103.54 3.62903 103.54 3.62903H103.538ZM103.538 3.62903C103.538 3.62903 103.538 3.62903 103.538 3.62903M103.538 3.62903H103.54V0M103.538 3.62903C103.537 3.62903 103.537 3.62903 103.536 3.62903L103.54 0M103.54 0H81.557M107.182 25.5169L110.071 71.686L75.0302 71.6853L77.9157 25.5166L77.9228 25.4036V25.2903L77.9228 7.26237C77.9228 7.26153 77.9228 7.2607 77.9228 7.25987C77.9229 7.19691 77.9246 7.13412 77.928 7.07155V7.25806V21.7742V25.4032H77.9268L77.714 28.8057L75.6712 61.467L75.43 65.3226H79.2932H105.804H109.667L109.426 61.467L107.383 28.8057L107.171 25.4032H107.169V21.7742V7.25806V7.07135C107.173 7.13481 107.175 7.1985 107.175 7.26237V25.2903V25.4037L107.182 25.5169ZM72.481 82.2215C73.1814 81.2057 73.7327 80.1018 74.1231 78.9433L110.978 78.9441C111.369 80.1027 111.92 81.2068 112.62 82.2226C113.983 84.1994 115.859 85.7672 118.047 86.7578C118.047 86.758 118.047 86.7581 118.048 86.7583L123.553 89.2586C131.721 92.9693 138.689 98.8864 143.672 106.342C148.654 113.798 151.452 122.497 151.751 131.457L155.378 131.336L151.751 131.457L153.822 193.382C153.879 195.097 154.19 196.794 154.746 198.417C154.747 198.417 154.747 198.418 154.747 198.418L156.444 203.376L156.444 203.377C157.234 205.684 157.669 208.096 157.732 210.533L157.732 210.534L157.92 217.647C157.932 218.131 157.848 218.612 157.671 219.063C157.495 219.514 157.229 219.926 156.891 220.273C156.552 220.62 156.148 220.897 155.7 221.085C155.253 221.274 154.772 221.371 154.287 221.371H30.8119C30.8115 221.371 30.811 221.371 30.8106 221.371C30.3254 221.371 29.8454 221.273 29.3986 221.085C28.9514 220.896 28.5468 220.62 28.2084 220.273C27.8701 219.926 27.6049 219.514 27.4283 219.063C27.2518 218.612 27.1674 218.131 27.1801 217.647C27.1801 217.647 27.1801 217.647 27.1801 217.647L27.3676 210.532L27.3676 210.531C27.4311 208.095 27.8654 205.682 28.6555 203.376L28.6558 203.375L30.3529 198.417C30.909 196.794 31.2206 195.097 31.2776 193.383C31.2776 193.382 31.2776 193.382 31.2776 193.382C31.2777 193.382 31.2777 193.382 31.2777 193.382L33.3481 131.455L29.7211 131.334L33.3481 131.455C33.6474 122.495 36.4458 113.797 41.428 106.341C46.4102 98.8851 53.3782 92.9679 61.5464 89.2573L67.0535 86.7566C69.2413 85.7662 71.1178 84.1984 72.481 82.2215Z" stroke="#002554" stroke-width="7.25806"/>
</svg>
