<svg width="186" height="225" viewBox="0 0 186 225" fill="none" xmlns="http://www.w3.org/2000/svg">
<path d="M156.716 2.56283C139.678 0.910022 117.05 0 93.0007 0C68.9514 0 46.3228 0.910022 29.2857 2.56283C2.20319 5.19114 3.97231e-06 8.41617 3.97231e-06 12.0546C-0.00019195 12.1801 0.00685972 12.3056 0.0211239 12.4303L21.3664 202.071C21.6743 204.864 22.7482 207.517 24.469 209.736C26.1898 211.955 28.4904 213.654 31.1158 214.644C50.9155 221.746 71.8225 225.248 92.8518 224.986C113.966 225.235 134.956 221.729 154.848 214.634C157.483 213.649 159.794 211.95 161.523 209.727C163.251 207.504 164.329 204.844 164.637 202.043L185.979 12.4303C185.993 12.3056 186 12.1801 186 12.0546C186.001 8.41617 183.798 5.19114 156.716 2.56283ZM93.0007 6.71601C140.366 6.71601 171.423 10.158 178.587 12.9679C169.856 15.8444 139.656 19.0735 93.0007 19.0735C46.345 19.0735 16.1454 15.8454 7.41445 12.969C14.5788 10.158 45.6349 6.71601 93.0007 6.71601ZM157.976 201.29C157.803 202.86 157.198 204.351 156.229 205.597C155.26 206.843 153.965 207.795 152.487 208.347C133.351 215.161 113.16 218.521 92.8518 218.27C72.6339 218.535 52.5312 215.18 33.4909 208.364C32.0199 207.809 30.7309 206.857 29.7668 205.613C28.8027 204.369 28.2011 202.882 28.0286 201.317L7.18381 16.1282C25.7137 22.2223 85.1266 22.4315 93.0007 22.4315C100.875 22.4315 160.288 22.2233 178.818 16.1292L157.976 201.29Z" fill="#002554"/>
</svg>
