<svg width="186" height="225" viewBox="0 0 186 225" fill="none" xmlns="http://www.w3.org/2000/svg">
<path fill-rule="evenodd" clip-rule="evenodd" d="M165.414 2.91938C164.533 1.99889 163.474 1.26566 162.301 0.763908C161.128 0.262161 159.865 0.00229912 158.588 0H27.4124C26.1354 1.9394e-05 24.8718 0.258851 23.6984 0.76074C22.525 1.26263 21.4664 1.99708 20.5871 2.91939C19.7078 3.84171 19.026 4.93259 18.5834 6.12566C18.1408 7.31872 17.9466 8.58901 18.0126 9.85922L28.0769 203.662C28.3738 209.421 30.8803 214.847 35.0787 218.818C39.2771 222.789 44.8466 225.002 50.6364 225H135.364C141.154 225.002 146.724 222.789 150.922 218.818C155.12 214.847 157.627 209.421 157.924 203.662L167.988 9.85922C168.052 8.58924 167.857 7.31956 167.414 6.1268C166.972 4.93404 166.291 3.84295 165.414 2.91938ZM145.736 213.379C148.535 210.731 150.206 207.114 150.404 203.275L160.471 9.47203C160.484 9.21776 160.445 8.96347 160.357 8.72467C160.268 8.48586 160.131 8.26754 159.955 8.08302C159.779 7.89851 159.567 7.75165 159.332 7.65141C159.097 7.55118 158.844 7.49966 158.588 7.5H27.4147C27.1591 7.49966 26.9061 7.55118 26.6711 7.65141C26.4361 7.75165 26.2241 7.89851 26.0479 8.08302C25.8718 8.26754 25.7352 8.48586 25.6466 8.72467C25.5579 8.96347 25.519 9.21776 25.5322 9.47203L35.5966 203.275C35.7946 207.114 37.4657 210.731 40.2647 213.379C43.0636 216.026 46.7765 217.501 50.6364 217.5H135.364C139.224 217.501 142.937 216.026 145.736 213.379Z" fill="#002554"/>
</svg>
