<svg width="186" height="225" viewBox="0 0 186 225" fill="none" xmlns="http://www.w3.org/2000/svg">
<path d="M174.865 79.0687L165.188 8.10937C164.875 5.86595 163.764 3.81073 162.057 2.32106C160.351 0.831396 158.164 0.00726948 155.899 0H30.7196C28.4544 0.00726948 26.2679 0.831396 24.5615 2.32106C22.8551 3.81073 21.7434 5.86595 21.4303 8.10937L11.7539 79.0687C8.88456 100.13 14.2714 121.484 26.7873 138.664C39.3032 155.843 57.9783 167.517 78.9047 171.242C79.7826 171.388 80.5806 171.84 81.1578 172.518C81.735 173.195 82.0543 174.055 82.0594 174.945V197.07C82.0555 197.972 81.7284 198.842 81.1377 199.523C80.5469 200.204 79.7316 200.651 78.8396 200.782L45.6352 205.526C43.3548 205.831 41.252 206.921 39.6887 208.609C38.1254 210.297 37.1993 212.478 37.0697 214.775C37.0038 216.096 37.209 217.417 37.6726 218.656C38.1362 219.895 38.8484 221.027 39.7655 221.98C40.6802 222.933 41.7777 223.691 42.9922 224.21C44.2068 224.729 45.5135 224.998 46.8342 225H139.611C142.07 225.007 144.445 224.102 146.275 222.46C148.106 220.817 149.262 218.554 149.52 216.108C149.746 213.613 149.005 211.127 147.451 209.162C145.897 207.197 143.649 205.903 141.169 205.547L107.78 200.777C106.888 200.646 106.073 200.199 105.482 199.518C104.892 198.837 104.565 197.966 104.561 197.065V174.94C104.566 174.05 104.885 173.19 105.462 172.513C106.04 171.835 106.838 171.383 107.715 171.237C128.641 167.512 147.315 155.838 159.83 138.66C172.345 121.481 177.733 100.128 174.865 79.0687ZM153.517 134.592C142.173 150.051 125.3 160.535 106.415 163.856C103.799 164.305 101.427 165.664 99.7149 167.693C98.0032 169.721 97.0628 172.289 97.0594 174.943V197.068C97.0707 199.772 98.0515 202.383 99.8237 204.427C101.596 206.47 104.042 207.81 106.718 208.204L140.107 212.974C140.685 213.058 141.209 213.361 141.57 213.82C141.932 214.279 142.103 214.86 142.05 215.442C141.969 216.025 141.676 216.559 141.226 216.939C140.776 217.319 140.201 217.519 139.612 217.501H46.8342C46.5261 217.501 46.2212 217.438 45.938 217.317C45.6548 217.195 45.3993 217.018 45.1868 216.795C44.9743 216.571 44.8093 216.307 44.7019 216.019C44.5944 215.73 44.5468 215.422 44.5617 215.114C44.6165 214.564 44.8582 214.049 45.2466 213.654C45.635 213.26 46.1466 213.011 46.6964 212.948L79.9003 208.204C82.5766 207.811 85.0229 206.47 86.7952 204.427C88.5675 202.383 89.5483 199.772 89.5594 197.067V174.942C89.556 172.288 88.6156 169.72 86.9039 167.692C85.1922 165.663 82.8193 164.304 80.2036 163.855C61.1874 160.465 44.2183 149.854 32.8458 134.241C21.4734 118.627 16.5785 99.2215 19.185 80.0822L28.8619 9.1214C28.9244 8.67276 29.1468 8.26176 29.488 7.96389C29.8293 7.66602 30.2666 7.50131 30.7196 7.5H155.899C156.352 7.50132 156.79 7.66611 157.131 7.96407C157.472 8.26203 157.694 8.67315 157.757 9.12187L167.434 80.0822C170.114 99.3736 165.117 118.946 153.517 134.592Z" fill="#002554"/>
</svg>
