<svg width="186" height="225" viewBox="0 0 186 225" fill="none" xmlns="http://www.w3.org/2000/svg">
<path d="M114.094 75.1104L114.097 75.1127C123.652 82.4667 129.494 94.1686 129.285 106.994L129.285 107.023V107.053V214.342C129.285 218.399 126.224 221.371 122.679 221.371H63.316C59.7713 221.371 56.7101 218.399 56.7101 214.342V106.816C56.7101 94.1946 62.564 82.4718 72.1254 75.1127L72.1284 75.1104C79.28 69.594 83.0936 60.6487 83.0936 51.6316V36.2397C83.0936 33.4817 80.8578 31.246 78.0999 31.246C77.2845 31.246 76.4977 30.6422 76.4977 29.4276V17.7632C76.4977 16.5486 77.2845 15.9448 78.0999 15.9448C80.8578 15.9448 83.0936 13.7091 83.0936 10.9511V5.92105C83.0936 4.37081 84.2014 3.62903 84.9232 3.62903H101.072C102.115 3.62903 103.129 4.46963 103.129 5.92105V10.9511C103.129 13.7091 105.365 15.9448 108.122 15.9448C108.938 15.9448 109.725 16.5486 109.725 17.7632V29.4276C109.725 30.6422 108.938 31.246 108.122 31.246C105.365 31.246 103.129 33.4817 103.129 36.2397V51.6316C103.129 60.6487 106.942 69.594 114.094 75.1104Z" stroke="#002554" stroke-width="7.25806"/>
<path d="M108.124 34.875H106.759H79.466H78.1013C75.1446 34.875 72.8701 32.5066 72.8701 29.4276V17.7632C72.8701 14.6842 75.1446 12.3158 78.1013 12.3158C78.855 12.3158 79.466 11.7048 79.466 10.9511V5.92105C79.466 2.60526 81.9679 0 84.9247 0H101.073C104.257 0 106.759 2.60526 106.759 5.92105V10.9511C106.759 11.7048 107.37 12.3158 108.124 12.3158C111.081 12.3158 113.355 14.6842 113.355 17.7632V29.4276C113.355 32.5066 111.081 34.875 108.124 34.875Z" fill="#002554"/>
</svg>
