<svg width="186" height="225" viewBox="0 0 186 225" fill="none" xmlns="http://www.w3.org/2000/svg">
<path d="M118.934 204.053C112.884 202.391 105.353 200.322 104.354 197.686C99.7574 185.515 100.903 131.776 104.903 122.886C108.094 115.79 113.116 112.642 120.07 108.292C123.479 106.157 127.346 103.733 131.55 100.481C146.31 89.039 151.617 71.5143 146.897 49.7954C141.453 24.7249 134.722 7.29487 133.656 4.60604L133.623 4.04744L132.909 3.33263C132 2.42373 129.581 0 92.9974 0C56.4189 0 53.9999 2.42373 53.091 3.33263L52.3052 4.16579V4.70072C51.1265 7.68304 44.4896 24.9995 39.1025 49.7954C34.3829 71.5143 39.6895 89.039 54.4497 100.481C58.6533 103.738 62.5209 106.157 65.9292 108.292C72.8785 112.647 77.9012 115.79 81.0918 122.886C85.0966 131.781 86.2422 185.52 81.6409 197.686C80.6468 200.322 73.1152 202.391 67.0654 204.053C57.6355 206.642 47.8838 209.317 47.5572 216.394C47.5004 217.62 47.6045 219.21 48.9395 220.607C51.7182 223.523 59.2971 225 92.9974 225C126.702 225 134.281 223.518 137.06 220.607C138.395 219.206 138.499 217.62 138.438 216.394C138.111 209.317 128.364 206.642 118.934 204.053ZM127.799 6.45816C123.642 7.07297 114.223 7.82979 92.9974 7.82979C71.7747 7.82979 62.3576 7.07267 58.2006 6.45816C61.5738 5.81761 70.4013 4.84746 92.9974 4.84746C115.597 4.84746 124.425 5.81761 127.799 6.45816ZM133.576 217.232C132.345 219.168 118.693 220.153 92.9974 220.153C67.2973 220.153 53.6449 219.168 52.4236 217.236C52.4141 217.218 52.3762 217.094 52.3952 216.621C52.5656 213.061 61.3137 210.656 68.3482 208.73C76.5567 206.472 84.3061 204.346 86.1759 199.399C91.1607 186.22 89.8589 130.55 85.5132 120.898C81.7166 112.462 75.8845 108.808 68.5045 104.183C65.186 102.109 61.4321 99.7565 57.4225 96.6463C44.0494 86.2887 39.4812 70.8705 43.8364 50.8274C48.4211 29.7369 53.8931 14.2063 56.037 8.49845C62.5576 9.92008 79.0385 10.2535 92.9974 10.2535C106.961 10.2535 123.442 9.92008 129.963 8.49845C132.106 14.206 137.578 29.7369 142.163 50.8274C146.518 70.8705 141.95 86.2887 128.577 96.6463C124.567 99.7565 120.809 102.109 117.495 104.183C110.11 108.808 104.278 112.462 100.482 120.898C96.1407 130.545 94.8389 186.216 99.8189 199.399C101.689 204.346 109.443 206.472 117.651 208.73C124.681 210.656 133.434 213.061 133.6 216.621C133.619 217.094 133.581 217.218 133.576 217.232Z" fill="#002554"/>
</svg>
