<svg width="186" height="225" viewBox="0 0 186 225" fill="none" xmlns="http://www.w3.org/2000/svg">
<path d="M133.001 99.5631L133.11 99.6422L75.177 69.8767L77.755 67.3226C77.7549 67.3225 77.7549 67.3225 77.7548 67.3224C77.6941 67.2609 77.4278 66.9249 77.2384 65.9284C77.0538 64.957 76.9989 63.6521 77.0977 62.0193C77.2955 58.7497 78.0645 54.7776 78.9808 50.7291L78.9809 50.7289C80.0152 46.1581 81.2256 41.8088 82.0313 39.0524L82.6104 37.0714H104.393L104.973 39.0528C105.779 41.8094 106.989 46.1581 108.023 50.7286L108.023 50.7291C108.94 54.7777 109.709 58.7497 109.907 62.0194C110.005 63.6522 109.951 64.9572 109.766 65.9286C109.576 66.926 109.31 67.2617 109.25 67.3226C107.305 69.2852 105.655 71.5347 105.164 73.9926C105.012 74.7512 104.893 75.8777 105.245 77.2166C105.594 78.5464 106.334 79.81 107.466 80.9994L107.696 81.2409L107.966 81.4364L133.001 99.5631Z" stroke="#002554" stroke-width="7.25806"/>
</svg>
