<svg width="186" height="225" viewBox="0 0 186 225" fill="none" xmlns="http://www.w3.org/2000/svg">
<path d="M93.4925 0C30.9858 0 30.9858 6.49141 31.0004 9.97613L49.5729 211.015C49.5729 218.466 70.0951 225 93.4921 225C116.565 225 136.844 218.645 137.399 211.323L156 9.61376C156 6.49141 156 0 93.4925 0ZM93.4925 7.8947C122.192 7.8947 142.127 9.87982 147.9 11.5606L147.889 11.679C141.117 13.406 121.789 15.2747 93.4925 15.2747C65.1758 15.2747 45.8363 13.4036 39.0791 11.6751L39.0684 11.5626C44.8231 9.88376 64.7664 7.8947 93.4925 7.8947ZM129.61 209.762C126.882 211.99 114.713 217.104 93.4925 217.104C72.2725 217.104 60.1016 211.989 57.375 209.762L39.4399 15.575C52.0059 18.7929 79.686 19.224 93.4925 19.224C107.293 19.224 134.956 18.7933 147.529 15.5794L129.61 209.762Z" fill="#002554"/>
</svg>
