<svg width="186" height="225" viewBox="0 0 186 225" fill="none" xmlns="http://www.w3.org/2000/svg">
<path d="M124.796 80.0778L113.845 67.5621C109.765 62.9002 107.516 56.9155 107.517 50.7203V21.7742C108.479 21.7742 109.402 21.3918 110.083 20.7113C110.763 20.0307 111.146 19.1076 111.146 18.1452V3.62903C111.146 2.66655 110.763 1.74349 110.083 1.06292C109.402 0.382343 108.479 0 107.517 0H78.4843C77.5218 0 76.5987 0.382343 75.9182 1.06292C75.2376 1.74349 74.8552 2.66655 74.8552 3.62903V18.1452C74.8552 19.1076 75.2376 20.0307 75.9182 20.7113C76.5987 21.3918 77.5218 21.7742 78.4843 21.7742V50.7203C78.485 56.9155 76.2363 62.9002 72.1562 67.5621L61.2051 80.0778C55.967 86.0626 53.0801 93.7458 53.0811 101.699V210.484C53.0854 214.332 54.6161 218.022 57.3375 220.744C60.0589 223.465 63.7486 224.996 67.5972 225H118.404C122.252 224.996 125.942 223.465 128.663 220.744C131.385 218.022 132.915 214.332 132.92 210.484V101.699C132.921 93.7458 130.034 86.0626 124.796 80.0778ZM125.662 210.484C125.659 212.408 124.894 214.253 123.533 215.614C122.173 216.974 120.328 217.74 118.404 217.742H67.5972C65.6729 217.74 63.8281 216.974 62.4675 215.614C61.1068 214.253 60.3414 212.408 60.3391 210.484V101.699C60.3384 95.5039 62.5871 89.5191 66.6672 84.8572L77.6183 72.3416C82.8367 66.379 85.7223 58.7301 85.7423 50.8065H100.258C100.279 58.7301 103.164 66.379 108.383 72.3416L119.334 84.8572C123.414 89.5191 125.662 95.5039 125.662 101.699V210.484Z" fill="#002554"/>
</svg>
