<svg width="186" height="225" viewBox="0 0 186 225" fill="none" xmlns="http://www.w3.org/2000/svg">
<path d="M114.62 176.366C121.302 171.085 125.916 163.625 127.656 155.289L154.919 9.65009C154.955 9.44659 154.974 9.24028 154.974 9.03352C154.974 6.56425 154.974 0 92.9888 0C31.0034 0 31 6.56559 31 9.03352C31.0006 9.24028 31.0192 9.44659 31.0557 9.65009L58.3212 155.295C60.0606 163.628 64.6737 171.085 71.354 176.362C72.4988 177.298 73.3819 178.514 73.9174 179.892C74.4529 181.27 74.6226 182.763 74.41 184.227C74.3277 187.322 74.2162 191.562 60.449 197.207C49.7152 201.606 42.617 204.116 39.3424 205.222C37.9046 205.707 36.6559 206.633 35.7726 207.867C34.8894 209.101 34.4164 210.582 34.4203 212.099V214.782C34.4203 217.681 35.8566 220.272 53.5002 222.646C66.5991 224.273 79.789 225.059 92.9885 224.997C106.187 225.059 119.376 224.273 132.473 222.646C150.117 220.272 151.553 217.681 151.553 214.782V212.099C151.557 210.582 151.085 209.102 150.202 207.868C149.319 206.634 148.071 205.708 146.634 205.222C142.613 203.864 135.686 201.372 125.527 197.204C111.757 191.56 111.646 187.322 111.56 184.043C111.366 182.608 111.546 181.148 112.082 179.803C112.618 178.458 113.492 177.274 114.62 176.366ZM92.9888 6.71503C122.327 6.71503 142.404 8.77125 147.927 10.4997L147.829 11.0212C141.253 12.7887 121.814 14.7105 92.9895 14.7105C64.1645 14.7105 44.7219 12.7887 38.1462 11.0212L38.0472 10.4997C43.5704 8.77125 63.6507 6.71503 92.9888 6.71503ZM110.317 171.207C108.399 172.795 106.899 174.828 105.946 177.128C104.993 179.428 104.617 181.926 104.85 184.405C104.998 190.072 106.533 196.68 122.982 203.419C133.303 207.653 140.374 210.198 144.489 211.588C144.594 211.625 144.685 211.695 144.748 211.787C144.81 211.879 144.841 211.989 144.837 212.1V213.287C140.088 215.232 120.474 218.282 92.9885 218.282C65.503 218.282 45.8852 215.232 41.138 213.287V212.1C41.1345 211.988 41.1665 211.878 41.2296 211.786C41.2927 211.693 41.3835 211.623 41.489 211.585C45.5816 210.204 52.6358 207.666 62.9955 203.419C79.4422 196.68 80.9769 190.072 81.1297 184.225C81.3427 181.774 80.9556 179.308 80.0019 177.04C79.0481 174.772 77.5565 172.77 75.6558 171.208C70.1819 166.924 66.3836 160.856 64.9221 154.06L38.7813 14.4194C51.7966 17.7467 82.0159 18.0687 92.9888 18.0687C103.962 18.0687 134.178 17.7467 147.193 14.4194L121.051 154.053C119.593 160.852 115.794 166.923 110.317 171.207Z" fill="#002554"/>
</svg>
