<svg width="187" height="225" viewBox="0 0 187 225" fill="none" xmlns="http://www.w3.org/2000/svg">
<path d="M155.436 2.66762C137.667 0.94855 114.069 0 88.9937 0C63.9182 0 49.3205 0.947366 31.5519 2.66762C2.90079 5.44301 0.622377 8.84326 0.637772 13.3342L16.4927 196.821C16.8403 200.406 18.1993 203.818 20.4116 206.661C22.6239 209.503 25.5984 211.659 28.9885 212.876L56.6389 222.941C60.3872 224.306 64.3456 225.003 68.3345 225H118.653C122.642 225.002 126.602 224.306 130.351 222.941L157.997 212.876C161.389 211.658 164.364 209.502 166.577 206.658C168.79 203.814 170.149 200.399 170.495 196.813L186.363 12.9947C186.365 8.84326 184.086 5.44301 155.436 2.66762ZM173.689 68.157C171.157 65.3066 167.888 63.2098 164.241 62.0973C160.594 60.9847 156.712 60.8996 153.02 61.8511C146.851 63.2763 141.044 65.9655 135.967 69.7488C130.889 73.532 126.652 78.3271 123.522 83.8312C119.213 78.9909 113.876 75.1759 107.901 72.666C101.927 70.156 97.4665 69.0146 90.9937 69.3254C84.5209 69.6362 81.4941 69.9243 76 72.666C70 75.6601 67.5 78.5 63.4658 83.8312C60.3361 78.3275 56.099 73.5326 51.0223 69.7494C45.9456 65.9662 40.1395 63.2768 33.9708 61.8511C30.276 60.9009 26.3906 60.9879 22.742 62.1026C19.0934 63.2173 15.8228 65.3164 13.2898 68.1692L8.93235 17.7891C16.4214 19.6198 24.0521 20.8131 31.7425 21.356C49.446 23.0715 63.9738 24.0157 88.9937 24.0157C114.014 24.0157 137.541 23.0715 155.245 21.356C162.93 20.8128 170.556 19.6211 178.041 17.7935L173.689 68.157ZM88.9937 7.89471C136.28 7.89471 168.111 11.2014 177.057 14.0273C166.888 16.9239 135.895 20.0668 88.9937 20.0668C42.0925 20.0668 20.1026 16.9231 9.93182 14.0273C18.8805 11.1998 41.7123 7.89471 88.9937 7.89471ZM31.6884 205.46C29.7088 204.759 27.9689 203.51 26.6709 201.859C25.373 200.208 24.5705 198.223 24.3566 196.133L13.7687 73.7074C15.7196 70.5042 18.6362 68.0024 22.0991 66.5618C25.5619 65.1212 29.3924 64.816 33.0396 65.6903C39.085 67.1074 44.7418 69.845 49.604 73.7068C54.4662 77.5686 58.4134 82.4587 61.1622 88.0264L61.5368 216.112C60.8041 215.915 60.0557 215.784 59.3393 215.524L31.6884 205.46ZM68.3345 217.104C67.3814 217.074 66.4307 216.991 65.4865 216.857L65.1099 88.1906C66.756 85.72 69.1313 73.2728 90.9937 73.2728C112.856 73.2728 120.232 85.72 121.878 88.1906L121.501 216.857C120.557 216.991 119.606 217.073 118.653 217.104L68.3345 217.104ZM162.631 196.127C162.418 198.217 161.616 200.204 160.317 201.856C159.019 203.508 157.278 204.758 155.297 205.459L127.65 215.525C126.933 215.786 126.184 215.917 125.451 216.113L125.825 88.0272C128.574 82.4594 132.522 77.5691 137.384 73.7073C142.247 69.8455 147.904 67.1079 153.95 65.6911C157.594 64.818 161.422 65.1226 164.882 66.5612C168.343 67.9997 171.258 70.4981 173.21 73.6975L162.631 196.127Z" fill="#002554"/>
</svg>
