<svg width="186" height="225" viewBox="0 0 186 225" fill="none" xmlns="http://www.w3.org/2000/svg">
<path fill-rule="evenodd" clip-rule="evenodd" d="M77.1043 39.6676H108.895C109.577 39.4018 110.162 38.9374 110.575 38.3349C110.988 37.7325 111.21 37.0199 111.21 36.2903V7.25806C111.208 5.3338 110.44 3.48901 109.074 2.12836C107.709 0.7677 105.857 0.00228099 103.926 0H82.0731C80.1419 0.00228099 78.2904 0.7677 76.9249 2.12836C75.5593 3.48901 74.7911 5.3338 74.7888 7.25806V36.2903C74.7893 37.0199 75.0105 37.7325 75.4236 38.3349C75.8366 38.9374 76.4224 39.4018 77.1043 39.6676ZM82.0731 21.7742V32.6613H103.926V21.7742H82.0731ZM103.926 14.5161V7.25806H82.0731V14.5161H103.926Z" fill="#002554"/>
<path d="M78.4179 36.0385V7.25989C78.4181 7.1163 78.4269 6.97354 78.4441 6.83229V7.25806V14.5161V18.1451V21.7742V32.6613V36.0385H78.4179ZM107.581 36.0385H107.555V32.6613V21.7742V18.1451V14.5161V7.25806V6.83232C107.572 6.97437 107.581 7.11795 107.581 7.26238V36.0385ZM78.1977 47.8375L79.7169 43.2966H106.282L107.801 47.8375C107.802 47.8385 107.802 47.8396 107.802 47.8407C110.007 54.4793 110.007 61.6485 107.803 68.2872C107.802 68.2886 107.802 68.29 107.801 68.2915L105.182 76.1192L105.178 76.1305L105.175 76.1417C104.844 77.152 104.903 78.249 105.34 79.2176C105.777 80.1858 106.558 80.9537 107.528 81.3748L107.538 81.3791L107.548 81.3834L124.494 88.6197L124.507 88.625C125.967 89.242 127.203 90.2835 128.056 91.6107C128.908 92.9378 129.336 94.4892 129.287 96.0614L129.286 96.0745L126.039 212.55L126.039 212.559L126.039 212.568C125.985 214.924 125.005 217.168 123.305 218.816C121.605 220.464 119.32 221.383 116.943 221.371L116.934 221.371H116.925H69.0761H69.0671L69.0581 221.371C66.6807 221.383 64.3962 220.464 62.6958 218.816C60.9959 217.168 60.0156 214.924 59.9618 212.568L59.9616 212.559L59.9613 212.55L56.7144 96.0745L56.714 96.0612C56.6643 94.4891 57.0929 92.9378 57.9447 91.6108C58.7967 90.2835 60.0329 89.2419 61.4928 88.6248L61.5048 88.6197L78.4511 81.3834L78.4622 81.3787L78.4732 81.3739C79.443 80.9522 80.2237 80.184 80.6598 79.2159C81.096 78.2474 81.1547 77.1507 80.8238 76.1408L80.8203 76.13L80.8167 76.1192L78.1977 68.2915C78.1974 68.2906 78.1971 68.2896 78.1968 68.2887C75.9919 61.6498 75.9918 54.4802 78.1965 47.8412C78.1969 47.84 78.1973 47.8387 78.1977 47.8375Z" stroke="#002554" stroke-width="7.25806"/>
</svg>
