<svg width="186" height="225" viewBox="0 0 186 225" fill="none" xmlns="http://www.w3.org/2000/svg">
<path d="M119.04 204.156C113.02 202.502 105.525 200.444 104.534 197.82C99.9572 185.714 101.097 132.235 105.08 123.388C108.999 114.679 112.299 111.678 117.297 107.137C118.555 105.992 119.899 104.772 121.362 103.364C134.912 90.2921 139.573 74.8414 136.474 53.2623C132.696 26.9774 127.264 7.6264 126.501 4.97435C126.383 2.87344 124.685 0 93.2329 0C61.7781 0 60.08 2.87344 59.9622 4.97435C59.2015 7.62169 53.7702 26.9727 49.9923 53.2623C46.8928 74.8414 51.5515 90.2921 65.1014 103.364C66.5617 104.772 67.9066 105.992 69.1643 107.132C74.1622 111.673 77.4643 114.674 81.3858 123.388C85.3686 132.235 86.5086 185.714 81.9323 197.82C80.9407 200.444 73.4462 202.502 67.4237 204.156C58.0427 206.732 48.3413 209.394 48.0115 216.436C47.955 217.656 48.061 219.239 49.387 220.629C52.1545 223.53 59.6961 225 93.2329 225C126.767 225 134.309 223.53 137.076 220.629C138.402 219.239 138.508 217.656 138.452 216.436C138.122 209.394 128.421 206.732 119.04 204.156ZM121.752 6.71491C118.676 7.21305 111.22 7.88548 93.2329 7.88548C75.2456 7.88548 67.7891 7.21305 64.714 6.71491C66.5552 6.11843 72.8774 4.82362 93.2329 4.82362C113.597 4.82362 119.914 6.1149 121.752 6.71491ZM133.612 217.27C132.392 219.197 118.807 220.176 93.2329 220.176C67.6569 220.176 54.0717 219.197 52.854 217.275C52.8469 217.256 52.8092 217.133 52.8304 216.662C52.9953 213.12 61.7051 210.727 68.7027 208.81C76.8708 206.563 84.5843 204.448 86.445 199.525C91.4005 186.411 90.1075 131.015 85.7855 121.41C81.4518 111.782 77.4596 108.155 72.4075 103.562C71.1828 102.45 69.8732 101.263 68.4506 99.8875C56.1302 88.0074 51.9095 73.8381 54.7688 53.9501C57.8731 32.3427 62.0961 15.5178 63.8546 8.98775C68.4518 9.85832 78.2801 10.2973 93.2329 10.2973C108.182 10.2973 118.011 9.85862 122.609 8.98834C124.368 15.5187 128.593 32.3433 131.697 53.9501C134.556 73.8381 130.336 88.0027 118.013 99.8875C116.588 101.263 115.278 102.455 114.054 103.566C109.002 108.159 105.012 111.782 100.68 121.41C96.3584 131.015 95.0653 186.411 100.021 199.525C101.882 204.448 109.595 206.563 117.763 208.81C124.761 210.727 133.468 213.12 133.633 216.662C133.654 217.133 133.617 217.256 133.612 217.27Z" fill="#002554"/>
</svg>
