<svg width="186" height="225" viewBox="0 0 186 225" fill="none" xmlns="http://www.w3.org/2000/svg">
<path d="M56.7101 128.498L56.7101 128.495C56.6978 115.697 60.4864 103.184 67.5954 92.5431C74.7066 81.8987 78.4964 69.3822 78.4843 56.581C78.4843 56.5803 78.4843 56.5796 78.4843 56.579V50.8065H82.1133H103.888H107.517L107.517 56.579C107.504 69.3809 111.294 81.8981 118.405 92.5431C125.514 103.184 129.303 115.697 129.291 128.495V128.498V206.851C129.286 210.7 127.755 214.391 125.033 217.113C122.311 219.835 118.62 221.367 114.771 221.371H71.2303C67.3806 221.367 63.6899 219.835 60.9678 217.113C58.2461 214.392 56.715 210.702 56.7101 206.853L56.7101 128.498Z" stroke="#002554" stroke-width="7.25806"/>
</svg>
