<svg width="186" height="225" viewBox="0 0 186 225" fill="none" xmlns="http://www.w3.org/2000/svg">
<path d="M36.629 10.8871C36.629 6.87858 39.8786 3.62903 43.8871 3.62903H175.113C179.121 3.62903 182.371 6.87858 182.371 10.8871V112.5V214.113C182.371 218.121 179.121 221.371 175.113 221.371H43.8871C39.8786 221.371 36.629 218.121 36.629 214.113V112.5V10.8871Z" stroke="#002554" stroke-width="7.25806"/>
<rect x="14.5166" y="152.42" width="25.4032" height="7.25806" fill="#002554"/>
<path d="M7.25806 141.533C5.25395 141.533 3.62903 143.156 3.62903 145.162H1.81452C1.44771 145.162 1.10572 145.269 0.820431 145.46C0.326046 145.786 0 146.346 0 146.977C0 147.976 0.811571 148.791 1.81452 148.791H3.62903V163.307C3.62903 165.313 7.06846 166.936 9.07258 166.936V170.565H7.25806C6.25512 170.565 5.44355 171.381 5.44355 172.38C5.44355 173.379 6.25512 174.194 7.25806 174.194H21.7742C22.7771 174.194 23.5887 173.379 23.5887 172.38C23.5887 172.061 23.5054 171.756 23.3601 171.494C23.2946 171.381 23.2166 171.274 23.1298 171.175C22.7966 170.799 22.3129 170.565 21.7742 170.565H19.9597V166.936C21.9638 166.936 25.4032 165.313 25.4032 163.307V148.791H27.2177C28.2207 148.791 29.0323 147.976 29.0323 146.977C29.0323 145.977 28.2207 145.162 27.2177 145.162H25.4032C25.4032 143.156 23.7783 141.533 21.7742 141.533H7.25806Z" fill="#002554"/>
</svg>
