<svg width="90" height="21" viewBox="0 0 90 21" fill="none" xmlns="http://www.w3.org/2000/svg">
<path d="M2.88097 7.37361L8.39033 7.1896L13.8317 2.29133C15.472 0.814234 17.6084 0 19.8473 0H54.3094C56.1364 0 57.9228 0.491706 59.4749 1.42169C64.1605 4.2265 67.3539 6.13 68.0174 6.51486L70.0208 7.12331C74.7156 7.2173 79.5139 7.93458 82.9477 8.57864C83.3758 8.65878 83.8181 8.74485 84.2989 8.8428C86.0833 9.20292 87.5349 10.406 88.1811 12.0592L88.9785 14.0962C89.575 14.3169 90 14.8788 90 15.5357V18.0427C90 19.3942 88.8679 20.4934 87.4771 20.4934H82.408C82.4638 20.249 82.5044 20.0007 82.5287 19.7513C82.55 19.5446 82.5612 19.3358 82.5612 19.1271C82.5612 19.0875 82.5612 19.0489 82.5602 19.0093C82.4953 15.5575 79.5828 12.7695 76.0131 12.7695C72.4494 12.7695 69.542 15.5466 69.467 18.9896C69.466 18.9965 69.466 19.0034 69.466 19.0093C69.4649 19.0489 69.4649 19.0875 69.4649 19.1271C69.4649 19.3309 69.4741 19.5317 69.4944 19.7316C69.5177 19.9819 69.5562 20.2302 69.611 20.4736C69.612 20.4805 69.613 20.4864 69.6151 20.4934H20.4722C20.4803 20.4587 20.4884 20.4241 20.4945 20.3895C20.5462 20.1451 20.5827 19.8968 20.604 19.6475C20.6192 19.4743 20.6264 19.3012 20.6264 19.1271C20.6264 19.0875 20.6264 19.0489 20.6253 19.0093C20.6243 18.9747 20.6233 18.9401 20.6223 18.9055C20.5016 15.5011 17.6125 12.7695 14.0772 12.7695C10.6302 12.7695 7.79588 15.3695 7.54734 18.6561C7.53516 18.8115 7.52908 18.9688 7.52908 19.1271C7.52908 19.2201 7.53111 19.3131 7.53618 19.4061C7.54633 19.6643 7.57372 19.9205 7.61632 20.1718L4.02322 19.5871L3.98974 19.5812C1.67786 19.1004 0 17.087 0 14.7927V10.2684C0 8.69835 1.26499 7.42704 2.88097 7.37361ZM82.8037 11.8108C82.8037 12.9189 83.7298 13.8162 84.8721 13.8162H86.8441L86.3937 12.6676C85.9697 11.5843 85.006 10.7849 83.8353 10.5484C83.5229 10.4851 83.177 10.4168 82.8037 10.3476V11.8108ZM53.4157 12.4826C53.4157 12.8924 53.7479 13.2246 54.1577 13.2246H55.8336C56.2434 13.2246 56.5756 12.8924 56.5756 12.4826C56.5756 12.0728 56.2434 11.7406 55.8336 11.7406H54.1577C53.7479 11.7406 53.4157 12.0728 53.4157 12.4826ZM52.4773 7.8297H64.3705C63.0578 7.04812 61.033 5.83716 57.8822 3.95047C56.8089 3.30739 55.5744 2.96804 54.3094 2.96804H52.4773V7.8297ZM38.6811 7.8297H49.4341V2.96804H38.6811V7.8297ZM25.6934 12.4826C25.6934 12.8924 26.0256 13.2246 26.4354 13.2246H28.1113C28.5211 13.2246 28.8534 12.8924 28.8534 12.4826C28.8534 12.0728 28.5211 11.7406 28.1113 11.7406H26.4354C26.0256 11.7406 25.6934 12.0728 25.6934 12.4826ZM24.8839 7.8297H35.6379V2.96804H24.8839V7.8297ZM12.3831 7.73868C12.4744 7.79804 12.5799 7.8297 12.6885 7.8297H21.8406V2.96804H19.8473C18.3764 2.96804 16.9734 3.50229 15.8961 4.47186L12.3162 7.69515L12.3831 7.73868ZM1.54294 11.794H2.33521C2.88604 11.794 3.33138 11.3617 3.33138 10.8274V8.88039L3.03516 8.89029C2.20232 8.91799 1.54294 9.58085 1.54294 10.3882V11.794Z" fill="#7A3996"/>
<path d="M52.4773 7.8297H64.3705C63.0578 7.04812 61.033 5.83716 57.8822 3.95047C56.8089 3.30739 55.5744 2.96804 54.3094 2.96804H52.4773V7.8297Z" fill="#DEC7E8"/>
<path d="M38.6811 7.8297H49.4341V2.96804H38.6811V7.8297Z" fill="#DEC7E8"/>
<path d="M24.8839 7.8297H35.6379V2.96804H24.8839V7.8297Z" fill="#DEC7E8"/>
<path d="M12.3831 7.73868C12.4744 7.79804 12.5799 7.8297 12.6885 7.8297H21.8406V2.96804H19.8473C18.3764 2.96804 16.9734 3.50229 15.8961 4.47186L12.3162 7.69515L12.3831 7.73868Z" fill="#DEC7E8"/>
<path d="M25.6934 12.4826C25.6934 12.8924 26.0256 13.2246 26.4354 13.2246H28.1113C28.5211 13.2246 28.8534 12.8924 28.8534 12.4826C28.8534 12.0728 28.5211 11.7406 28.1113 11.7406H26.4354C26.0256 11.7406 25.6934 12.0728 25.6934 12.4826Z" fill="#DEC7E8"/>
<path d="M53.4157 12.4826C53.4157 12.8924 53.7479 13.2246 54.1577 13.2246H55.8336C56.2434 13.2246 56.5756 12.8924 56.5756 12.4826C56.5756 12.0728 56.2434 11.7406 55.8336 11.7406H54.1577C53.7479 11.7406 53.4157 12.0728 53.4157 12.4826Z" fill="#DEC7E8"/>
<path d="M82.8037 11.8108C82.8037 12.9189 83.7298 13.8162 84.8721 13.8162H86.8441L86.3937 12.6676C85.9697 11.5843 85.006 10.7849 83.8353 10.5484C83.5229 10.4851 83.177 10.4168 82.8037 10.3476V11.8108Z" fill="#DEC7E8"/>
<path d="M1.54294 11.794H2.33521C2.88604 11.794 3.33138 11.3617 3.33138 10.8274V8.88039L3.03516 8.89029C2.20232 8.91799 1.54294 9.58085 1.54294 10.3882V11.794Z" fill="#DEC7E8"/>
</svg>
