<svg width="48" height="48" viewBox="0 0 48 48" fill="none" xmlns="http://www.w3.org/2000/svg">
<path d="M33.375 6.5C31.2045 6.5 29.2145 7.18173 27.4604 8.52628C25.7787 9.81532 24.6591 11.4571 24 12.651C23.3409 11.4571 22.2213 9.81532 20.5396 8.52628C18.7855 7.18173 16.7955 6.5 14.625 6.5C8.56781 6.5 4 11.4106 4 17.9225C4 24.9577 9.69867 29.7711 18.3257 37.0578C19.7907 38.2953 21.4513 39.6979 23.1772 41.1938C23.4047 41.3913 23.6969 41.5 24 41.5C24.3031 41.5 24.5953 41.3913 24.8228 41.1939C26.5489 39.6977 28.2094 38.2952 29.6752 37.057C38.3013 29.7711 44 24.9577 44 17.9225C44 11.4106 39.4322 6.5 33.375 6.5Z" fill="#7A3996"/>
</svg>
