<svg width="90" height="40" viewBox="0 0 90 40" fill="none" xmlns="http://www.w3.org/2000/svg">
<g clip-path="url(#clip0_25_479)">
<path d="M77 27C77 27.5523 76.5523 28 76 28C75.4477 28 75 27.5523 75 27C75 26.4477 75.4477 26 76 26C76.5523 26 77 26.4477 77 27Z" fill="#D6DDEB" stroke="#B4BDDB" stroke-width="8"/>
<path d="M87.119 15.3736L81.6097 15.1896L76.1683 10.2913C74.528 8.81423 72.3916 8 70.1527 8H35.6906C33.8636 8 32.0772 8.49171 30.5251 9.42169C25.8395 12.2265 22.6461 14.13 21.9826 14.5149L19.9792 15.1233C15.2844 15.2173 10.4861 15.9346 7.0523 16.5786C6.62421 16.6588 6.18192 16.7449 5.70108 16.8428C3.9167 17.2029 2.46506 18.406 1.81887 20.0592L1.02153 22.0962C0.425045 22.3169 0 22.8788 0 23.5357V26.0427C0 27.3942 1.1321 28.4934 2.52288 28.4934H7.59198C7.53618 28.249 7.4956 28.0007 7.47126 27.7513C7.44996 27.5446 7.4388 27.3358 7.4388 27.1271C7.4388 27.0875 7.4388 27.0489 7.43981 27.0093C7.50473 23.5575 10.4172 20.7695 13.9869 20.7695C17.5506 20.7695 20.458 23.5466 20.533 26.9896C20.534 26.9965 20.534 27.0034 20.534 27.0093C20.5351 27.0489 20.5351 27.0875 20.5351 27.1271C20.5351 27.3309 20.5259 27.5317 20.5056 27.7316C20.4823 27.9819 20.4438 28.2302 20.389 28.4736C20.388 28.4805 20.387 28.4864 20.3849 28.4934H69.5278C69.5197 28.4587 69.5116 28.4241 69.5055 28.3895C69.4538 28.1451 69.4173 27.8968 69.396 27.6475C69.3808 27.4743 69.3736 27.3012 69.3736 27.1271C69.3736 27.0875 69.3736 27.0489 69.3747 27.0093C69.3757 26.9747 69.3767 26.9401 69.3777 26.9055C69.4984 23.5011 72.3875 20.7695 75.9228 20.7695C79.3698 20.7695 82.2041 23.3695 82.4527 26.6561C82.4648 26.8115 82.4709 26.9688 82.4709 27.1271C82.4709 27.2201 82.4689 27.3131 82.4638 27.4061C82.4537 27.6643 82.4263 27.9205 82.3837 28.1718L85.9768 27.5871L86.0103 27.5812C88.3221 27.1004 90 25.087 90 22.7927V18.2684C90 16.6984 88.735 15.427 87.119 15.3736ZM7.19635 19.8108C7.19635 20.9189 6.27018 21.8162 5.12793 21.8162H3.15588L3.60629 20.6676C4.03032 19.5843 4.99403 18.7849 6.16468 18.5484C6.47712 18.4851 6.82304 18.4168 7.19635 18.3476V19.8108ZM36.5843 20.4826C36.5843 20.8924 36.2521 21.2246 35.8423 21.2246H34.1664C33.7566 21.2246 33.4244 20.8924 33.4244 20.4826C33.4244 20.0728 33.7566 19.7406 34.1664 19.7406H35.8423C36.2521 19.7406 36.5843 20.0728 36.5843 20.4826ZM37.5227 15.8297H25.6295C26.9422 15.0481 28.967 13.8372 32.1178 11.9505C33.1911 11.3074 34.4256 10.968 35.6906 10.968H37.5227V15.8297ZM51.3189 15.8297H40.5659V10.968H51.3189V15.8297ZM64.3066 20.4826C64.3066 20.8924 63.9744 21.2246 63.5646 21.2246H61.8887C61.4789 21.2246 61.1466 20.8924 61.1466 20.4826C61.1466 20.0728 61.4789 19.7406 61.8887 19.7406H63.5646C63.9744 19.7406 64.3066 20.0728 64.3066 20.4826ZM65.1161 15.8297H54.3621V10.968H65.1161V15.8297ZM77.6169 15.7387C77.5256 15.798 77.4201 15.8297 77.3115 15.8297H68.1594V10.968H70.1527C71.6236 10.968 73.0266 11.5023 74.1039 12.4719L77.6838 15.6952L77.6169 15.7387ZM88.4571 19.794H87.6648C87.114 19.794 86.6686 19.3617 86.6686 18.8274V16.8804L86.9648 16.8903C87.7977 16.918 88.4571 17.5808 88.4571 18.3882V19.794Z" fill="#B4BDDB"/>
<path d="M37.5227 15.8297H25.6295C26.9422 15.0481 28.967 13.8372 32.1178 11.9505C33.1911 11.3074 34.4256 10.968 35.6906 10.968H37.5227V15.8297Z" fill="#D6DDEB"/>
<path d="M51.3189 15.8297H40.5659V10.968H51.3189V15.8297Z" fill="#D6DDEB"/>
<path d="M65.1161 15.8297H54.3621V10.968H65.1161V15.8297Z" fill="#D6DDEB"/>
<path d="M77.6169 15.7387C77.5256 15.798 77.4201 15.8297 77.3115 15.8297H68.1594V10.968H70.1527C71.6236 10.968 73.0266 11.5023 74.1039 12.4719L77.6838 15.6952L77.6169 15.7387Z" fill="#D6DDEB"/>
<path d="M64.3066 20.4826C64.3066 20.8924 63.9744 21.2246 63.5646 21.2246H61.8887C61.4789 21.2246 61.1466 20.8924 61.1466 20.4826C61.1466 20.0728 61.4789 19.7406 61.8887 19.7406H63.5646C63.9744 19.7406 64.3066 20.0728 64.3066 20.4826Z" fill="#D6DDEB"/>
<path d="M36.5843 20.4826C36.5843 20.8924 36.2521 21.2246 35.8423 21.2246H34.1664C33.7566 21.2246 33.4244 20.8924 33.4244 20.4826C33.4244 20.0728 33.7566 19.7406 34.1664 19.7406H35.8423C36.2521 19.7406 36.5843 20.0728 36.5843 20.4826Z" fill="#D6DDEB"/>
<path d="M7.19635 19.8108C7.19635 20.9189 6.27018 21.8162 5.12793 21.8162H3.15588L3.60629 20.6676C4.03032 19.5843 4.99403 18.7849 6.16468 18.5484C6.47712 18.4851 6.82304 18.4168 7.19635 18.3476V19.8108Z" fill="#D6DDEB"/>
<path d="M88.4571 19.794H87.6648C87.114 19.794 86.6686 19.3617 86.6686 18.8274V16.8804L86.9648 16.8903C87.7977 16.918 88.4571 17.5808 88.4571 18.3882V19.794Z" fill="#D6DDEB"/>
<path d="M15 27C15 27.5523 14.5523 28 14 28C13.4477 28 13 27.5523 13 27C13 26.4477 13.4477 26 14 26C14.5523 26 15 26.4477 15 27Z" fill="#D6DDEB" stroke="#B4BDDB" stroke-width="8"/>
</g>
<defs>
<clipPath id="clip0_25_479">
<rect width="90" height="24" fill="white" transform="translate(0 8)"/>
</clipPath>
</defs>
</svg>
