<svg width="90" height="40" viewBox="0 0 90 40" fill="none" xmlns="http://www.w3.org/2000/svg">
<g clip-path="url(#clip0_71_1688)">
<path d="M13 27C13 27.5523 13.4477 28 14 28C14.5523 28 15 27.5523 15 27C15 26.4477 14.5523 26 14 26C13.4477 26 13 26.4477 13 27Z" fill="#D6DDEB" stroke="#B4BDDB" stroke-width="8"/>
<path d="M2.88097 15.3736L8.39033 15.1896L13.8317 10.2913C15.472 8.81423 17.6084 8 19.8473 8H54.3094C56.1364 8 57.9228 8.49171 59.4749 9.42169C64.1605 12.2265 67.3539 14.13 68.0174 14.5149L70.0208 15.1233C74.7156 15.2173 79.5139 15.9346 82.9477 16.5786C83.3758 16.6588 83.8181 16.7449 84.2989 16.8428C86.0833 17.2029 87.5349 18.406 88.1811 20.0592L88.9785 22.0962C89.575 22.3169 90 22.8788 90 23.5357V26.0427C90 27.3942 88.8679 28.4934 87.4771 28.4934H82.408C82.4638 28.249 82.5044 28.0007 82.5287 27.7513C82.55 27.5446 82.5612 27.3358 82.5612 27.1271C82.5612 27.0875 82.5612 27.0489 82.5602 27.0093C82.4953 23.5575 79.5828 20.7695 76.0131 20.7695C72.4494 20.7695 69.542 23.5466 69.467 26.9896C69.466 26.9965 69.466 27.0034 69.466 27.0093C69.4649 27.0489 69.4649 27.0875 69.4649 27.1271C69.4649 27.3309 69.4741 27.5317 69.4944 27.7316C69.5177 27.9819 69.5562 28.2302 69.611 28.4736C69.612 28.4805 69.613 28.4864 69.6151 28.4934H20.4722C20.4803 28.4587 20.4884 28.4241 20.4945 28.3895C20.5462 28.1451 20.5827 27.8968 20.604 27.6475C20.6192 27.4743 20.6264 27.3012 20.6264 27.1271C20.6264 27.0875 20.6264 27.0489 20.6253 27.0093C20.6243 26.9747 20.6233 26.9401 20.6223 26.9055C20.5016 23.5011 17.6125 20.7695 14.0772 20.7695C10.6302 20.7695 7.79588 23.3695 7.54734 26.6561C7.53516 26.8115 7.52908 26.9688 7.52908 27.1271C7.52908 27.2201 7.53111 27.3131 7.53618 27.4061C7.54633 27.6643 7.57372 27.9205 7.61632 28.1718L4.02322 27.5871L3.98974 27.5812C1.67786 27.1004 0 25.087 0 22.7927V18.2684C0 16.6984 1.26499 15.427 2.88097 15.3736ZM82.8037 19.8108C82.8037 20.9189 83.7298 21.8162 84.8721 21.8162H86.8441L86.3937 20.6676C85.9697 19.5843 85.006 18.7849 83.8353 18.5484C83.5229 18.4851 83.177 18.4168 82.8037 18.3476V19.8108ZM53.4157 20.4826C53.4157 20.8924 53.7479 21.2246 54.1577 21.2246H55.8336C56.2434 21.2246 56.5756 20.8924 56.5756 20.4826C56.5756 20.0728 56.2434 19.7406 55.8336 19.7406H54.1577C53.7479 19.7406 53.4157 20.0728 53.4157 20.4826ZM52.4773 15.8297H64.3705C63.0578 15.0481 61.033 13.8372 57.8822 11.9505C56.8089 11.3074 55.5744 10.968 54.3094 10.968H52.4773V15.8297ZM38.6811 15.8297H49.4341V10.968H38.6811V15.8297ZM25.6934 20.4826C25.6934 20.8924 26.0256 21.2246 26.4354 21.2246H28.1113C28.5211 21.2246 28.8534 20.8924 28.8534 20.4826C28.8534 20.0728 28.5211 19.7406 28.1113 19.7406H26.4354C26.0256 19.7406 25.6934 20.0728 25.6934 20.4826ZM24.8839 15.8297H35.6379V10.968H24.8839V15.8297ZM12.3831 15.7387C12.4744 15.798 12.5799 15.8297 12.6885 15.8297H21.8406V10.968H19.8473C18.3764 10.968 16.9734 11.5023 15.8961 12.4719L12.3162 15.6952L12.3831 15.7387ZM1.54294 19.794H2.33521C2.88604 19.794 3.33138 19.3617 3.33138 18.8274V16.8804L3.03516 16.8903C2.20232 16.918 1.54294 17.5808 1.54294 18.3882V19.794Z" fill="#B4BDDB"/>
<path d="M52.4773 15.8297H64.3705C63.0578 15.0481 61.033 13.8372 57.8822 11.9505C56.8089 11.3074 55.5744 10.968 54.3094 10.968H52.4773V15.8297Z" fill="#D6DDEB"/>
<path d="M38.6811 15.8297H49.4341V10.968H38.6811V15.8297Z" fill="#D6DDEB"/>
<path d="M24.8839 15.8297H35.6379V10.968H24.8839V15.8297Z" fill="#D6DDEB"/>
<path d="M12.3831 15.7387C12.4744 15.798 12.5799 15.8297 12.6885 15.8297H21.8406V10.968H19.8473C18.3764 10.968 16.9734 11.5023 15.8961 12.4719L12.3162 15.6952L12.3831 15.7387Z" fill="#D6DDEB"/>
<path d="M25.6934 20.4826C25.6934 20.8924 26.0256 21.2246 26.4354 21.2246H28.1113C28.5211 21.2246 28.8534 20.8924 28.8534 20.4826C28.8534 20.0728 28.5211 19.7406 28.1113 19.7406H26.4354C26.0256 19.7406 25.6934 20.0728 25.6934 20.4826Z" fill="#D6DDEB"/>
<path d="M53.4157 20.4826C53.4157 20.8924 53.7479 21.2246 54.1577 21.2246H55.8336C56.2434 21.2246 56.5756 20.8924 56.5756 20.4826C56.5756 20.0728 56.2434 19.7406 55.8336 19.7406H54.1577C53.7479 19.7406 53.4157 20.0728 53.4157 20.4826Z" fill="#D6DDEB"/>
<path d="M82.8037 19.8108C82.8037 20.9189 83.7298 21.8162 84.8721 21.8162H86.8441L86.3937 20.6676C85.9697 19.5843 85.006 18.7849 83.8353 18.5484C83.5229 18.4851 83.177 18.4168 82.8037 18.3476V19.8108Z" fill="#D6DDEB"/>
<path d="M1.54294 19.794H2.33521C2.88604 19.794 3.33138 19.3617 3.33138 18.8274V16.8804L3.03516 16.8903C2.20232 16.918 1.54294 17.5808 1.54294 18.3882V19.794Z" fill="#D6DDEB"/>
<path d="M75 27C75 27.5523 75.4477 28 76 28C76.5523 28 77 27.5523 77 27C77 26.4477 76.5523 26 76 26C75.4477 26 75 26.4477 75 27Z" fill="#D6DDEB" stroke="#B4BDDB" stroke-width="8"/>
</g>
<defs>
<clipPath id="clip0_71_1688">
<rect width="90" height="24" fill="white" transform="matrix(-1 0 0 1 90 8)"/>
</clipPath>
</defs>
</svg>
