<svg width="20" height="20" viewBox="0 0 20 20" fill="none" xmlns="http://www.w3.org/2000/svg">
<path d="M19.9035 17.0204L10.6183 2.32653C10.4799 2.10816 10.2411 2 10 2C9.75894 2 9.51788 2.10816 9.38173 2.32653L0.0965423 17.0204C-0.177996 17.4571 0.165735 18 0.714811 18H19.2852C19.8343 18 20.178 17.4571 19.9035 17.0204ZM9.28575 8.04082C9.28575 7.95102 9.36611 7.87755 9.46432 7.87755H10.5357C10.6339 7.87755 10.7142 7.95102 10.7142 8.04082V11.7959C10.7142 11.8857 10.6339 11.9592 10.5357 11.9592H9.46432C9.36611 11.9592 9.28575 11.8857 9.28575 11.7959V8.04082ZM10 15.2245C9.71964 15.2193 9.4527 15.1138 9.25645 14.9306C9.0602 14.7475 8.95028 14.5013 8.95028 14.2449C8.95028 13.9885 9.0602 13.7423 9.25645 13.5592C9.4527 13.376 9.71964 13.2705 10 13.2653C10.2804 13.2705 10.5473 13.376 10.7436 13.5592C10.9398 13.7423 11.0497 13.9885 11.0497 14.2449C11.0497 14.5013 10.9398 14.7475 10.7436 14.9306C10.5473 15.1138 10.2804 15.2193 10 15.2245Z" fill="#D4AA49"/>
</svg>
