<svg width="96" height="72" viewBox="0 0 96 72" fill="none" xmlns="http://www.w3.org/2000/svg">
<path d="M16 18C20.9706 18 25 13.9706 25 9C25 4.02944 20.9706 0 16 0C11.0294 0 7 4.02944 7 9C7 13.9706 11.0294 18 16 18Z" fill="#B4BDDB"/>
<path d="M26.2304 20H15.0005H5.77054C2.58384 20 0 22.6509 0 25.9226V39.3169C0 42.5866 2.58384 45.2405 5.76859 45.2405H7.16911V67.4339C7.16911 69.9548 9.15982 72 11.618 72H20.38C22.8373 72 24.8289 69.9548 24.8289 67.4339V45.2405H26.2304C29.4152 45.2405 32 42.5876 32 39.3169V25.9226C32.001 22.6509 29.4162 20 26.2304 20Z" fill="#B4BDDB"/>
<path d="M48 18C52.9706 18 57 13.9706 57 9C57 4.02944 52.9706 0 48 0C43.0294 0 39 4.02944 39 9C39 13.9706 43.0294 18 48 18Z" fill="#007675"/>
<path d="M58.2304 20H47.0005H37.7705C34.5838 20 32 22.6509 32 25.9226V39.3169C32 42.5866 34.5838 45.2405 37.7686 45.2405H39.1691V67.4339C39.1691 69.9548 41.1598 72 43.618 72H52.38C54.8373 72 56.8289 69.9548 56.8289 67.4339V45.2405H58.2304C61.4152 45.2405 64 42.5876 64 39.3169V25.9226C64.001 22.6509 61.4162 20 58.2304 20Z" fill="#007675"/>
<path d="M80 18C84.9706 18 89 13.9706 89 9C89 4.02944 84.9706 0 80 0C75.0294 0 71 4.02944 71 9C71 13.9706 75.0294 18 80 18Z" fill="#ECEFF5"/>
<path d="M90.2304 20H79.0005H69.7705C66.5838 20 64 22.6509 64 25.9226V39.3169C64 42.5866 66.5838 45.2405 69.7686 45.2405H71.1691V67.4339C71.1691 69.9548 73.1598 72 75.618 72H84.38C86.8373 72 88.8289 69.9548 88.8289 67.4339V45.2405H90.2304C93.4152 45.2405 96 42.5876 96 39.3169V25.9226C96.001 22.6509 93.4162 20 90.2304 20Z" fill="#ECEFF5"/>
</svg>
